M48
INCH,TZ
T1C0.016
T2C0.024
T3C0.032
T4C0.039
T5C0.039
T6C0.040
T7C0.118
%
G90
G05
T1
X3550Y7900
X4130Y8385
X4780Y13180
X5996Y6839
X6371Y8748
X7225Y7290
X8527Y13188
X8661Y7087
X10236Y8268
X13780Y3937
X14961Y10236
T2
X8605Y14720
X9105Y14720
X9605Y14720
X10645Y14770
X11145Y14770
X11645Y14770
T3
X2622Y3701
X3622Y3701
X6345Y15135
X7345Y15135
T4
X5871Y12648
X5871Y11648
X6871Y12648
X6871Y11648
X7871Y12648
X7871Y11648
X8871Y12648
X8871Y11648
X9871Y12648
X9871Y11648
T5
X3834Y1660
X4025Y9762
X4025Y5762
X4834Y1660
X5125Y9748
X5125Y5748
X5905Y4093
X6196Y1660
X6225Y9748
X6225Y5748
X7196Y1660
X7325Y9748
X7325Y5748
X8425Y9750
X8425Y5750
X8574Y1660
X9525Y9750
X9525Y5750
X9574Y1660
X9905Y4093
X10625Y9748
X10625Y5748
X10920Y1660
X11725Y9748
X11725Y5748
X11920Y1660
T6
X1871Y14748
X1871Y13748
X1871Y12748
X1871Y11748
X1871Y10748
X1871Y9748
X1871Y8748
X1871Y7748
X1871Y6748
X1871Y5748
X2871Y14748
X2871Y13748
X2871Y12748
X2871Y11748
X2871Y10748
X2871Y9748
X2871Y8748
X2871Y7748
X2871Y6748
X2871Y5748
X4255Y14765
X5255Y14765
X12871Y14748
X12871Y13748
X12871Y12748
X12871Y11748
X12871Y10748
X12871Y9748
X12871Y8748
X12871Y7748
X12871Y6748
X12871Y5748
X13871Y14748
X13871Y13748
X13871Y12748
X13871Y11748
X13871Y10748
X13871Y9748
X13871Y8748
X13871Y7748
X13871Y6748
X13871Y5748
T7
X1181Y1850
X14567Y1850
T0
M30
