G04 #@! TF.FileFunction,Legend,Bot*
%FSLAX46Y46*%
G04 Gerber Fmt 4.6, Leading zero omitted, Abs format (unit mm)*
G04 Created by KiCad (PCBNEW (2015-05-19 BZR 5670)-product) date 04.11.2016 21:30:30*
%MOMM*%
G01*
G04 APERTURE LIST*
%ADD10C,0.150000*%
%ADD11C,0.200000*%
%ADD12C,2.398980*%
%ADD13R,2.127200X2.127200*%
%ADD14O,2.127200X2.127200*%
%ADD15C,1.906220*%
%ADD16C,1.901140*%
%ADD17R,2.400000X2.400000*%
%ADD18C,2.400000*%
%ADD19O,1.299160X1.901140*%
%ADD20R,2.432000X2.432000*%
%ADD21O,2.432000X2.432000*%
G04 APERTURE END LIST*
D10*
D11*
X39061905Y25833336D02*
X38261905Y25833336D01*
X38833333Y25566669D01*
X38261905Y25300002D01*
X39061905Y25300002D01*
X39061905Y24576193D02*
X38642857Y24576193D01*
X38566667Y24614288D01*
X38528571Y24690478D01*
X38528571Y24842859D01*
X38566667Y24919050D01*
X39023810Y24576193D02*
X39061905Y24652383D01*
X39061905Y24842859D01*
X39023810Y24919050D01*
X38947619Y24957145D01*
X38871429Y24957145D01*
X38795238Y24919050D01*
X38757143Y24842859D01*
X38757143Y24652383D01*
X38719048Y24576193D01*
X39061905Y23852383D02*
X38261905Y23852383D01*
X39023810Y23852383D02*
X39061905Y23928573D01*
X39061905Y24080954D01*
X39023810Y24157145D01*
X38985714Y24195240D01*
X38909524Y24233335D01*
X38680952Y24233335D01*
X38604762Y24195240D01*
X38566667Y24157145D01*
X38528571Y24080954D01*
X38528571Y23928573D01*
X38566667Y23852383D01*
X39023810Y23166668D02*
X39061905Y23242858D01*
X39061905Y23395239D01*
X39023810Y23471430D01*
X38947619Y23509525D01*
X38642857Y23509525D01*
X38566667Y23471430D01*
X38528571Y23395239D01*
X38528571Y23242858D01*
X38566667Y23166668D01*
X38642857Y23128573D01*
X38719048Y23128573D01*
X38795238Y23509525D01*
X39061905Y22176192D02*
X38261905Y22176192D01*
X38566667Y22176192D02*
X38528571Y22100001D01*
X38528571Y21947620D01*
X38566667Y21871430D01*
X38604762Y21833335D01*
X38680952Y21795239D01*
X38909524Y21795239D01*
X38985714Y21833335D01*
X39023810Y21871430D01*
X39061905Y21947620D01*
X39061905Y22100001D01*
X39023810Y22176192D01*
X38528571Y21528572D02*
X39061905Y21338096D01*
X38528571Y21147620D02*
X39061905Y21338096D01*
X39252381Y21414287D01*
X39290476Y21452382D01*
X39328571Y21528572D01*
X39061905Y19776191D02*
X38680952Y20042858D01*
X39061905Y20233334D02*
X38261905Y20233334D01*
X38261905Y19928572D01*
X38300000Y19852381D01*
X38338095Y19814286D01*
X38414286Y19776191D01*
X38528571Y19776191D01*
X38604762Y19814286D01*
X38642857Y19852381D01*
X38680952Y19928572D01*
X38680952Y20233334D01*
X39061905Y19090477D02*
X38642857Y19090477D01*
X38566667Y19128572D01*
X38528571Y19204762D01*
X38528571Y19357143D01*
X38566667Y19433334D01*
X39023810Y19090477D02*
X39061905Y19166667D01*
X39061905Y19357143D01*
X39023810Y19433334D01*
X38947619Y19471429D01*
X38871429Y19471429D01*
X38795238Y19433334D01*
X38757143Y19357143D01*
X38757143Y19166667D01*
X38719048Y19090477D01*
X38528571Y18709524D02*
X39328571Y18709524D01*
X38566667Y18709524D02*
X38528571Y18633333D01*
X38528571Y18480952D01*
X38566667Y18404762D01*
X38604762Y18366667D01*
X38680952Y18328571D01*
X38909524Y18328571D01*
X38985714Y18366667D01*
X39023810Y18404762D01*
X39061905Y18480952D01*
X39061905Y18633333D01*
X39023810Y18709524D01*
X39061905Y17985714D02*
X38261905Y17985714D01*
X39061905Y17642857D02*
X38642857Y17642857D01*
X38566667Y17680952D01*
X38528571Y17757142D01*
X38528571Y17871428D01*
X38566667Y17947619D01*
X38604762Y17985714D01*
X39061905Y16919047D02*
X38642857Y16919047D01*
X38566667Y16957142D01*
X38528571Y17033332D01*
X38528571Y17185713D01*
X38566667Y17261904D01*
X39023810Y16919047D02*
X39061905Y16995237D01*
X39061905Y17185713D01*
X39023810Y17261904D01*
X38947619Y17299999D01*
X38871429Y17299999D01*
X38795238Y17261904D01*
X38757143Y17185713D01*
X38757143Y16995237D01*
X38719048Y16919047D01*
X39023810Y16233332D02*
X39061905Y16309522D01*
X39061905Y16461903D01*
X39023810Y16538094D01*
X38947619Y16576189D01*
X38642857Y16576189D01*
X38566667Y16538094D01*
X38528571Y16461903D01*
X38528571Y16309522D01*
X38566667Y16233332D01*
X38642857Y16195237D01*
X38719048Y16195237D01*
X38795238Y16576189D01*
X39061905Y15738094D02*
X39023810Y15814285D01*
X38947619Y15852380D01*
X38261905Y15852380D01*
X39061905Y14823808D02*
X38261905Y14823808D01*
X38642857Y14823808D02*
X38642857Y14366665D01*
X39061905Y14366665D02*
X38261905Y14366665D01*
X39061905Y13985713D02*
X38528571Y13985713D01*
X38261905Y13985713D02*
X38300000Y14023808D01*
X38338095Y13985713D01*
X38300000Y13947618D01*
X38261905Y13985713D01*
X38338095Y13985713D01*
X39061905Y13490475D02*
X39023810Y13566666D01*
X38947619Y13604761D01*
X38261905Y13604761D01*
X39061905Y12842856D02*
X38261905Y12842856D01*
X39023810Y12842856D02*
X39061905Y12919046D01*
X39061905Y13071427D01*
X39023810Y13147618D01*
X38985714Y13185713D01*
X38909524Y13223808D01*
X38680952Y13223808D01*
X38604762Y13185713D01*
X38566667Y13147618D01*
X38528571Y13071427D01*
X38528571Y12919046D01*
X38566667Y12842856D01*
X39023810Y12157141D02*
X39061905Y12233331D01*
X39061905Y12385712D01*
X39023810Y12461903D01*
X38947619Y12499998D01*
X38642857Y12499998D01*
X38566667Y12461903D01*
X38528571Y12385712D01*
X38528571Y12233331D01*
X38566667Y12157141D01*
X38642857Y12119046D01*
X38719048Y12119046D01*
X38795238Y12499998D01*
X39061905Y11776189D02*
X38261905Y11776189D01*
X38566667Y11776189D02*
X38528571Y11699998D01*
X38528571Y11547617D01*
X38566667Y11471427D01*
X38604762Y11433332D01*
X38680952Y11395236D01*
X38909524Y11395236D01*
X38985714Y11433332D01*
X39023810Y11471427D01*
X39061905Y11547617D01*
X39061905Y11699998D01*
X39023810Y11776189D01*
X39061905Y11052379D02*
X38528571Y11052379D01*
X38680952Y11052379D02*
X38604762Y11014284D01*
X38566667Y10976188D01*
X38528571Y10899998D01*
X38528571Y10823807D01*
X39061905Y10214284D02*
X38642857Y10214284D01*
X38566667Y10252379D01*
X38528571Y10328569D01*
X38528571Y10480950D01*
X38566667Y10557141D01*
X39023810Y10214284D02*
X39061905Y10290474D01*
X39061905Y10480950D01*
X39023810Y10557141D01*
X38947619Y10595236D01*
X38871429Y10595236D01*
X38795238Y10557141D01*
X38757143Y10480950D01*
X38757143Y10290474D01*
X38719048Y10214284D01*
X38528571Y9833331D02*
X39061905Y9833331D01*
X38604762Y9833331D02*
X38566667Y9795236D01*
X38528571Y9719045D01*
X38528571Y9604759D01*
X38566667Y9528569D01*
X38642857Y9490474D01*
X39061905Y9490474D01*
X39061905Y8766664D02*
X38261905Y8766664D01*
X39023810Y8766664D02*
X39061905Y8842854D01*
X39061905Y8995235D01*
X39023810Y9071426D01*
X38985714Y9109521D01*
X38909524Y9147616D01*
X38680952Y9147616D01*
X38604762Y9109521D01*
X38566667Y9071426D01*
X38528571Y8995235D01*
X38528571Y8842854D01*
X38566667Y8766664D01*
X14209523Y39600000D02*
X14285714Y39638095D01*
X14399999Y39638095D01*
X14514285Y39600000D01*
X14590476Y39523810D01*
X14628571Y39447619D01*
X14666666Y39295238D01*
X14666666Y39180952D01*
X14628571Y39028571D01*
X14590476Y38952381D01*
X14514285Y38876190D01*
X14399999Y38838095D01*
X14323809Y38838095D01*
X14209523Y38876190D01*
X14171428Y38914286D01*
X14171428Y39180952D01*
X14323809Y39180952D01*
X13828571Y38838095D02*
X13828571Y39638095D01*
X13371428Y38838095D01*
X13371428Y39638095D01*
X12990476Y38838095D02*
X12990476Y39638095D01*
X12800000Y39638095D01*
X12685714Y39600000D01*
X12609523Y39523810D01*
X12571428Y39447619D01*
X12533333Y39295238D01*
X12533333Y39180952D01*
X12571428Y39028571D01*
X12609523Y38952381D01*
X12685714Y38876190D01*
X12800000Y38838095D01*
X12990476Y38838095D01*
X11828571Y39142857D02*
X11219047Y39142857D01*
X11523809Y38838095D02*
X11523809Y39447619D01*
X10457142Y39638095D02*
X10838095Y39638095D01*
X10876190Y39257143D01*
X10838095Y39295238D01*
X10761904Y39333333D01*
X10571428Y39333333D01*
X10495238Y39295238D01*
X10457142Y39257143D01*
X10419047Y39180952D01*
X10419047Y38990476D01*
X10457142Y38914286D01*
X10495238Y38876190D01*
X10571428Y38838095D01*
X10761904Y38838095D01*
X10838095Y38876190D01*
X10876190Y38914286D01*
X10190476Y39638095D02*
X9923809Y38838095D01*
X9657142Y39638095D01*
D10*
X19876000Y17140000D02*
X19876000Y22220000D01*
X19876000Y22220000D02*
X17336000Y22220000D01*
X17336000Y22220000D02*
X17336000Y17140000D01*
X17336000Y17140000D02*
X19876000Y17140000D01*
X18606000Y17140000D02*
X18606000Y15870000D01*
X18606000Y22220000D02*
X18606000Y23490000D01*
X8562200Y13330000D02*
X8562200Y38730000D01*
X3482200Y36190000D02*
X3482200Y13330000D01*
X8562200Y13330000D02*
X3482200Y13330000D01*
X8562200Y38730000D02*
X6022200Y38730000D01*
X3202200Y37460000D02*
X3202200Y39010000D01*
X6022200Y38730000D02*
X6022200Y36190000D01*
X6022200Y36190000D02*
X3482200Y36190000D01*
X3202200Y39010000D02*
X4752200Y39010000D01*
X36502200Y13330000D02*
X36502200Y38730000D01*
X31422200Y36190000D02*
X31422200Y13330000D01*
X36502200Y13330000D02*
X31422200Y13330000D01*
X36502200Y38730000D02*
X33962200Y38730000D01*
X31142200Y37460000D02*
X31142200Y39010000D01*
X33962200Y38730000D02*
X33962200Y36190000D01*
X33962200Y36190000D02*
X31422200Y36190000D01*
X31142200Y39010000D02*
X32692200Y39010000D01*
X8954000Y22256000D02*
X8954000Y17176000D01*
X8954000Y17176000D02*
X11494000Y17176000D01*
X11494000Y17176000D02*
X11494000Y22256000D01*
X11494000Y22256000D02*
X8954000Y22256000D01*
X10224000Y22256000D02*
X10224000Y23526000D01*
X10224000Y17176000D02*
X10224000Y15906000D01*
X31052000Y17140000D02*
X31052000Y22220000D01*
X31052000Y22220000D02*
X28512000Y22220000D01*
X28512000Y22220000D02*
X28512000Y17140000D01*
X28512000Y17140000D02*
X31052000Y17140000D01*
X29782000Y17140000D02*
X29782000Y15870000D01*
X29782000Y22220000D02*
X29782000Y23490000D01*
X28258000Y17140000D02*
X28258000Y22220000D01*
X28258000Y22220000D02*
X25718000Y22220000D01*
X25718000Y22220000D02*
X25718000Y17140000D01*
X25718000Y17140000D02*
X28258000Y17140000D01*
X26988000Y17140000D02*
X26988000Y15870000D01*
X26988000Y22220000D02*
X26988000Y23490000D01*
X22924000Y22224400D02*
X22924000Y17144400D01*
X22924000Y17144400D02*
X25464000Y17144400D01*
X25464000Y17144400D02*
X25464000Y22224400D01*
X25464000Y22224400D02*
X22924000Y22224400D01*
X24194000Y22224400D02*
X24194000Y23494400D01*
X24194000Y17144400D02*
X24194000Y15874400D01*
X22670000Y17144400D02*
X22670000Y22224400D01*
X22670000Y22224400D02*
X20130000Y22224400D01*
X20130000Y22224400D02*
X20130000Y17144400D01*
X20130000Y17144400D02*
X22670000Y17144400D01*
X21400000Y17144400D02*
X21400000Y15874400D01*
X21400000Y22224400D02*
X21400000Y23494400D01*
X17082000Y17140000D02*
X17082000Y22220000D01*
X17082000Y22220000D02*
X14542000Y22220000D01*
X14542000Y22220000D02*
X14542000Y17140000D01*
X14542000Y17140000D02*
X17082000Y17140000D01*
X15812000Y17140000D02*
X15812000Y15870000D01*
X15812000Y22220000D02*
X15812000Y23490000D01*
X14288000Y17140000D02*
X14288000Y22220000D01*
X14288000Y22220000D02*
X11748000Y22220000D01*
X11748000Y22220000D02*
X11748000Y17140000D01*
X11748000Y17140000D02*
X14288000Y17140000D01*
X13018000Y17140000D02*
X13018000Y15870000D01*
X13018000Y22220000D02*
X13018000Y23490000D01*
X22618000Y11666000D02*
X17538000Y11666000D01*
X17538000Y11666000D02*
X17538000Y9126000D01*
X17538000Y9126000D02*
X22618000Y9126000D01*
X22618000Y9126000D02*
X22618000Y11666000D01*
X22618000Y10396000D02*
X23888000Y10396000D01*
X17538000Y10396000D02*
X16268000Y10396000D01*
X19111081Y19927266D02*
X18634890Y20260600D01*
X19111081Y20498695D02*
X18111081Y20498695D01*
X18111081Y20117742D01*
X18158700Y20022504D01*
X18206319Y19974885D01*
X18301557Y19927266D01*
X18444414Y19927266D01*
X18539652Y19974885D01*
X18587271Y20022504D01*
X18634890Y20117742D01*
X18634890Y20498695D01*
X18111081Y19070123D02*
X18111081Y19260600D01*
X18158700Y19355838D01*
X18206319Y19403457D01*
X18349176Y19498695D01*
X18539652Y19546314D01*
X18920605Y19546314D01*
X19015843Y19498695D01*
X19063462Y19451076D01*
X19111081Y19355838D01*
X19111081Y19165361D01*
X19063462Y19070123D01*
X19015843Y19022504D01*
X18920605Y18974885D01*
X18682510Y18974885D01*
X18587271Y19022504D01*
X18539652Y19070123D01*
X18492033Y19165361D01*
X18492033Y19355838D01*
X18539652Y19451076D01*
X18587271Y19498695D01*
X18682510Y19546314D01*
X2694395Y38447119D02*
X2694395Y39447119D01*
X2313442Y39447119D01*
X2218204Y39399500D01*
X2170585Y39351881D01*
X2122966Y39256643D01*
X2122966Y39113786D01*
X2170585Y39018548D01*
X2218204Y38970929D01*
X2313442Y38923310D01*
X2694395Y38923310D01*
X1170585Y38447119D02*
X1742014Y38447119D01*
X1456300Y38447119D02*
X1456300Y39447119D01*
X1551538Y39304262D01*
X1646776Y39209024D01*
X1742014Y39161405D01*
X38635395Y38663019D02*
X38635395Y39663019D01*
X38254442Y39663019D01*
X38159204Y39615400D01*
X38111585Y39567781D01*
X38063966Y39472543D01*
X38063966Y39329686D01*
X38111585Y39234448D01*
X38159204Y39186829D01*
X38254442Y39139210D01*
X38635395Y39139210D01*
X37206823Y39329686D02*
X37206823Y38663019D01*
X37444919Y39710638D02*
X37683014Y38996352D01*
X37063966Y38996352D01*
X10703681Y19950566D02*
X10227490Y20283900D01*
X10703681Y20521995D02*
X9703681Y20521995D01*
X9703681Y20141042D01*
X9751300Y20045804D01*
X9798919Y19998185D01*
X9894157Y19950566D01*
X10037014Y19950566D01*
X10132252Y19998185D01*
X10179871Y20045804D01*
X10227490Y20141042D01*
X10227490Y20521995D01*
X10703681Y18998185D02*
X10703681Y19569614D01*
X10703681Y19283900D02*
X9703681Y19283900D01*
X9846538Y19379138D01*
X9941776Y19474376D01*
X9989395Y19569614D01*
X30287081Y19825666D02*
X29810890Y20159000D01*
X30287081Y20397095D02*
X29287081Y20397095D01*
X29287081Y20016142D01*
X29334700Y19920904D01*
X29382319Y19873285D01*
X29477557Y19825666D01*
X29620414Y19825666D01*
X29715652Y19873285D01*
X29763271Y19920904D01*
X29810890Y20016142D01*
X29810890Y20397095D01*
X29382319Y19444714D02*
X29334700Y19397095D01*
X29287081Y19301857D01*
X29287081Y19063761D01*
X29334700Y18968523D01*
X29382319Y18920904D01*
X29477557Y18873285D01*
X29572795Y18873285D01*
X29715652Y18920904D01*
X30287081Y19492333D01*
X30287081Y18873285D01*
X27429581Y19800266D02*
X26953390Y20133600D01*
X27429581Y20371695D02*
X26429581Y20371695D01*
X26429581Y19990742D01*
X26477200Y19895504D01*
X26524819Y19847885D01*
X26620057Y19800266D01*
X26762914Y19800266D01*
X26858152Y19847885D01*
X26905771Y19895504D01*
X26953390Y19990742D01*
X26953390Y20371695D01*
X26429581Y19466933D02*
X26429581Y18847885D01*
X26810533Y19181219D01*
X26810533Y19038361D01*
X26858152Y18943123D01*
X26905771Y18895504D01*
X27001010Y18847885D01*
X27239105Y18847885D01*
X27334343Y18895504D01*
X27381962Y18943123D01*
X27429581Y19038361D01*
X27429581Y19324076D01*
X27381962Y19419314D01*
X27334343Y19466933D01*
X24673681Y19918966D02*
X24197490Y20252300D01*
X24673681Y20490395D02*
X23673681Y20490395D01*
X23673681Y20109442D01*
X23721300Y20014204D01*
X23768919Y19966585D01*
X23864157Y19918966D01*
X24007014Y19918966D01*
X24102252Y19966585D01*
X24149871Y20014204D01*
X24197490Y20109442D01*
X24197490Y20490395D01*
X24007014Y19061823D02*
X24673681Y19061823D01*
X23626062Y19299919D02*
X24340348Y19538014D01*
X24340348Y18918966D01*
X21879681Y19931666D02*
X21403490Y20265000D01*
X21879681Y20503095D02*
X20879681Y20503095D01*
X20879681Y20122142D01*
X20927300Y20026904D01*
X20974919Y19979285D01*
X21070157Y19931666D01*
X21213014Y19931666D01*
X21308252Y19979285D01*
X21355871Y20026904D01*
X21403490Y20122142D01*
X21403490Y20503095D01*
X20879681Y19026904D02*
X20879681Y19503095D01*
X21355871Y19550714D01*
X21308252Y19503095D01*
X21260633Y19407857D01*
X21260633Y19169761D01*
X21308252Y19074523D01*
X21355871Y19026904D01*
X21451110Y18979285D01*
X21689205Y18979285D01*
X21784443Y19026904D01*
X21832062Y19074523D01*
X21879681Y19169761D01*
X21879681Y19407857D01*
X21832062Y19503095D01*
X21784443Y19550714D01*
X16304381Y19927266D02*
X15828190Y20260600D01*
X16304381Y20498695D02*
X15304381Y20498695D01*
X15304381Y20117742D01*
X15352000Y20022504D01*
X15399619Y19974885D01*
X15494857Y19927266D01*
X15637714Y19927266D01*
X15732952Y19974885D01*
X15780571Y20022504D01*
X15828190Y20117742D01*
X15828190Y20498695D01*
X15304381Y19593933D02*
X15304381Y18927266D01*
X16304381Y19355838D01*
X13510381Y19889166D02*
X13034190Y20222500D01*
X13510381Y20460595D02*
X12510381Y20460595D01*
X12510381Y20079642D01*
X12558000Y19984404D01*
X12605619Y19936785D01*
X12700857Y19889166D01*
X12843714Y19889166D01*
X12938952Y19936785D01*
X12986571Y19984404D01*
X13034190Y20079642D01*
X13034190Y20460595D01*
X12938952Y19317738D02*
X12891333Y19412976D01*
X12843714Y19460595D01*
X12748476Y19508214D01*
X12700857Y19508214D01*
X12605619Y19460595D01*
X12558000Y19412976D01*
X12510381Y19317738D01*
X12510381Y19127261D01*
X12558000Y19032023D01*
X12605619Y18984404D01*
X12700857Y18936785D01*
X12748476Y18936785D01*
X12843714Y18984404D01*
X12891333Y19032023D01*
X12938952Y19127261D01*
X12938952Y19317738D01*
X12986571Y19412976D01*
X13034190Y19460595D01*
X13129429Y19508214D01*
X13319905Y19508214D01*
X13415143Y19460595D01*
X13462762Y19412976D01*
X13510381Y19317738D01*
X13510381Y19127261D01*
X13462762Y19032023D01*
X13415143Y18984404D01*
X13319905Y18936785D01*
X13129429Y18936785D01*
X13034190Y18984404D01*
X12986571Y19032023D01*
X12938952Y19127261D01*
X20243966Y9986019D02*
X20577300Y10462210D01*
X20815395Y9986019D02*
X20815395Y10986019D01*
X20434442Y10986019D01*
X20339204Y10938400D01*
X20291585Y10890781D01*
X20243966Y10795543D01*
X20243966Y10652686D01*
X20291585Y10557448D01*
X20339204Y10509829D01*
X20434442Y10462210D01*
X20815395Y10462210D01*
X19767776Y9986019D02*
X19577300Y9986019D01*
X19482061Y10033638D01*
X19434442Y10081257D01*
X19339204Y10224114D01*
X19291585Y10414590D01*
X19291585Y10795543D01*
X19339204Y10890781D01*
X19386823Y10938400D01*
X19482061Y10986019D01*
X19672538Y10986019D01*
X19767776Y10938400D01*
X19815395Y10890781D01*
X19863014Y10795543D01*
X19863014Y10557448D01*
X19815395Y10462210D01*
X19767776Y10414590D01*
X19672538Y10366971D01*
X19482061Y10366971D01*
X19386823Y10414590D01*
X19339204Y10462210D01*
X19291585Y10557448D01*
%LPC*%
D12*
X18606000Y14600000D03*
X18606000Y24760000D03*
D13*
X4752200Y37460000D03*
D14*
X7292200Y37460000D03*
X4752200Y34920000D03*
X7292200Y34920000D03*
X4752200Y32380000D03*
X7292200Y32380000D03*
X4752200Y29840000D03*
X7292200Y29840000D03*
X4752200Y27300000D03*
X7292200Y27300000D03*
X4752200Y24760000D03*
X7292200Y24760000D03*
X4752200Y22220000D03*
X7292200Y22220000D03*
X4752200Y19680000D03*
X7292200Y19680000D03*
X4752200Y17140000D03*
X7292200Y17140000D03*
X4752200Y14600000D03*
X7292200Y14600000D03*
D13*
X32692200Y37460000D03*
D14*
X35232200Y37460000D03*
X32692200Y34920000D03*
X35232200Y34920000D03*
X32692200Y32380000D03*
X35232200Y32380000D03*
X32692200Y29840000D03*
X35232200Y29840000D03*
X32692200Y27300000D03*
X35232200Y27300000D03*
X32692200Y24760000D03*
X35232200Y24760000D03*
X32692200Y22220000D03*
X35232200Y22220000D03*
X32692200Y19680000D03*
X35232200Y19680000D03*
X32692200Y17140000D03*
X35232200Y17140000D03*
X32692200Y14600000D03*
X35232200Y14600000D03*
D15*
X14912200Y29586000D03*
X14912200Y32126000D03*
X17452200Y29586000D03*
X17452200Y32126000D03*
X19992200Y29586000D03*
X19992200Y32126000D03*
X22532200Y29586000D03*
X22532200Y32126000D03*
X25072200Y29586000D03*
X25072200Y32126000D03*
D16*
X18656800Y38442300D03*
X16116800Y38442300D03*
D17*
X24318000Y4216000D03*
D18*
X21778000Y4216000D03*
D17*
X18278000Y4216000D03*
D18*
X15738000Y4216000D03*
D17*
X12278000Y4216000D03*
D18*
X9738000Y4216000D03*
D17*
X30278000Y4216000D03*
D18*
X27738000Y4216000D03*
D19*
X23127200Y37388200D03*
X24397200Y37388200D03*
X21857200Y37388200D03*
X28308800Y37515200D03*
X29578800Y37515200D03*
X27038800Y37515200D03*
D12*
X10224000Y24796000D03*
X10224000Y14636000D03*
X29782000Y14600000D03*
X29782000Y24760000D03*
X26988000Y14600000D03*
X26988000Y24760000D03*
X24194000Y24764400D03*
X24194000Y14604400D03*
X21400000Y14604400D03*
X21400000Y24764400D03*
X15812000Y14600000D03*
X15812000Y24760000D03*
X13018000Y14600000D03*
X13018000Y24760000D03*
X25158000Y10396000D03*
X14998000Y10396000D03*
D16*
X9200000Y9400000D03*
X6660000Y9400000D03*
D20*
X10808200Y37502500D03*
D21*
X13348200Y37502500D03*
M02*
