G04 #@! TF.FileFunction,Copper,L1,Top,Signal*
%FSLAX46Y46*%
G04 Gerber Fmt 4.6, Leading zero omitted, Abs format (unit mm)*
G04 Created by KiCad (PCBNEW (2015-08-23 BZR 6117)-product) date Fr 28 Aug 2015 21:18:53 CEST*
%MOMM*%
G01*
G04 APERTURE LIST*
%ADD10C,0.150000*%
%ADD11C,0.300000*%
%ADD12C,1.998980*%
%ADD13R,1.727200X1.727200*%
%ADD14O,1.727200X1.727200*%
%ADD15C,1.506220*%
%ADD16C,1.501140*%
%ADD17R,2.000000X2.000000*%
%ADD18C,2.000000*%
%ADD19O,0.899160X1.501140*%
%ADD20R,2.032000X2.032000*%
%ADD21O,2.032000X2.032000*%
%ADD22C,0.800000*%
%ADD23C,0.250000*%
%ADD24C,0.500000*%
%ADD25C,0.254000*%
G04 APERTURE END LIST*
D10*
D11*
X29035714Y11421429D02*
X29892857Y11421429D01*
X29464286Y9921429D02*
X29464286Y11421429D01*
X30678571Y11421429D02*
X30964285Y11421429D01*
X31107143Y11350000D01*
X31250000Y11207143D01*
X31321428Y10921429D01*
X31321428Y10421429D01*
X31250000Y10135714D01*
X31107143Y9992857D01*
X30964285Y9921429D01*
X30678571Y9921429D01*
X30535714Y9992857D01*
X30392857Y10135714D01*
X30321428Y10421429D01*
X30321428Y10921429D01*
X30392857Y11207143D01*
X30535714Y11350000D01*
X30678571Y11421429D01*
X31964286Y9921429D02*
X31964286Y11421429D01*
X32535714Y11421429D01*
X32678572Y11350000D01*
X32750000Y11278571D01*
X32821429Y11135714D01*
X32821429Y10921429D01*
X32750000Y10778571D01*
X32678572Y10707143D01*
X32535714Y10635714D01*
X31964286Y10635714D01*
D12*
X18606000Y14600000D03*
X18606000Y24760000D03*
D13*
X4752200Y37460000D03*
D14*
X7292200Y37460000D03*
X4752200Y34920000D03*
X7292200Y34920000D03*
X4752200Y32380000D03*
X7292200Y32380000D03*
X4752200Y29840000D03*
X7292200Y29840000D03*
X4752200Y27300000D03*
X7292200Y27300000D03*
X4752200Y24760000D03*
X7292200Y24760000D03*
X4752200Y22220000D03*
X7292200Y22220000D03*
X4752200Y19680000D03*
X7292200Y19680000D03*
X4752200Y17140000D03*
X7292200Y17140000D03*
X4752200Y14600000D03*
X7292200Y14600000D03*
D13*
X32692200Y37460000D03*
D14*
X35232200Y37460000D03*
X32692200Y34920000D03*
X35232200Y34920000D03*
X32692200Y32380000D03*
X35232200Y32380000D03*
X32692200Y29840000D03*
X35232200Y29840000D03*
X32692200Y27300000D03*
X35232200Y27300000D03*
X32692200Y24760000D03*
X35232200Y24760000D03*
X32692200Y22220000D03*
X35232200Y22220000D03*
X32692200Y19680000D03*
X35232200Y19680000D03*
X32692200Y17140000D03*
X35232200Y17140000D03*
X32692200Y14600000D03*
X35232200Y14600000D03*
D15*
X14912200Y29586000D03*
X14912200Y32126000D03*
X17452200Y29586000D03*
X17452200Y32126000D03*
X19992200Y29586000D03*
X19992200Y32126000D03*
X22532200Y29586000D03*
X22532200Y32126000D03*
X25072200Y29586000D03*
X25072200Y32126000D03*
D16*
X18656800Y38442300D03*
X16116800Y38442300D03*
D17*
X24318000Y4216000D03*
D18*
X21778000Y4216000D03*
D17*
X18278000Y4216000D03*
D18*
X15738000Y4216000D03*
D17*
X12278000Y4216000D03*
D18*
X9738000Y4216000D03*
D17*
X30278000Y4216000D03*
D18*
X27738000Y4216000D03*
D19*
X23127200Y37388200D03*
X24397200Y37388200D03*
X21857200Y37388200D03*
X28308800Y37515200D03*
X29578800Y37515200D03*
X27038800Y37515200D03*
D12*
X10224000Y24796000D03*
X10224000Y14636000D03*
X29782000Y14600000D03*
X29782000Y24760000D03*
X26988000Y14600000D03*
X26988000Y24760000D03*
X24194000Y24764400D03*
X24194000Y14604400D03*
X21400000Y14604400D03*
X21400000Y24764400D03*
X15812000Y14600000D03*
X15812000Y24760000D03*
X13018000Y14600000D03*
X13018000Y24760000D03*
X25158000Y10396000D03*
X14998000Y10396000D03*
D16*
X9200000Y9400000D03*
X6660000Y9400000D03*
D20*
X10808200Y37502500D03*
D21*
X13348200Y37502500D03*
D22*
X22000000Y18000000D03*
X26000000Y21000000D03*
X38000000Y26000000D03*
X35000000Y10000000D03*
X16182200Y22220000D03*
X15230000Y17370000D03*
X9017500Y20065400D03*
X21658372Y33497628D03*
X18352000Y18516000D03*
X10490465Y21297535D03*
X12141700Y33476600D03*
D23*
X10919183Y8367431D02*
X33367431Y8367431D01*
X9200000Y9400000D02*
X10232569Y8367431D01*
X10232569Y8367431D02*
X10919183Y8367431D01*
X35000000Y10000000D02*
X38000000Y13000000D01*
X38000000Y13000000D02*
X38000000Y26000000D01*
X33367431Y8367431D02*
X35000000Y10000000D01*
D24*
X14998000Y10396000D02*
X14998000Y12620000D01*
X14998000Y12620000D02*
X13018000Y14600000D01*
X10808200Y37502500D02*
X12498569Y39192869D01*
X12498569Y39192869D02*
X15366231Y39192869D01*
X15366231Y39192869D02*
X16116800Y38442300D01*
X16116800Y38442300D02*
X16116800Y33461400D01*
X16116800Y33461400D02*
X17452200Y32126000D01*
X6660000Y9400000D02*
X6660000Y7294000D01*
X6660000Y7294000D02*
X9738000Y4216000D01*
X4752200Y14600000D02*
X4752200Y11307800D01*
X4752200Y11307800D02*
X6660000Y9400000D01*
X4761300Y14590900D02*
X4752200Y14600000D01*
X23928000Y1766000D02*
X25288000Y1766000D01*
X25288000Y1766000D02*
X27738000Y4216000D01*
X21778000Y3916000D02*
X23928000Y1766000D01*
X21778000Y4216000D02*
X21778000Y3916000D01*
X17628000Y1866000D02*
X19428000Y1866000D01*
X19428000Y1866000D02*
X21778000Y4216000D01*
X15738000Y3756000D02*
X17628000Y1866000D01*
X15738000Y4216000D02*
X15738000Y3756000D01*
X15738000Y4216000D02*
X15738000Y4486002D01*
X11667998Y2016000D02*
X13538000Y2016000D01*
X13538000Y2016000D02*
X15738000Y4216000D01*
X9738000Y4216000D02*
X9738000Y3945998D01*
X9738000Y3945998D02*
X11667998Y2016000D01*
D23*
X10594200Y24760000D02*
X8480801Y26873399D01*
X7699931Y31191399D02*
X5940801Y31191399D01*
X8480801Y26873399D02*
X8480801Y30410529D01*
X8480801Y30410529D02*
X7699931Y31191399D01*
X5940801Y31191399D02*
X4752200Y32380000D01*
X17136491Y25320445D02*
X18279023Y26462977D01*
X18279023Y26462977D02*
X18530311Y26714265D01*
X21857200Y37388200D02*
X19223900Y34754900D01*
X18914089Y27098043D02*
X18914089Y34445089D01*
X18279023Y26462977D02*
X18914089Y27098043D01*
X18914089Y34445089D02*
X19223900Y34754900D01*
X16493281Y23435509D02*
X5967709Y23435509D01*
X17136491Y24059709D02*
X17117481Y24059709D01*
X17117481Y24059709D02*
X16493281Y23435509D01*
X17397709Y23798491D02*
X17136491Y24059709D01*
X17136491Y24059709D02*
X17136491Y25320445D01*
X5967709Y23435509D02*
X4752200Y22220000D01*
X17760691Y23435509D02*
X25596711Y15599489D01*
X25596711Y15599489D02*
X26596200Y14600000D01*
X17397709Y23798491D02*
X25596711Y15599489D01*
X7292200Y22220000D02*
X16182200Y22220000D01*
X16182200Y22220000D02*
X23802200Y14600000D01*
X7292200Y22220000D02*
X7292200Y22878000D01*
X4752200Y19680000D02*
X4752200Y18899130D01*
X28457509Y13275509D02*
X28782511Y13600511D01*
X4752200Y18899130D02*
X6103599Y17547731D01*
X21873261Y9071509D02*
X26077261Y13275509D01*
X6103599Y17547731D02*
X6103599Y14029471D01*
X6103599Y14029471D02*
X11061561Y9071509D01*
X11061561Y9071509D02*
X21873261Y9071509D01*
X26077261Y13275509D02*
X28457509Y13275509D01*
X28782511Y13600511D02*
X29782000Y14600000D01*
X7292200Y19680000D02*
X8402601Y20790401D01*
X8402601Y20790401D02*
X9365501Y20790401D01*
X9365501Y20790401D02*
X12785902Y17370000D01*
X12785902Y17370000D02*
X15230000Y17370000D01*
X10224000Y14636000D02*
X10224000Y18858900D01*
X10224000Y18858900D02*
X9017500Y20065400D01*
X14912200Y32126000D02*
X14912200Y31706811D01*
X29578800Y37515200D02*
X29578800Y37388775D01*
X28502645Y36312620D02*
X24473364Y36312620D01*
X29578800Y37388775D02*
X28502645Y36312620D01*
X24473364Y36312620D02*
X21658372Y33497628D01*
X29782000Y24760000D02*
X26034111Y28507889D01*
X26034111Y28507889D02*
X24554706Y28507889D01*
X21070311Y31047889D02*
X20745309Y31372891D01*
X24554706Y28507889D02*
X23610311Y29452284D01*
X23610311Y29452284D02*
X23610311Y30103494D01*
X23610311Y30103494D02*
X22665916Y31047889D01*
X22665916Y31047889D02*
X21070311Y31047889D01*
X20745309Y31372891D02*
X19992200Y32126000D01*
X31503599Y26729471D02*
X32164968Y26068102D01*
X32164968Y26068102D02*
X32284469Y25948601D01*
X22532200Y32126000D02*
X23610311Y31047889D01*
X23610311Y31047889D02*
X27185181Y31047889D01*
X27185181Y31047889D02*
X32164968Y26068102D01*
X32284469Y25948601D02*
X33262729Y25948601D01*
X33262729Y25948601D02*
X33880801Y25330529D01*
X33880801Y25330529D02*
X33880801Y23408601D01*
X33880801Y23408601D02*
X33555799Y23083599D01*
X33555799Y23083599D02*
X32692200Y22220000D01*
X32692200Y22220000D02*
X32692200Y23000870D01*
X32692200Y21943100D02*
X32692200Y22133600D01*
X25072200Y29586000D02*
X27866200Y29586000D01*
X27866200Y29586000D02*
X32692200Y24760000D01*
X10490465Y21297535D02*
X13272000Y18516000D01*
X13272000Y18516000D02*
X18352000Y18516000D01*
X28308800Y37214210D02*
X28308800Y37515200D01*
X23127200Y37514625D02*
X24203355Y38590780D01*
X23127200Y37261775D02*
X23127200Y37514625D01*
X27534210Y38590780D02*
X28308800Y37816190D01*
X24203355Y38590780D02*
X27534210Y38590780D01*
X28308800Y37816190D02*
X28308800Y37515200D01*
X12155189Y27152503D02*
X12155189Y30912498D01*
X12155189Y30912498D02*
X12155190Y31913810D01*
X12141700Y33476600D02*
X12141700Y32910915D01*
X12141700Y32910915D02*
X12155189Y32897426D01*
X12155189Y32897426D02*
X12155189Y30912498D01*
X13134200Y24760000D02*
X13134200Y26173492D01*
X13134200Y26173492D02*
X12155189Y27152503D01*
X26596200Y24760000D02*
X31503599Y19852601D01*
X34043599Y15788601D02*
X35232200Y14600000D01*
X31503599Y19852601D02*
X31503599Y16569471D01*
X31503599Y16569471D02*
X32284469Y15788601D01*
X32284469Y15788601D02*
X34043599Y15788601D01*
X23802200Y24760000D02*
X26596200Y24760000D01*
D25*
G36*
X11220061Y39165940D02*
X9792200Y39165940D01*
X9556883Y39121662D01*
X9340759Y38982590D01*
X9195769Y38770390D01*
X9144760Y38518500D01*
X9144760Y36486500D01*
X9189038Y36251183D01*
X9328110Y36035059D01*
X9540310Y35890069D01*
X9792200Y35839060D01*
X11824200Y35839060D01*
X12059517Y35883338D01*
X12275641Y36022410D01*
X12387040Y36185448D01*
X12483382Y36096115D01*
X12965256Y35896525D01*
X13221200Y36015664D01*
X13221200Y37375500D01*
X13475200Y37375500D01*
X13475200Y36015664D01*
X13731144Y35896525D01*
X14213018Y36096115D01*
X14685388Y36534121D01*
X14954183Y37119554D01*
X14835567Y37375500D01*
X13475200Y37375500D01*
X13221200Y37375500D01*
X13201200Y37375500D01*
X13201200Y37629500D01*
X13221200Y37629500D01*
X13221200Y37649500D01*
X13475200Y37649500D01*
X13475200Y37629500D01*
X14835567Y37629500D01*
X14897889Y37763976D01*
X14941486Y37658463D01*
X15231800Y37367642D01*
X15231800Y33496314D01*
X15189524Y33513869D01*
X14637299Y33514351D01*
X14126926Y33303469D01*
X13736104Y32913328D01*
X13524331Y32403324D01*
X13523849Y31851099D01*
X13734731Y31340726D01*
X14124872Y30949904D01*
X14350943Y30856031D01*
X14126926Y30763469D01*
X13736104Y30373328D01*
X13524331Y29863324D01*
X13523849Y29311099D01*
X13734731Y28800726D01*
X14124872Y28409904D01*
X14634876Y28198131D01*
X15187101Y28197649D01*
X15697474Y28408531D01*
X16088296Y28798672D01*
X16182169Y29024743D01*
X16274731Y28800726D01*
X16664872Y28409904D01*
X17174876Y28198131D01*
X17727101Y28197649D01*
X18154089Y28374077D01*
X18154089Y27412845D01*
X16812517Y26071273D01*
X16739073Y26144846D01*
X16138547Y26394206D01*
X15488306Y26394774D01*
X14887345Y26146462D01*
X14427154Y25687073D01*
X14415279Y25658475D01*
X14404462Y25684655D01*
X13945073Y26144846D01*
X13894200Y26165970D01*
X13894200Y26173492D01*
X13836348Y26464331D01*
X13671601Y26710893D01*
X12915189Y27467305D01*
X12915189Y30912499D01*
X12915190Y31913809D01*
X12915189Y31913814D01*
X12915189Y32786304D01*
X13018619Y32889554D01*
X13176520Y33269823D01*
X13176879Y33681571D01*
X13019642Y34062115D01*
X12728746Y34353519D01*
X12348477Y34511420D01*
X11936729Y34511779D01*
X11556185Y34354542D01*
X11264781Y34063646D01*
X11106880Y33683377D01*
X11106521Y33271629D01*
X11263758Y32891085D01*
X11395189Y32759424D01*
X11395189Y27152503D01*
X11453041Y26861664D01*
X11617788Y26615102D01*
X12089883Y26143007D01*
X11633154Y25687073D01*
X11628735Y25676431D01*
X11610462Y25720655D01*
X11151073Y26180846D01*
X10550547Y26430206D01*
X9998314Y26430688D01*
X9240801Y27188201D01*
X9240801Y30410529D01*
X9182949Y30701368D01*
X9018202Y30947930D01*
X8486265Y31479867D01*
X8499021Y31491510D01*
X8747168Y32020973D01*
X8626669Y32253000D01*
X7419200Y32253000D01*
X7419200Y32233000D01*
X7165200Y32233000D01*
X7165200Y32253000D01*
X7145200Y32253000D01*
X7145200Y32507000D01*
X7165200Y32507000D01*
X7165200Y34793000D01*
X7419200Y34793000D01*
X7419200Y32507000D01*
X8626669Y32507000D01*
X8747168Y32739027D01*
X8499021Y33268490D01*
X8081048Y33650000D01*
X8499021Y34031510D01*
X8747168Y34560973D01*
X8626669Y34793000D01*
X7419200Y34793000D01*
X7165200Y34793000D01*
X7145200Y34793000D01*
X7145200Y35047000D01*
X7165200Y35047000D01*
X7165200Y35067000D01*
X7419200Y35067000D01*
X7419200Y35047000D01*
X8626669Y35047000D01*
X8747168Y35279027D01*
X8499021Y35808490D01*
X8081039Y36190008D01*
X8351870Y36370971D01*
X8676726Y36857152D01*
X8790800Y37430641D01*
X8790800Y37489359D01*
X8676726Y38062848D01*
X8351870Y38549029D01*
X7865689Y38873885D01*
X7292200Y38987959D01*
X6718711Y38873885D01*
X6232530Y38549029D01*
X6223395Y38535358D01*
X6218962Y38558917D01*
X6079890Y38775041D01*
X5867690Y38920031D01*
X5615800Y38971040D01*
X3888600Y38971040D01*
X3653283Y38926762D01*
X3437159Y38787690D01*
X3292169Y38575490D01*
X3241160Y38323600D01*
X3241160Y36596400D01*
X3285438Y36361083D01*
X3424510Y36144959D01*
X3636710Y35999969D01*
X3680545Y35991092D01*
X3367674Y35522848D01*
X3253600Y34949359D01*
X3253600Y34890641D01*
X3367674Y34317152D01*
X3692530Y33830971D01*
X3963372Y33650000D01*
X3692530Y33469029D01*
X3367674Y32982848D01*
X3253600Y32409359D01*
X3253600Y32350641D01*
X3367674Y31777152D01*
X3692530Y31290971D01*
X3963372Y31110000D01*
X3692530Y30929029D01*
X3367674Y30442848D01*
X3253600Y29869359D01*
X3253600Y29810641D01*
X3367674Y29237152D01*
X3692530Y28750971D01*
X3963361Y28570008D01*
X3545379Y28188490D01*
X3297232Y27659027D01*
X3417731Y27427000D01*
X4625200Y27427000D01*
X4625200Y27447000D01*
X4879200Y27447000D01*
X4879200Y27427000D01*
X7165200Y27427000D01*
X7165200Y27447000D01*
X7419200Y27447000D01*
X7419200Y27427000D01*
X7439200Y27427000D01*
X7439200Y27173000D01*
X7419200Y27173000D01*
X7419200Y27153000D01*
X7165200Y27153000D01*
X7165200Y27173000D01*
X4879200Y27173000D01*
X4879200Y24887000D01*
X4899200Y24887000D01*
X4899200Y24633000D01*
X4879200Y24633000D01*
X4879200Y24613000D01*
X4625200Y24613000D01*
X4625200Y24633000D01*
X3417731Y24633000D01*
X3297232Y24400973D01*
X3545379Y23871510D01*
X3963361Y23489992D01*
X3692530Y23309029D01*
X3367674Y22822848D01*
X3253600Y22249359D01*
X3253600Y22190641D01*
X3367674Y21617152D01*
X3692530Y21130971D01*
X3963372Y20950000D01*
X3692530Y20769029D01*
X3367674Y20282848D01*
X3253600Y19709359D01*
X3253600Y19650641D01*
X3367674Y19077152D01*
X3692530Y18590971D01*
X3963372Y18410000D01*
X3692530Y18229029D01*
X3367674Y17742848D01*
X3253600Y17169359D01*
X3253600Y17110641D01*
X3367674Y16537152D01*
X3692530Y16050971D01*
X3963372Y15870000D01*
X3692530Y15689029D01*
X3367674Y15202848D01*
X3253600Y14629359D01*
X3253600Y14570641D01*
X3367674Y13997152D01*
X3692530Y13510971D01*
X3867200Y13394260D01*
X3867200Y11307805D01*
X3867199Y11307800D01*
X3923390Y11025316D01*
X3934567Y10969125D01*
X4067748Y10769805D01*
X4126410Y10682010D01*
X5274546Y9533874D01*
X5274190Y9125602D01*
X5484686Y8616163D01*
X5775000Y8325342D01*
X5775000Y7294005D01*
X5774999Y7294000D01*
X5831190Y7011516D01*
X5842367Y6955325D01*
X5922518Y6835370D01*
X6034210Y6668210D01*
X8119858Y4582563D01*
X8103284Y4542648D01*
X8102716Y3892205D01*
X8351106Y3291057D01*
X8810637Y2830722D01*
X9411352Y2581284D01*
X9851519Y2580900D01*
X11042206Y1390213D01*
X11042208Y1390210D01*
X11203943Y1282143D01*
X11329323Y1198367D01*
X11667998Y1131000D01*
X13537995Y1131000D01*
X13538000Y1130999D01*
X13820484Y1187190D01*
X13876675Y1198367D01*
X14163790Y1390210D01*
X14163791Y1390211D01*
X15371437Y2597858D01*
X15411352Y2581284D01*
X15661355Y2581066D01*
X17002208Y1240213D01*
X17002210Y1240210D01*
X17289325Y1048367D01*
X17345516Y1037190D01*
X17628000Y980999D01*
X17628005Y981000D01*
X19427995Y981000D01*
X19428000Y980999D01*
X19710484Y1037190D01*
X19766675Y1048367D01*
X20053790Y1240210D01*
X21411437Y2597858D01*
X21451352Y2581284D01*
X21861494Y2580926D01*
X23302208Y1140213D01*
X23302210Y1140210D01*
X23589325Y948367D01*
X23928000Y880999D01*
X23928005Y881000D01*
X25287995Y881000D01*
X25288000Y880999D01*
X25570484Y937190D01*
X25626675Y948367D01*
X25913790Y1140210D01*
X25913791Y1140211D01*
X27371437Y2597858D01*
X27411352Y2581284D01*
X28061795Y2580716D01*
X28662943Y2829106D01*
X28729574Y2895621D01*
X28813910Y2764559D01*
X29026110Y2619569D01*
X29278000Y2568560D01*
X31278000Y2568560D01*
X31513317Y2612838D01*
X31729441Y2751910D01*
X31874431Y2964110D01*
X31925440Y3216000D01*
X31925440Y4277185D01*
X34864630Y4277185D01*
X35188980Y3492200D01*
X35789041Y2891091D01*
X36573459Y2565372D01*
X37422815Y2564630D01*
X38207800Y2888980D01*
X38808909Y3489041D01*
X39134628Y4273459D01*
X39135370Y5122815D01*
X38811020Y5907800D01*
X38210959Y6508909D01*
X37426541Y6834628D01*
X36577185Y6835370D01*
X35792200Y6511020D01*
X35191091Y5910959D01*
X34865372Y5126541D01*
X34864630Y4277185D01*
X31925440Y4277185D01*
X31925440Y5216000D01*
X31881162Y5451317D01*
X31742090Y5667441D01*
X31529890Y5812431D01*
X31278000Y5863440D01*
X29278000Y5863440D01*
X29042683Y5819162D01*
X28826559Y5680090D01*
X28729090Y5537439D01*
X28665363Y5601278D01*
X28064648Y5850716D01*
X27414205Y5851284D01*
X26813057Y5602894D01*
X26352722Y5143363D01*
X26103284Y4542648D01*
X26102716Y3892205D01*
X26120233Y3849812D01*
X25965440Y3695019D01*
X25965440Y5216000D01*
X25921162Y5451317D01*
X25782090Y5667441D01*
X25569890Y5812431D01*
X25318000Y5863440D01*
X23318000Y5863440D01*
X23082683Y5819162D01*
X22866559Y5680090D01*
X22769090Y5537439D01*
X22705363Y5601278D01*
X22104648Y5850716D01*
X21454205Y5851284D01*
X20853057Y5602894D01*
X20392722Y5143363D01*
X20143284Y4542648D01*
X20142716Y3892205D01*
X20160233Y3849812D01*
X19925440Y3615020D01*
X19925440Y5216000D01*
X19881162Y5451317D01*
X19742090Y5667441D01*
X19529890Y5812431D01*
X19278000Y5863440D01*
X17278000Y5863440D01*
X17042683Y5819162D01*
X16826559Y5680090D01*
X16729090Y5537439D01*
X16665363Y5601278D01*
X16064648Y5850716D01*
X15414205Y5851284D01*
X14813057Y5602894D01*
X14352722Y5143363D01*
X14103284Y4542648D01*
X14102716Y3892205D01*
X14120233Y3849812D01*
X13925440Y3655020D01*
X13925440Y5216000D01*
X13881162Y5451317D01*
X13742090Y5667441D01*
X13529890Y5812431D01*
X13278000Y5863440D01*
X11278000Y5863440D01*
X11042683Y5819162D01*
X10826559Y5680090D01*
X10729090Y5537439D01*
X10665363Y5601278D01*
X10064648Y5850716D01*
X9414205Y5851284D01*
X9371812Y5833767D01*
X7545000Y7660580D01*
X7545000Y8325673D01*
X7647575Y8428070D01*
X8407675Y8428070D01*
X8475735Y8187069D01*
X8995034Y8002233D01*
X9545538Y8030195D01*
X9924265Y8187069D01*
X9992325Y8428070D01*
X9200000Y9220395D01*
X8407675Y8428070D01*
X7647575Y8428070D01*
X7833944Y8614113D01*
X7923379Y8829496D01*
X7987069Y8675735D01*
X8228070Y8607675D01*
X9020395Y9400000D01*
X8228070Y10192325D01*
X7987069Y10124265D01*
X7928231Y9958960D01*
X7835314Y10183837D01*
X7445887Y10573944D01*
X6936816Y10785329D01*
X6525892Y10785688D01*
X5637200Y11674380D01*
X5637200Y13394260D01*
X5653270Y13404998D01*
X8469041Y10589227D01*
X8407675Y10371930D01*
X9200000Y9579605D01*
X9214143Y9593747D01*
X9393748Y9414142D01*
X9379605Y9400000D01*
X10171930Y8607675D01*
X10389227Y8669041D01*
X10524160Y8534108D01*
X10770722Y8369361D01*
X11061561Y8311509D01*
X21873261Y8311509D01*
X22164100Y8369361D01*
X22410662Y8534108D01*
X23647674Y9771120D01*
X23771538Y9471345D01*
X24230927Y9011154D01*
X24831453Y8761794D01*
X25481694Y8761226D01*
X26082655Y9009538D01*
X26542846Y9468927D01*
X26792206Y10069453D01*
X26792774Y10719694D01*
X26544462Y11320655D01*
X26085073Y11780846D01*
X25782881Y11906327D01*
X26392063Y12515509D01*
X28107857Y12515509D01*
X28107857Y8765000D01*
X33892143Y8765000D01*
X33892143Y12735000D01*
X28990259Y12735000D01*
X28994910Y12738108D01*
X29290917Y13034115D01*
X29455453Y12965794D01*
X30105694Y12965226D01*
X30706655Y13213538D01*
X31166846Y13672927D01*
X31305667Y14007244D01*
X31307674Y13997152D01*
X31632530Y13510971D01*
X32118711Y13186115D01*
X32692200Y13072041D01*
X33265689Y13186115D01*
X33751870Y13510971D01*
X33962200Y13825752D01*
X34172530Y13510971D01*
X34658711Y13186115D01*
X35232200Y13072041D01*
X35805689Y13186115D01*
X36291870Y13510971D01*
X36616726Y13997152D01*
X36730800Y14570641D01*
X36730800Y14629359D01*
X36616726Y15202848D01*
X36291870Y15689029D01*
X36021028Y15870000D01*
X36291870Y16050971D01*
X36616726Y16537152D01*
X36730800Y17110641D01*
X36730800Y17169359D01*
X36616726Y17742848D01*
X36291870Y18229029D01*
X36021028Y18410000D01*
X36291870Y18590971D01*
X36616726Y19077152D01*
X36730800Y19650641D01*
X36730800Y19709359D01*
X36616726Y20282848D01*
X36291870Y20769029D01*
X36021028Y20950000D01*
X36291870Y21130971D01*
X36616726Y21617152D01*
X36730800Y22190641D01*
X36730800Y22249359D01*
X36616726Y22822848D01*
X36291870Y23309029D01*
X36021028Y23490000D01*
X36291870Y23670971D01*
X36616726Y24157152D01*
X36730800Y24730641D01*
X36730800Y24789359D01*
X36616726Y25362848D01*
X36291870Y25849029D01*
X36021028Y26030000D01*
X36291870Y26210971D01*
X36616726Y26697152D01*
X36730800Y27270641D01*
X36730800Y27329359D01*
X36616726Y27902848D01*
X36291870Y28389029D01*
X36021028Y28570000D01*
X36291870Y28750971D01*
X36616726Y29237152D01*
X36730800Y29810641D01*
X36730800Y29869359D01*
X36616726Y30442848D01*
X36291870Y30929029D01*
X36021028Y31110000D01*
X36291870Y31290971D01*
X36616726Y31777152D01*
X36730800Y32350641D01*
X36730800Y32409359D01*
X36616726Y32982848D01*
X36291870Y33469029D01*
X36021028Y33650000D01*
X36291870Y33830971D01*
X36616726Y34317152D01*
X36730800Y34890641D01*
X36730800Y34949359D01*
X36616726Y35522848D01*
X36291870Y36009029D01*
X36021028Y36190000D01*
X36291870Y36370971D01*
X36616726Y36857152D01*
X36730800Y37430641D01*
X36730800Y37489359D01*
X36616726Y38062848D01*
X36291870Y38549029D01*
X35805689Y38873885D01*
X35232200Y38987959D01*
X34658711Y38873885D01*
X34172530Y38549029D01*
X34163395Y38535358D01*
X34158962Y38558917D01*
X34019890Y38775041D01*
X33807690Y38920031D01*
X33555800Y38971040D01*
X31828600Y38971040D01*
X31593283Y38926762D01*
X31377159Y38787690D01*
X31232169Y38575490D01*
X31181160Y38323600D01*
X31181160Y36596400D01*
X31225438Y36361083D01*
X31364510Y36144959D01*
X31576710Y35999969D01*
X31620545Y35991092D01*
X31307674Y35522848D01*
X31193600Y34949359D01*
X31193600Y34890641D01*
X31307674Y34317152D01*
X31632530Y33830971D01*
X31903372Y33650000D01*
X31632530Y33469029D01*
X31307674Y32982848D01*
X31193600Y32409359D01*
X31193600Y32350641D01*
X31307674Y31777152D01*
X31632530Y31290971D01*
X31903372Y31110000D01*
X31632530Y30929029D01*
X31307674Y30442848D01*
X31193600Y29869359D01*
X31193600Y29810641D01*
X31307674Y29237152D01*
X31632530Y28750971D01*
X31903372Y28570000D01*
X31632530Y28389029D01*
X31346667Y27961205D01*
X27722582Y31585290D01*
X27476020Y31750037D01*
X27185181Y31807889D01*
X26432419Y31807889D01*
X26472496Y31920428D01*
X26444573Y32471946D01*
X26287235Y32851793D01*
X26045972Y32920166D01*
X25251805Y32126000D01*
X25265948Y32111857D01*
X25086343Y31932252D01*
X25072200Y31946395D01*
X25058058Y31932252D01*
X24878453Y32111857D01*
X24892595Y32126000D01*
X24098428Y32920166D01*
X23857165Y32851793D01*
X23800265Y32692015D01*
X23709669Y32911274D01*
X23521500Y33099772D01*
X24278034Y33099772D01*
X25072200Y32305605D01*
X25866366Y33099772D01*
X25797993Y33341035D01*
X25277772Y33526296D01*
X24726254Y33498373D01*
X24346407Y33341035D01*
X24278034Y33099772D01*
X23521500Y33099772D01*
X23319528Y33302096D01*
X22809524Y33513869D01*
X22749467Y33513921D01*
X24788166Y35552620D01*
X28502645Y35552620D01*
X28793484Y35610472D01*
X29040046Y35775219D01*
X29402400Y36137573D01*
X29578800Y36102485D01*
X29993851Y36185044D01*
X30345714Y36420151D01*
X30580821Y36772014D01*
X30663380Y37187065D01*
X30663380Y37843335D01*
X30580821Y38258386D01*
X30345714Y38610249D01*
X29993851Y38845356D01*
X29578800Y38927915D01*
X29163749Y38845356D01*
X28943800Y38698391D01*
X28723851Y38845356D01*
X28308800Y38927915D01*
X28278003Y38921789D01*
X28071611Y39128181D01*
X27829431Y39290000D01*
X37930069Y39290000D01*
X38488338Y39178954D01*
X38902333Y38902331D01*
X39178953Y38488340D01*
X39290000Y37930069D01*
X39290000Y2069931D01*
X39178953Y1511660D01*
X38902333Y1097669D01*
X38488338Y821046D01*
X37930069Y710000D01*
X2069931Y710000D01*
X1511660Y821047D01*
X1097669Y1097667D01*
X821046Y1511662D01*
X710000Y2069931D01*
X710000Y4277185D01*
X864630Y4277185D01*
X1188980Y3492200D01*
X1789041Y2891091D01*
X2573459Y2565372D01*
X3422815Y2564630D01*
X4207800Y2888980D01*
X4808909Y3489041D01*
X5134628Y4273459D01*
X5135370Y5122815D01*
X4811020Y5907800D01*
X4210959Y6508909D01*
X3426541Y6834628D01*
X2577185Y6835370D01*
X1792200Y6511020D01*
X1191091Y5910959D01*
X865372Y5126541D01*
X864630Y4277185D01*
X710000Y4277185D01*
X710000Y26940973D01*
X3297232Y26940973D01*
X3545379Y26411510D01*
X3963352Y26030000D01*
X3545379Y25648490D01*
X3297232Y25119027D01*
X3417731Y24887000D01*
X4625200Y24887000D01*
X4625200Y27173000D01*
X3417731Y27173000D01*
X3297232Y26940973D01*
X710000Y26940973D01*
X710000Y37930069D01*
X821046Y38488338D01*
X1097669Y38902333D01*
X1511660Y39178953D01*
X2069931Y39290000D01*
X11344121Y39290000D01*
X11220061Y39165940D01*
X11220061Y39165940D01*
G37*
X11220061Y39165940D02*
X9792200Y39165940D01*
X9556883Y39121662D01*
X9340759Y38982590D01*
X9195769Y38770390D01*
X9144760Y38518500D01*
X9144760Y36486500D01*
X9189038Y36251183D01*
X9328110Y36035059D01*
X9540310Y35890069D01*
X9792200Y35839060D01*
X11824200Y35839060D01*
X12059517Y35883338D01*
X12275641Y36022410D01*
X12387040Y36185448D01*
X12483382Y36096115D01*
X12965256Y35896525D01*
X13221200Y36015664D01*
X13221200Y37375500D01*
X13475200Y37375500D01*
X13475200Y36015664D01*
X13731144Y35896525D01*
X14213018Y36096115D01*
X14685388Y36534121D01*
X14954183Y37119554D01*
X14835567Y37375500D01*
X13475200Y37375500D01*
X13221200Y37375500D01*
X13201200Y37375500D01*
X13201200Y37629500D01*
X13221200Y37629500D01*
X13221200Y37649500D01*
X13475200Y37649500D01*
X13475200Y37629500D01*
X14835567Y37629500D01*
X14897889Y37763976D01*
X14941486Y37658463D01*
X15231800Y37367642D01*
X15231800Y33496314D01*
X15189524Y33513869D01*
X14637299Y33514351D01*
X14126926Y33303469D01*
X13736104Y32913328D01*
X13524331Y32403324D01*
X13523849Y31851099D01*
X13734731Y31340726D01*
X14124872Y30949904D01*
X14350943Y30856031D01*
X14126926Y30763469D01*
X13736104Y30373328D01*
X13524331Y29863324D01*
X13523849Y29311099D01*
X13734731Y28800726D01*
X14124872Y28409904D01*
X14634876Y28198131D01*
X15187101Y28197649D01*
X15697474Y28408531D01*
X16088296Y28798672D01*
X16182169Y29024743D01*
X16274731Y28800726D01*
X16664872Y28409904D01*
X17174876Y28198131D01*
X17727101Y28197649D01*
X18154089Y28374077D01*
X18154089Y27412845D01*
X16812517Y26071273D01*
X16739073Y26144846D01*
X16138547Y26394206D01*
X15488306Y26394774D01*
X14887345Y26146462D01*
X14427154Y25687073D01*
X14415279Y25658475D01*
X14404462Y25684655D01*
X13945073Y26144846D01*
X13894200Y26165970D01*
X13894200Y26173492D01*
X13836348Y26464331D01*
X13671601Y26710893D01*
X12915189Y27467305D01*
X12915189Y30912499D01*
X12915190Y31913809D01*
X12915189Y31913814D01*
X12915189Y32786304D01*
X13018619Y32889554D01*
X13176520Y33269823D01*
X13176879Y33681571D01*
X13019642Y34062115D01*
X12728746Y34353519D01*
X12348477Y34511420D01*
X11936729Y34511779D01*
X11556185Y34354542D01*
X11264781Y34063646D01*
X11106880Y33683377D01*
X11106521Y33271629D01*
X11263758Y32891085D01*
X11395189Y32759424D01*
X11395189Y27152503D01*
X11453041Y26861664D01*
X11617788Y26615102D01*
X12089883Y26143007D01*
X11633154Y25687073D01*
X11628735Y25676431D01*
X11610462Y25720655D01*
X11151073Y26180846D01*
X10550547Y26430206D01*
X9998314Y26430688D01*
X9240801Y27188201D01*
X9240801Y30410529D01*
X9182949Y30701368D01*
X9018202Y30947930D01*
X8486265Y31479867D01*
X8499021Y31491510D01*
X8747168Y32020973D01*
X8626669Y32253000D01*
X7419200Y32253000D01*
X7419200Y32233000D01*
X7165200Y32233000D01*
X7165200Y32253000D01*
X7145200Y32253000D01*
X7145200Y32507000D01*
X7165200Y32507000D01*
X7165200Y34793000D01*
X7419200Y34793000D01*
X7419200Y32507000D01*
X8626669Y32507000D01*
X8747168Y32739027D01*
X8499021Y33268490D01*
X8081048Y33650000D01*
X8499021Y34031510D01*
X8747168Y34560973D01*
X8626669Y34793000D01*
X7419200Y34793000D01*
X7165200Y34793000D01*
X7145200Y34793000D01*
X7145200Y35047000D01*
X7165200Y35047000D01*
X7165200Y35067000D01*
X7419200Y35067000D01*
X7419200Y35047000D01*
X8626669Y35047000D01*
X8747168Y35279027D01*
X8499021Y35808490D01*
X8081039Y36190008D01*
X8351870Y36370971D01*
X8676726Y36857152D01*
X8790800Y37430641D01*
X8790800Y37489359D01*
X8676726Y38062848D01*
X8351870Y38549029D01*
X7865689Y38873885D01*
X7292200Y38987959D01*
X6718711Y38873885D01*
X6232530Y38549029D01*
X6223395Y38535358D01*
X6218962Y38558917D01*
X6079890Y38775041D01*
X5867690Y38920031D01*
X5615800Y38971040D01*
X3888600Y38971040D01*
X3653283Y38926762D01*
X3437159Y38787690D01*
X3292169Y38575490D01*
X3241160Y38323600D01*
X3241160Y36596400D01*
X3285438Y36361083D01*
X3424510Y36144959D01*
X3636710Y35999969D01*
X3680545Y35991092D01*
X3367674Y35522848D01*
X3253600Y34949359D01*
X3253600Y34890641D01*
X3367674Y34317152D01*
X3692530Y33830971D01*
X3963372Y33650000D01*
X3692530Y33469029D01*
X3367674Y32982848D01*
X3253600Y32409359D01*
X3253600Y32350641D01*
X3367674Y31777152D01*
X3692530Y31290971D01*
X3963372Y31110000D01*
X3692530Y30929029D01*
X3367674Y30442848D01*
X3253600Y29869359D01*
X3253600Y29810641D01*
X3367674Y29237152D01*
X3692530Y28750971D01*
X3963361Y28570008D01*
X3545379Y28188490D01*
X3297232Y27659027D01*
X3417731Y27427000D01*
X4625200Y27427000D01*
X4625200Y27447000D01*
X4879200Y27447000D01*
X4879200Y27427000D01*
X7165200Y27427000D01*
X7165200Y27447000D01*
X7419200Y27447000D01*
X7419200Y27427000D01*
X7439200Y27427000D01*
X7439200Y27173000D01*
X7419200Y27173000D01*
X7419200Y27153000D01*
X7165200Y27153000D01*
X7165200Y27173000D01*
X4879200Y27173000D01*
X4879200Y24887000D01*
X4899200Y24887000D01*
X4899200Y24633000D01*
X4879200Y24633000D01*
X4879200Y24613000D01*
X4625200Y24613000D01*
X4625200Y24633000D01*
X3417731Y24633000D01*
X3297232Y24400973D01*
X3545379Y23871510D01*
X3963361Y23489992D01*
X3692530Y23309029D01*
X3367674Y22822848D01*
X3253600Y22249359D01*
X3253600Y22190641D01*
X3367674Y21617152D01*
X3692530Y21130971D01*
X3963372Y20950000D01*
X3692530Y20769029D01*
X3367674Y20282848D01*
X3253600Y19709359D01*
X3253600Y19650641D01*
X3367674Y19077152D01*
X3692530Y18590971D01*
X3963372Y18410000D01*
X3692530Y18229029D01*
X3367674Y17742848D01*
X3253600Y17169359D01*
X3253600Y17110641D01*
X3367674Y16537152D01*
X3692530Y16050971D01*
X3963372Y15870000D01*
X3692530Y15689029D01*
X3367674Y15202848D01*
X3253600Y14629359D01*
X3253600Y14570641D01*
X3367674Y13997152D01*
X3692530Y13510971D01*
X3867200Y13394260D01*
X3867200Y11307805D01*
X3867199Y11307800D01*
X3923390Y11025316D01*
X3934567Y10969125D01*
X4067748Y10769805D01*
X4126410Y10682010D01*
X5274546Y9533874D01*
X5274190Y9125602D01*
X5484686Y8616163D01*
X5775000Y8325342D01*
X5775000Y7294005D01*
X5774999Y7294000D01*
X5831190Y7011516D01*
X5842367Y6955325D01*
X5922518Y6835370D01*
X6034210Y6668210D01*
X8119858Y4582563D01*
X8103284Y4542648D01*
X8102716Y3892205D01*
X8351106Y3291057D01*
X8810637Y2830722D01*
X9411352Y2581284D01*
X9851519Y2580900D01*
X11042206Y1390213D01*
X11042208Y1390210D01*
X11203943Y1282143D01*
X11329323Y1198367D01*
X11667998Y1131000D01*
X13537995Y1131000D01*
X13538000Y1130999D01*
X13820484Y1187190D01*
X13876675Y1198367D01*
X14163790Y1390210D01*
X14163791Y1390211D01*
X15371437Y2597858D01*
X15411352Y2581284D01*
X15661355Y2581066D01*
X17002208Y1240213D01*
X17002210Y1240210D01*
X17289325Y1048367D01*
X17345516Y1037190D01*
X17628000Y980999D01*
X17628005Y981000D01*
X19427995Y981000D01*
X19428000Y980999D01*
X19710484Y1037190D01*
X19766675Y1048367D01*
X20053790Y1240210D01*
X21411437Y2597858D01*
X21451352Y2581284D01*
X21861494Y2580926D01*
X23302208Y1140213D01*
X23302210Y1140210D01*
X23589325Y948367D01*
X23928000Y880999D01*
X23928005Y881000D01*
X25287995Y881000D01*
X25288000Y880999D01*
X25570484Y937190D01*
X25626675Y948367D01*
X25913790Y1140210D01*
X25913791Y1140211D01*
X27371437Y2597858D01*
X27411352Y2581284D01*
X28061795Y2580716D01*
X28662943Y2829106D01*
X28729574Y2895621D01*
X28813910Y2764559D01*
X29026110Y2619569D01*
X29278000Y2568560D01*
X31278000Y2568560D01*
X31513317Y2612838D01*
X31729441Y2751910D01*
X31874431Y2964110D01*
X31925440Y3216000D01*
X31925440Y4277185D01*
X34864630Y4277185D01*
X35188980Y3492200D01*
X35789041Y2891091D01*
X36573459Y2565372D01*
X37422815Y2564630D01*
X38207800Y2888980D01*
X38808909Y3489041D01*
X39134628Y4273459D01*
X39135370Y5122815D01*
X38811020Y5907800D01*
X38210959Y6508909D01*
X37426541Y6834628D01*
X36577185Y6835370D01*
X35792200Y6511020D01*
X35191091Y5910959D01*
X34865372Y5126541D01*
X34864630Y4277185D01*
X31925440Y4277185D01*
X31925440Y5216000D01*
X31881162Y5451317D01*
X31742090Y5667441D01*
X31529890Y5812431D01*
X31278000Y5863440D01*
X29278000Y5863440D01*
X29042683Y5819162D01*
X28826559Y5680090D01*
X28729090Y5537439D01*
X28665363Y5601278D01*
X28064648Y5850716D01*
X27414205Y5851284D01*
X26813057Y5602894D01*
X26352722Y5143363D01*
X26103284Y4542648D01*
X26102716Y3892205D01*
X26120233Y3849812D01*
X25965440Y3695019D01*
X25965440Y5216000D01*
X25921162Y5451317D01*
X25782090Y5667441D01*
X25569890Y5812431D01*
X25318000Y5863440D01*
X23318000Y5863440D01*
X23082683Y5819162D01*
X22866559Y5680090D01*
X22769090Y5537439D01*
X22705363Y5601278D01*
X22104648Y5850716D01*
X21454205Y5851284D01*
X20853057Y5602894D01*
X20392722Y5143363D01*
X20143284Y4542648D01*
X20142716Y3892205D01*
X20160233Y3849812D01*
X19925440Y3615020D01*
X19925440Y5216000D01*
X19881162Y5451317D01*
X19742090Y5667441D01*
X19529890Y5812431D01*
X19278000Y5863440D01*
X17278000Y5863440D01*
X17042683Y5819162D01*
X16826559Y5680090D01*
X16729090Y5537439D01*
X16665363Y5601278D01*
X16064648Y5850716D01*
X15414205Y5851284D01*
X14813057Y5602894D01*
X14352722Y5143363D01*
X14103284Y4542648D01*
X14102716Y3892205D01*
X14120233Y3849812D01*
X13925440Y3655020D01*
X13925440Y5216000D01*
X13881162Y5451317D01*
X13742090Y5667441D01*
X13529890Y5812431D01*
X13278000Y5863440D01*
X11278000Y5863440D01*
X11042683Y5819162D01*
X10826559Y5680090D01*
X10729090Y5537439D01*
X10665363Y5601278D01*
X10064648Y5850716D01*
X9414205Y5851284D01*
X9371812Y5833767D01*
X7545000Y7660580D01*
X7545000Y8325673D01*
X7647575Y8428070D01*
X8407675Y8428070D01*
X8475735Y8187069D01*
X8995034Y8002233D01*
X9545538Y8030195D01*
X9924265Y8187069D01*
X9992325Y8428070D01*
X9200000Y9220395D01*
X8407675Y8428070D01*
X7647575Y8428070D01*
X7833944Y8614113D01*
X7923379Y8829496D01*
X7987069Y8675735D01*
X8228070Y8607675D01*
X9020395Y9400000D01*
X8228070Y10192325D01*
X7987069Y10124265D01*
X7928231Y9958960D01*
X7835314Y10183837D01*
X7445887Y10573944D01*
X6936816Y10785329D01*
X6525892Y10785688D01*
X5637200Y11674380D01*
X5637200Y13394260D01*
X5653270Y13404998D01*
X8469041Y10589227D01*
X8407675Y10371930D01*
X9200000Y9579605D01*
X9214143Y9593747D01*
X9393748Y9414142D01*
X9379605Y9400000D01*
X10171930Y8607675D01*
X10389227Y8669041D01*
X10524160Y8534108D01*
X10770722Y8369361D01*
X11061561Y8311509D01*
X21873261Y8311509D01*
X22164100Y8369361D01*
X22410662Y8534108D01*
X23647674Y9771120D01*
X23771538Y9471345D01*
X24230927Y9011154D01*
X24831453Y8761794D01*
X25481694Y8761226D01*
X26082655Y9009538D01*
X26542846Y9468927D01*
X26792206Y10069453D01*
X26792774Y10719694D01*
X26544462Y11320655D01*
X26085073Y11780846D01*
X25782881Y11906327D01*
X26392063Y12515509D01*
X28107857Y12515509D01*
X28107857Y8765000D01*
X33892143Y8765000D01*
X33892143Y12735000D01*
X28990259Y12735000D01*
X28994910Y12738108D01*
X29290917Y13034115D01*
X29455453Y12965794D01*
X30105694Y12965226D01*
X30706655Y13213538D01*
X31166846Y13672927D01*
X31305667Y14007244D01*
X31307674Y13997152D01*
X31632530Y13510971D01*
X32118711Y13186115D01*
X32692200Y13072041D01*
X33265689Y13186115D01*
X33751870Y13510971D01*
X33962200Y13825752D01*
X34172530Y13510971D01*
X34658711Y13186115D01*
X35232200Y13072041D01*
X35805689Y13186115D01*
X36291870Y13510971D01*
X36616726Y13997152D01*
X36730800Y14570641D01*
X36730800Y14629359D01*
X36616726Y15202848D01*
X36291870Y15689029D01*
X36021028Y15870000D01*
X36291870Y16050971D01*
X36616726Y16537152D01*
X36730800Y17110641D01*
X36730800Y17169359D01*
X36616726Y17742848D01*
X36291870Y18229029D01*
X36021028Y18410000D01*
X36291870Y18590971D01*
X36616726Y19077152D01*
X36730800Y19650641D01*
X36730800Y19709359D01*
X36616726Y20282848D01*
X36291870Y20769029D01*
X36021028Y20950000D01*
X36291870Y21130971D01*
X36616726Y21617152D01*
X36730800Y22190641D01*
X36730800Y22249359D01*
X36616726Y22822848D01*
X36291870Y23309029D01*
X36021028Y23490000D01*
X36291870Y23670971D01*
X36616726Y24157152D01*
X36730800Y24730641D01*
X36730800Y24789359D01*
X36616726Y25362848D01*
X36291870Y25849029D01*
X36021028Y26030000D01*
X36291870Y26210971D01*
X36616726Y26697152D01*
X36730800Y27270641D01*
X36730800Y27329359D01*
X36616726Y27902848D01*
X36291870Y28389029D01*
X36021028Y28570000D01*
X36291870Y28750971D01*
X36616726Y29237152D01*
X36730800Y29810641D01*
X36730800Y29869359D01*
X36616726Y30442848D01*
X36291870Y30929029D01*
X36021028Y31110000D01*
X36291870Y31290971D01*
X36616726Y31777152D01*
X36730800Y32350641D01*
X36730800Y32409359D01*
X36616726Y32982848D01*
X36291870Y33469029D01*
X36021028Y33650000D01*
X36291870Y33830971D01*
X36616726Y34317152D01*
X36730800Y34890641D01*
X36730800Y34949359D01*
X36616726Y35522848D01*
X36291870Y36009029D01*
X36021028Y36190000D01*
X36291870Y36370971D01*
X36616726Y36857152D01*
X36730800Y37430641D01*
X36730800Y37489359D01*
X36616726Y38062848D01*
X36291870Y38549029D01*
X35805689Y38873885D01*
X35232200Y38987959D01*
X34658711Y38873885D01*
X34172530Y38549029D01*
X34163395Y38535358D01*
X34158962Y38558917D01*
X34019890Y38775041D01*
X33807690Y38920031D01*
X33555800Y38971040D01*
X31828600Y38971040D01*
X31593283Y38926762D01*
X31377159Y38787690D01*
X31232169Y38575490D01*
X31181160Y38323600D01*
X31181160Y36596400D01*
X31225438Y36361083D01*
X31364510Y36144959D01*
X31576710Y35999969D01*
X31620545Y35991092D01*
X31307674Y35522848D01*
X31193600Y34949359D01*
X31193600Y34890641D01*
X31307674Y34317152D01*
X31632530Y33830971D01*
X31903372Y33650000D01*
X31632530Y33469029D01*
X31307674Y32982848D01*
X31193600Y32409359D01*
X31193600Y32350641D01*
X31307674Y31777152D01*
X31632530Y31290971D01*
X31903372Y31110000D01*
X31632530Y30929029D01*
X31307674Y30442848D01*
X31193600Y29869359D01*
X31193600Y29810641D01*
X31307674Y29237152D01*
X31632530Y28750971D01*
X31903372Y28570000D01*
X31632530Y28389029D01*
X31346667Y27961205D01*
X27722582Y31585290D01*
X27476020Y31750037D01*
X27185181Y31807889D01*
X26432419Y31807889D01*
X26472496Y31920428D01*
X26444573Y32471946D01*
X26287235Y32851793D01*
X26045972Y32920166D01*
X25251805Y32126000D01*
X25265948Y32111857D01*
X25086343Y31932252D01*
X25072200Y31946395D01*
X25058058Y31932252D01*
X24878453Y32111857D01*
X24892595Y32126000D01*
X24098428Y32920166D01*
X23857165Y32851793D01*
X23800265Y32692015D01*
X23709669Y32911274D01*
X23521500Y33099772D01*
X24278034Y33099772D01*
X25072200Y32305605D01*
X25866366Y33099772D01*
X25797993Y33341035D01*
X25277772Y33526296D01*
X24726254Y33498373D01*
X24346407Y33341035D01*
X24278034Y33099772D01*
X23521500Y33099772D01*
X23319528Y33302096D01*
X22809524Y33513869D01*
X22749467Y33513921D01*
X24788166Y35552620D01*
X28502645Y35552620D01*
X28793484Y35610472D01*
X29040046Y35775219D01*
X29402400Y36137573D01*
X29578800Y36102485D01*
X29993851Y36185044D01*
X30345714Y36420151D01*
X30580821Y36772014D01*
X30663380Y37187065D01*
X30663380Y37843335D01*
X30580821Y38258386D01*
X30345714Y38610249D01*
X29993851Y38845356D01*
X29578800Y38927915D01*
X29163749Y38845356D01*
X28943800Y38698391D01*
X28723851Y38845356D01*
X28308800Y38927915D01*
X28278003Y38921789D01*
X28071611Y39128181D01*
X27829431Y39290000D01*
X37930069Y39290000D01*
X38488338Y39178954D01*
X38902333Y38902331D01*
X39178953Y38488340D01*
X39290000Y37930069D01*
X39290000Y2069931D01*
X39178953Y1511660D01*
X38902333Y1097669D01*
X38488338Y821046D01*
X37930069Y710000D01*
X2069931Y710000D01*
X1511660Y821047D01*
X1097669Y1097667D01*
X821046Y1511662D01*
X710000Y2069931D01*
X710000Y4277185D01*
X864630Y4277185D01*
X1188980Y3492200D01*
X1789041Y2891091D01*
X2573459Y2565372D01*
X3422815Y2564630D01*
X4207800Y2888980D01*
X4808909Y3489041D01*
X5134628Y4273459D01*
X5135370Y5122815D01*
X4811020Y5907800D01*
X4210959Y6508909D01*
X3426541Y6834628D01*
X2577185Y6835370D01*
X1792200Y6511020D01*
X1191091Y5910959D01*
X865372Y5126541D01*
X864630Y4277185D01*
X710000Y4277185D01*
X710000Y26940973D01*
X3297232Y26940973D01*
X3545379Y26411510D01*
X3963352Y26030000D01*
X3545379Y25648490D01*
X3297232Y25119027D01*
X3417731Y24887000D01*
X4625200Y24887000D01*
X4625200Y27173000D01*
X3417731Y27173000D01*
X3297232Y26940973D01*
X710000Y26940973D01*
X710000Y37930069D01*
X821046Y38488338D01*
X1097669Y38902333D01*
X1511660Y39178953D01*
X2069931Y39290000D01*
X11344121Y39290000D01*
X11220061Y39165940D01*
G36*
X12248501Y16832599D02*
X12495063Y16667852D01*
X12785902Y16610000D01*
X14526239Y16610000D01*
X14642954Y16493081D01*
X15023223Y16335180D01*
X15434971Y16334821D01*
X15815515Y16492058D01*
X16106919Y16782954D01*
X16264820Y17163223D01*
X16265179Y17574971D01*
X16190380Y17756000D01*
X17648239Y17756000D01*
X17764954Y17639081D01*
X18145223Y17481180D01*
X18556971Y17480821D01*
X18937515Y17638058D01*
X19228919Y17928954D01*
X19278658Y18048740D01*
X21088234Y16239164D01*
X21076306Y16239174D01*
X20475345Y15990862D01*
X20015154Y15531473D01*
X20002368Y15500681D01*
X19992462Y15524655D01*
X19533073Y15984846D01*
X18932547Y16234206D01*
X18282306Y16234774D01*
X17681345Y15986462D01*
X17221154Y15527073D01*
X17209279Y15498475D01*
X17198462Y15524655D01*
X16739073Y15984846D01*
X16138547Y16234206D01*
X15488306Y16234774D01*
X14887345Y15986462D01*
X14427154Y15527073D01*
X14409338Y15484168D01*
X14170163Y15572557D01*
X13197605Y14600000D01*
X14170163Y13627443D01*
X14408879Y13715663D01*
X14425538Y13675345D01*
X14884927Y13215154D01*
X15485453Y12965794D01*
X16135694Y12965226D01*
X16736655Y13213538D01*
X17196846Y13672927D01*
X17208721Y13701525D01*
X17219538Y13675345D01*
X17678927Y13215154D01*
X18279453Y12965794D01*
X18929694Y12965226D01*
X19530655Y13213538D01*
X19990846Y13672927D01*
X20003632Y13703719D01*
X20013538Y13679745D01*
X20472927Y13219554D01*
X21073453Y12970194D01*
X21723694Y12969626D01*
X22324655Y13217938D01*
X22784846Y13677327D01*
X22796721Y13705925D01*
X22807538Y13679745D01*
X23266927Y13219554D01*
X23867453Y12970194D01*
X24517694Y12969626D01*
X24822533Y13095583D01*
X21558459Y9831509D01*
X16531928Y9831509D01*
X16643401Y10131582D01*
X16619341Y10781377D01*
X16416965Y11269958D01*
X16150163Y11368557D01*
X15177605Y10396000D01*
X15191748Y10381858D01*
X15012143Y10202252D01*
X14998000Y10216395D01*
X14983858Y10202252D01*
X14804252Y10381858D01*
X14818395Y10396000D01*
X13845837Y11368557D01*
X13579035Y11269958D01*
X13352599Y10660418D01*
X13376659Y10010623D01*
X13450850Y9831509D01*
X11376363Y9831509D01*
X9659709Y11548163D01*
X14025443Y11548163D01*
X14998000Y10575605D01*
X15970557Y11548163D01*
X15871958Y11814965D01*
X15262418Y12041401D01*
X14612623Y12017341D01*
X14124042Y11814965D01*
X14025443Y11548163D01*
X9659709Y11548163D01*
X7959245Y13248627D01*
X8351870Y13510971D01*
X8676726Y13997152D01*
X8690608Y14066942D01*
X8837538Y13711345D01*
X9296927Y13251154D01*
X9897453Y13001794D01*
X10547694Y13001226D01*
X11148655Y13249538D01*
X11347300Y13447837D01*
X12045443Y13447837D01*
X12144042Y13181035D01*
X12753582Y12954599D01*
X13403377Y12978659D01*
X13891958Y13181035D01*
X13990557Y13447837D01*
X13018000Y14420395D01*
X12045443Y13447837D01*
X11347300Y13447837D01*
X11608846Y13708927D01*
X11613702Y13720622D01*
X11865837Y13627443D01*
X12838395Y14600000D01*
X11865837Y15572557D01*
X11640025Y15489106D01*
X11610462Y15560655D01*
X11419288Y15752163D01*
X12045443Y15752163D01*
X13018000Y14779605D01*
X13990557Y15752163D01*
X13891958Y16018965D01*
X13282418Y16245401D01*
X12632623Y16221341D01*
X12144042Y16018965D01*
X12045443Y15752163D01*
X11419288Y15752163D01*
X11151073Y16020846D01*
X10984000Y16090221D01*
X10984000Y18097100D01*
X12248501Y16832599D01*
X12248501Y16832599D01*
G37*
X12248501Y16832599D02*
X12495063Y16667852D01*
X12785902Y16610000D01*
X14526239Y16610000D01*
X14642954Y16493081D01*
X15023223Y16335180D01*
X15434971Y16334821D01*
X15815515Y16492058D01*
X16106919Y16782954D01*
X16264820Y17163223D01*
X16265179Y17574971D01*
X16190380Y17756000D01*
X17648239Y17756000D01*
X17764954Y17639081D01*
X18145223Y17481180D01*
X18556971Y17480821D01*
X18937515Y17638058D01*
X19228919Y17928954D01*
X19278658Y18048740D01*
X21088234Y16239164D01*
X21076306Y16239174D01*
X20475345Y15990862D01*
X20015154Y15531473D01*
X20002368Y15500681D01*
X19992462Y15524655D01*
X19533073Y15984846D01*
X18932547Y16234206D01*
X18282306Y16234774D01*
X17681345Y15986462D01*
X17221154Y15527073D01*
X17209279Y15498475D01*
X17198462Y15524655D01*
X16739073Y15984846D01*
X16138547Y16234206D01*
X15488306Y16234774D01*
X14887345Y15986462D01*
X14427154Y15527073D01*
X14409338Y15484168D01*
X14170163Y15572557D01*
X13197605Y14600000D01*
X14170163Y13627443D01*
X14408879Y13715663D01*
X14425538Y13675345D01*
X14884927Y13215154D01*
X15485453Y12965794D01*
X16135694Y12965226D01*
X16736655Y13213538D01*
X17196846Y13672927D01*
X17208721Y13701525D01*
X17219538Y13675345D01*
X17678927Y13215154D01*
X18279453Y12965794D01*
X18929694Y12965226D01*
X19530655Y13213538D01*
X19990846Y13672927D01*
X20003632Y13703719D01*
X20013538Y13679745D01*
X20472927Y13219554D01*
X21073453Y12970194D01*
X21723694Y12969626D01*
X22324655Y13217938D01*
X22784846Y13677327D01*
X22796721Y13705925D01*
X22807538Y13679745D01*
X23266927Y13219554D01*
X23867453Y12970194D01*
X24517694Y12969626D01*
X24822533Y13095583D01*
X21558459Y9831509D01*
X16531928Y9831509D01*
X16643401Y10131582D01*
X16619341Y10781377D01*
X16416965Y11269958D01*
X16150163Y11368557D01*
X15177605Y10396000D01*
X15191748Y10381858D01*
X15012143Y10202252D01*
X14998000Y10216395D01*
X14983858Y10202252D01*
X14804252Y10381858D01*
X14818395Y10396000D01*
X13845837Y11368557D01*
X13579035Y11269958D01*
X13352599Y10660418D01*
X13376659Y10010623D01*
X13450850Y9831509D01*
X11376363Y9831509D01*
X9659709Y11548163D01*
X14025443Y11548163D01*
X14998000Y10575605D01*
X15970557Y11548163D01*
X15871958Y11814965D01*
X15262418Y12041401D01*
X14612623Y12017341D01*
X14124042Y11814965D01*
X14025443Y11548163D01*
X9659709Y11548163D01*
X7959245Y13248627D01*
X8351870Y13510971D01*
X8676726Y13997152D01*
X8690608Y14066942D01*
X8837538Y13711345D01*
X9296927Y13251154D01*
X9897453Y13001794D01*
X10547694Y13001226D01*
X11148655Y13249538D01*
X11347300Y13447837D01*
X12045443Y13447837D01*
X12144042Y13181035D01*
X12753582Y12954599D01*
X13403377Y12978659D01*
X13891958Y13181035D01*
X13990557Y13447837D01*
X13018000Y14420395D01*
X12045443Y13447837D01*
X11347300Y13447837D01*
X11608846Y13708927D01*
X11613702Y13720622D01*
X11865837Y13627443D01*
X12838395Y14600000D01*
X11865837Y15572557D01*
X11640025Y15489106D01*
X11610462Y15560655D01*
X11419288Y15752163D01*
X12045443Y15752163D01*
X13018000Y14779605D01*
X13990557Y15752163D01*
X13891958Y16018965D01*
X13282418Y16245401D01*
X12632623Y16221341D01*
X12144042Y16018965D01*
X12045443Y15752163D01*
X11419288Y15752163D01*
X11151073Y16020846D01*
X10984000Y16090221D01*
X10984000Y18097100D01*
X12248501Y16832599D01*
G36*
X22807538Y23839745D02*
X23266927Y23379554D01*
X23867453Y23130194D01*
X24517694Y23129626D01*
X25118655Y23377938D01*
X25578846Y23837327D01*
X25589810Y23863730D01*
X25601538Y23835345D01*
X26060927Y23375154D01*
X26661453Y23125794D01*
X27156036Y23125362D01*
X30743599Y19537799D01*
X30743599Y16569471D01*
X30801451Y16278632D01*
X30966198Y16032070D01*
X31503038Y15495230D01*
X31307674Y15202848D01*
X31305645Y15192647D01*
X31168462Y15524655D01*
X30709073Y15984846D01*
X30108547Y16234206D01*
X29458306Y16234774D01*
X28857345Y15986462D01*
X28397154Y15527073D01*
X28385279Y15498475D01*
X28374462Y15524655D01*
X27915073Y15984846D01*
X27314547Y16234206D01*
X26664306Y16234774D01*
X26219867Y16051135D01*
X19082598Y23188404D01*
X19530655Y23373538D01*
X19990846Y23832927D01*
X20003632Y23863719D01*
X20013538Y23839745D01*
X20472927Y23379554D01*
X21073453Y23130194D01*
X21723694Y23129626D01*
X22324655Y23377938D01*
X22784846Y23837327D01*
X22796721Y23865925D01*
X22807538Y23839745D01*
X22807538Y23839745D01*
G37*
X22807538Y23839745D02*
X23266927Y23379554D01*
X23867453Y23130194D01*
X24517694Y23129626D01*
X25118655Y23377938D01*
X25578846Y23837327D01*
X25589810Y23863730D01*
X25601538Y23835345D01*
X26060927Y23375154D01*
X26661453Y23125794D01*
X27156036Y23125362D01*
X30743599Y19537799D01*
X30743599Y16569471D01*
X30801451Y16278632D01*
X30966198Y16032070D01*
X31503038Y15495230D01*
X31307674Y15202848D01*
X31305645Y15192647D01*
X31168462Y15524655D01*
X30709073Y15984846D01*
X30108547Y16234206D01*
X29458306Y16234774D01*
X28857345Y15986462D01*
X28397154Y15527073D01*
X28385279Y15498475D01*
X28374462Y15524655D01*
X27915073Y15984846D01*
X27314547Y16234206D01*
X26664306Y16234774D01*
X26219867Y16051135D01*
X19082598Y23188404D01*
X19530655Y23373538D01*
X19990846Y23832927D01*
X20003632Y23863719D01*
X20013538Y23839745D01*
X20472927Y23379554D01*
X21073453Y23130194D01*
X21723694Y23129626D01*
X22324655Y23377938D01*
X22784846Y23837327D01*
X22796721Y23865925D01*
X22807538Y23839745D01*
G36*
X23882234Y16239164D02*
X23870306Y16239174D01*
X23422753Y16054249D01*
X17217235Y22259767D01*
X17217379Y22424971D01*
X17060142Y22805515D01*
X16992907Y22872868D01*
X17030682Y22898108D01*
X17126986Y22994412D01*
X23882234Y16239164D01*
X23882234Y16239164D01*
G37*
X23882234Y16239164D02*
X23870306Y16239174D01*
X23422753Y16054249D01*
X17217235Y22259767D01*
X17217379Y22424971D01*
X17060142Y22805515D01*
X16992907Y22872868D01*
X17030682Y22898108D01*
X17126986Y22994412D01*
X23882234Y16239164D01*
G36*
X23665954Y39128181D02*
X23303600Y38765827D01*
X23127200Y38800915D01*
X22712149Y38718356D01*
X22492200Y38571391D01*
X22272251Y38718356D01*
X21857200Y38800915D01*
X21442149Y38718356D01*
X21090286Y38483249D01*
X20855179Y38131386D01*
X20772620Y37716335D01*
X20772620Y37378422D01*
X18376688Y34982490D01*
X18211941Y34735928D01*
X18154089Y34445089D01*
X18154089Y33337574D01*
X17729524Y33513869D01*
X17315549Y33514230D01*
X17001800Y33827980D01*
X17001800Y37367973D01*
X17104375Y37470370D01*
X17864475Y37470370D01*
X17932535Y37229369D01*
X18451834Y37044533D01*
X19002338Y37072495D01*
X19381065Y37229369D01*
X19449125Y37470370D01*
X18656800Y38262695D01*
X17864475Y37470370D01*
X17104375Y37470370D01*
X17290744Y37656413D01*
X17380179Y37871796D01*
X17443869Y37718035D01*
X17684870Y37649975D01*
X18477195Y38442300D01*
X18463053Y38456442D01*
X18642658Y38636047D01*
X18656800Y38621905D01*
X18670943Y38636047D01*
X18850548Y38456442D01*
X18836405Y38442300D01*
X19628730Y37649975D01*
X19869731Y37718035D01*
X20054567Y38237334D01*
X20026605Y38787838D01*
X19869731Y39166565D01*
X19628732Y39234624D01*
X19684108Y39290000D01*
X23908134Y39290000D01*
X23665954Y39128181D01*
X23665954Y39128181D01*
G37*
X23665954Y39128181D02*
X23303600Y38765827D01*
X23127200Y38800915D01*
X22712149Y38718356D01*
X22492200Y38571391D01*
X22272251Y38718356D01*
X21857200Y38800915D01*
X21442149Y38718356D01*
X21090286Y38483249D01*
X20855179Y38131386D01*
X20772620Y37716335D01*
X20772620Y37378422D01*
X18376688Y34982490D01*
X18211941Y34735928D01*
X18154089Y34445089D01*
X18154089Y33337574D01*
X17729524Y33513869D01*
X17315549Y33514230D01*
X17001800Y33827980D01*
X17001800Y37367973D01*
X17104375Y37470370D01*
X17864475Y37470370D01*
X17932535Y37229369D01*
X18451834Y37044533D01*
X19002338Y37072495D01*
X19381065Y37229369D01*
X19449125Y37470370D01*
X18656800Y38262695D01*
X17864475Y37470370D01*
X17104375Y37470370D01*
X17290744Y37656413D01*
X17380179Y37871796D01*
X17443869Y37718035D01*
X17684870Y37649975D01*
X18477195Y38442300D01*
X18463053Y38456442D01*
X18642658Y38636047D01*
X18656800Y38621905D01*
X18670943Y38636047D01*
X18850548Y38456442D01*
X18836405Y38442300D01*
X19628730Y37649975D01*
X19869731Y37718035D01*
X20054567Y38237334D01*
X20026605Y38787838D01*
X19869731Y39166565D01*
X19628732Y39234624D01*
X19684108Y39290000D01*
X23908134Y39290000D01*
X23665954Y39128181D01*
M02*
