G04 #@! TF.FileFunction,Copper,L2,Bot,Signal*
%FSLAX46Y46*%
G04 Gerber Fmt 4.6, Leading zero omitted, Abs format (unit mm)*
G04 Created by KiCad (PCBNEW (2015-08-23 BZR 6117)-product) date Fr 28 Aug 2015 21:18:53 CEST*
%MOMM*%
G01*
G04 APERTURE LIST*
%ADD10C,0.150000*%
%ADD11C,0.300000*%
%ADD12C,1.998980*%
%ADD13R,1.727200X1.727200*%
%ADD14O,1.727200X1.727200*%
%ADD15C,1.506220*%
%ADD16C,1.501140*%
%ADD17R,2.000000X2.000000*%
%ADD18C,2.000000*%
%ADD19O,0.899160X1.501140*%
%ADD20R,2.032000X2.032000*%
%ADD21O,2.032000X2.032000*%
%ADD22C,0.800000*%
%ADD23C,0.500000*%
%ADD24C,0.250000*%
%ADD25C,0.254000*%
G04 APERTURE END LIST*
D10*
D11*
X32250000Y10707143D02*
X32035714Y10635714D01*
X31964286Y10564286D01*
X31892857Y10421429D01*
X31892857Y10207143D01*
X31964286Y10064286D01*
X32035714Y9992857D01*
X32178572Y9921429D01*
X32750000Y9921429D01*
X32750000Y11421429D01*
X32250000Y11421429D01*
X32107143Y11350000D01*
X32035714Y11278571D01*
X31964286Y11135714D01*
X31964286Y10992857D01*
X32035714Y10850000D01*
X32107143Y10778571D01*
X32250000Y10707143D01*
X32750000Y10707143D01*
X30964286Y11421429D02*
X30678572Y11421429D01*
X30535714Y11350000D01*
X30392857Y11207143D01*
X30321429Y10921429D01*
X30321429Y10421429D01*
X30392857Y10135714D01*
X30535714Y9992857D01*
X30678572Y9921429D01*
X30964286Y9921429D01*
X31107143Y9992857D01*
X31250000Y10135714D01*
X31321429Y10421429D01*
X31321429Y10921429D01*
X31250000Y11207143D01*
X31107143Y11350000D01*
X30964286Y11421429D01*
X29892857Y11421429D02*
X29035714Y11421429D01*
X29464285Y9921429D02*
X29464285Y11421429D01*
D12*
X18606000Y14600000D03*
X18606000Y24760000D03*
D13*
X4752200Y37460000D03*
D14*
X7292200Y37460000D03*
X4752200Y34920000D03*
X7292200Y34920000D03*
X4752200Y32380000D03*
X7292200Y32380000D03*
X4752200Y29840000D03*
X7292200Y29840000D03*
X4752200Y27300000D03*
X7292200Y27300000D03*
X4752200Y24760000D03*
X7292200Y24760000D03*
X4752200Y22220000D03*
X7292200Y22220000D03*
X4752200Y19680000D03*
X7292200Y19680000D03*
X4752200Y17140000D03*
X7292200Y17140000D03*
X4752200Y14600000D03*
X7292200Y14600000D03*
D13*
X32692200Y37460000D03*
D14*
X35232200Y37460000D03*
X32692200Y34920000D03*
X35232200Y34920000D03*
X32692200Y32380000D03*
X35232200Y32380000D03*
X32692200Y29840000D03*
X35232200Y29840000D03*
X32692200Y27300000D03*
X35232200Y27300000D03*
X32692200Y24760000D03*
X35232200Y24760000D03*
X32692200Y22220000D03*
X35232200Y22220000D03*
X32692200Y19680000D03*
X35232200Y19680000D03*
X32692200Y17140000D03*
X35232200Y17140000D03*
X32692200Y14600000D03*
X35232200Y14600000D03*
D15*
X14912200Y29586000D03*
X14912200Y32126000D03*
X17452200Y29586000D03*
X17452200Y32126000D03*
X19992200Y29586000D03*
X19992200Y32126000D03*
X22532200Y29586000D03*
X22532200Y32126000D03*
X25072200Y29586000D03*
X25072200Y32126000D03*
D16*
X18656800Y38442300D03*
X16116800Y38442300D03*
D17*
X24318000Y4216000D03*
D18*
X21778000Y4216000D03*
D17*
X18278000Y4216000D03*
D18*
X15738000Y4216000D03*
D17*
X12278000Y4216000D03*
D18*
X9738000Y4216000D03*
D17*
X30278000Y4216000D03*
D18*
X27738000Y4216000D03*
D19*
X23127200Y37388200D03*
X24397200Y37388200D03*
X21857200Y37388200D03*
X28308800Y37515200D03*
X29578800Y37515200D03*
X27038800Y37515200D03*
D12*
X10224000Y24796000D03*
X10224000Y14636000D03*
X29782000Y14600000D03*
X29782000Y24760000D03*
X26988000Y14600000D03*
X26988000Y24760000D03*
X24194000Y24764400D03*
X24194000Y14604400D03*
X21400000Y14604400D03*
X21400000Y24764400D03*
X15812000Y14600000D03*
X15812000Y24760000D03*
X13018000Y14600000D03*
X13018000Y24760000D03*
X25158000Y10396000D03*
X14998000Y10396000D03*
D16*
X9200000Y9400000D03*
X6660000Y9400000D03*
D20*
X10808200Y37502500D03*
D21*
X13348200Y37502500D03*
D22*
X22000000Y18000000D03*
X26000000Y21000000D03*
X38000000Y26000000D03*
X35000000Y10000000D03*
X16182200Y22220000D03*
X15230000Y17370000D03*
X9017500Y20065400D03*
X21658372Y33497628D03*
X18352000Y18516000D03*
X10490465Y21297535D03*
X12141700Y33476600D03*
D23*
X4752200Y24760000D02*
X2842834Y22850634D01*
X2842834Y22850634D02*
X2842834Y13708615D01*
X2842834Y13708615D02*
X4044276Y12507173D01*
X4044276Y12507173D02*
X6092827Y12507173D01*
X6092827Y12507173D02*
X9200000Y9400000D01*
D24*
X26000000Y21000000D02*
X25000000Y21000000D01*
X25000000Y21000000D02*
X22000000Y18000000D01*
X38000000Y26000000D02*
X38000000Y25434315D01*
X38000000Y25434315D02*
X36001194Y23435509D01*
X36001194Y23435509D02*
X28435509Y23435509D01*
X28435509Y23435509D02*
X26000000Y21000000D01*
D23*
X13348200Y37502500D02*
X14590025Y37502500D01*
X14590025Y37502500D02*
X15390125Y36702400D01*
X15390125Y36702400D02*
X16916900Y36702400D01*
X16916900Y36702400D02*
X19037800Y38823300D01*
X19037800Y38823300D02*
X24790900Y38823300D01*
X24790900Y38823300D02*
X25825309Y37788891D01*
X25825309Y37788891D02*
X25825309Y32879109D01*
X25825309Y32879109D02*
X25072200Y32126000D01*
X7292200Y34920000D02*
X11067702Y34920000D01*
X11067702Y34920000D02*
X12332201Y36184499D01*
X12332201Y36184499D02*
X12334999Y36184499D01*
X12334999Y36184499D02*
X13348200Y37197700D01*
X13348200Y37197700D02*
X13348200Y37502500D01*
X7292200Y27300000D02*
X8663800Y27300000D01*
X8663800Y27300000D02*
X9781400Y28417600D01*
X9781400Y31112114D02*
X9781400Y28417600D01*
X7292200Y32380000D02*
X8513514Y32380000D01*
X8513514Y32380000D02*
X9781400Y31112114D01*
X4752200Y27300000D02*
X4752200Y24760000D01*
X7292200Y34920000D02*
X7292200Y32380000D01*
X6428601Y28163599D02*
X7292200Y27300000D01*
X4752200Y27300000D02*
X5615799Y28163599D01*
X5615799Y28163599D02*
X6428601Y28163599D01*
D24*
X24318000Y5466000D02*
X21400000Y8384000D01*
X21400000Y8384000D02*
X21400000Y14604400D01*
X24318000Y5466000D02*
X24318000Y4216000D01*
D23*
X4752200Y14600000D02*
X7292200Y14600000D01*
D24*
X18606000Y14600000D02*
X18606000Y4544000D01*
X18606000Y4544000D02*
X18278000Y4216000D01*
X18606000Y14600000D02*
X18648000Y14558000D01*
X18278000Y4216000D02*
X18352200Y4290200D01*
X14965236Y13753236D02*
X14407595Y13195595D01*
X14407595Y13195595D02*
X12278000Y11066000D01*
X15812000Y14600000D02*
X14407595Y13195595D01*
X12278000Y11066000D02*
X12278000Y4216000D01*
X30278000Y4216000D02*
X30278000Y6398595D01*
X30278000Y6498595D02*
X26380595Y10396000D01*
X26380595Y10396000D02*
X25158000Y10396000D01*
X23206731Y31047889D02*
X22014706Y31047889D01*
X22014706Y31047889D02*
X21630928Y30664111D01*
X21630928Y30664111D02*
X19474706Y30664111D01*
X19474706Y30664111D02*
X18530311Y29719716D01*
X18530311Y29719716D02*
X18530311Y26644559D01*
X18530311Y26644559D02*
X17281509Y25395757D01*
X16182200Y23121547D02*
X16182200Y22220000D01*
X17281509Y25395757D02*
X17281509Y24220856D01*
X17281509Y24220856D02*
X16182200Y23121547D01*
X23206731Y31047889D02*
X23049694Y31047889D01*
X25589694Y31047889D02*
X23206731Y31047889D01*
X27038800Y37515200D02*
X27038800Y32496995D01*
X27038800Y32496995D02*
X25589694Y31047889D01*
X17330000Y19470000D02*
X15230000Y17370000D01*
X21400000Y24764400D02*
X20400511Y23764911D01*
X20400511Y23764911D02*
X20400511Y22540511D01*
X20400511Y22540511D02*
X17330000Y19470000D01*
X7292200Y19680000D02*
X7694200Y19278000D01*
X13526000Y16738000D02*
X18606000Y21818000D01*
X18606000Y21818000D02*
X18606000Y24760000D01*
X8649330Y16738000D02*
X13526000Y16738000D01*
X5940801Y15951399D02*
X7862729Y15951399D01*
X7862729Y15951399D02*
X8649330Y16738000D01*
X4752200Y17140000D02*
X5940801Y15951399D01*
X7292200Y17140000D02*
X8155799Y18003599D01*
X8155799Y18003599D02*
X9171799Y18003599D01*
X9171799Y18003599D02*
X15928200Y24760000D01*
X15510779Y30184579D02*
X14912200Y29586000D01*
X15510779Y30184579D02*
X15510779Y31128974D01*
X15510779Y31128974D02*
X16374089Y31992284D01*
X16374089Y31992284D02*
X16374089Y32643494D01*
X16374089Y32643494D02*
X18350585Y34619990D01*
X18350585Y34619990D02*
X21929980Y34619990D01*
X21929980Y34619990D02*
X24397200Y37087210D01*
X24397200Y37087210D02*
X24397200Y37388200D01*
X24397200Y37388200D02*
X24397200Y37261775D01*
X8899509Y23704594D02*
X8899509Y26113309D01*
X8899509Y23218537D02*
X8899509Y23704594D01*
X8899509Y23704594D02*
X8899509Y20183391D01*
X8899509Y20183391D02*
X9017500Y20065400D01*
X8899509Y26113309D02*
X14159091Y31372891D01*
X14159091Y31372891D02*
X14912200Y32126000D01*
X17452200Y29586000D02*
X18530311Y30664111D01*
X18530311Y30664111D02*
X18530311Y32470311D01*
X18530311Y32470311D02*
X19557628Y33497628D01*
X19557628Y33497628D02*
X21092687Y33497628D01*
X21092687Y33497628D02*
X21658372Y33497628D01*
X19992200Y29463882D02*
X19992200Y29055100D01*
X19992200Y29055100D02*
X22958409Y26088891D01*
X35232200Y24760000D02*
X33903309Y26088891D01*
X33903309Y26088891D02*
X22958409Y26088891D01*
X22532200Y29586000D02*
X23610311Y28507889D01*
X23610311Y28507889D02*
X27001901Y28507889D01*
X34043599Y31191399D02*
X34368601Y31516401D01*
X27001901Y28507889D02*
X29685411Y31191399D01*
X29685411Y31191399D02*
X34043599Y31191399D01*
X34368601Y31516401D02*
X35232200Y32380000D01*
X22352610Y36312620D02*
X22579724Y36539734D01*
X22579724Y36539734D02*
X23127200Y37087210D01*
X15630000Y35070000D02*
X21109990Y35070000D01*
X21109990Y35070000D02*
X22579724Y36539734D01*
X14036600Y33476600D02*
X15630000Y35070000D01*
X12141700Y33476600D02*
X14036600Y33476600D01*
X18352000Y18516000D02*
X24194000Y24358000D01*
X24194000Y24358000D02*
X24194000Y24764400D01*
X13018000Y24760000D02*
X13018000Y23825070D01*
X13018000Y23825070D02*
X10490465Y21297535D01*
X23127200Y37087210D02*
X23127200Y37388200D01*
D25*
G36*
X14942856Y39228187D02*
X14731471Y38719116D01*
X14731167Y38371172D01*
X14685388Y38470879D01*
X14213018Y38908885D01*
X13731144Y39108475D01*
X13475200Y38989336D01*
X13475200Y37629500D01*
X14835567Y37629500D01*
X14897889Y37763976D01*
X14941486Y37658463D01*
X15330913Y37268356D01*
X15839984Y37056971D01*
X16391198Y37056490D01*
X16900637Y37266986D01*
X17104376Y37470370D01*
X17864475Y37470370D01*
X17932535Y37229369D01*
X18451834Y37044533D01*
X19002338Y37072495D01*
X19381065Y37229369D01*
X19449125Y37470370D01*
X18656800Y38262695D01*
X17864475Y37470370D01*
X17104376Y37470370D01*
X17290744Y37656413D01*
X17380179Y37871796D01*
X17443869Y37718035D01*
X17684870Y37649975D01*
X18477195Y38442300D01*
X18463053Y38456442D01*
X18642658Y38636047D01*
X18656800Y38621905D01*
X18670943Y38636047D01*
X18850548Y38456442D01*
X18836405Y38442300D01*
X19628730Y37649975D01*
X19869731Y37718035D01*
X20054567Y38237334D01*
X20026605Y38787838D01*
X19869731Y39166565D01*
X19628732Y39234624D01*
X19684108Y39290000D01*
X37930069Y39290000D01*
X38488338Y39178954D01*
X38902333Y38902331D01*
X39178953Y38488340D01*
X39290000Y37930069D01*
X39290000Y2069931D01*
X39178953Y1511660D01*
X38902333Y1097669D01*
X38488338Y821046D01*
X37930069Y710000D01*
X2069931Y710000D01*
X1511660Y821047D01*
X1097669Y1097667D01*
X821046Y1511662D01*
X710000Y2069931D01*
X710000Y4277185D01*
X864630Y4277185D01*
X1188980Y3492200D01*
X1789041Y2891091D01*
X2573459Y2565372D01*
X3422815Y2564630D01*
X4207800Y2888980D01*
X4808909Y3489041D01*
X5134628Y4273459D01*
X5135370Y5122815D01*
X4811020Y5907800D01*
X4210959Y6508909D01*
X3426541Y6834628D01*
X2577185Y6835370D01*
X1792200Y6511020D01*
X1191091Y5910959D01*
X865372Y5126541D01*
X864630Y4277185D01*
X710000Y4277185D01*
X710000Y9125602D01*
X5274190Y9125602D01*
X5484686Y8616163D01*
X5874113Y8226056D01*
X6383184Y8014671D01*
X6934398Y8014190D01*
X7443837Y8224686D01*
X7647576Y8428070D01*
X8407675Y8428070D01*
X8475735Y8187069D01*
X8995034Y8002233D01*
X9545538Y8030195D01*
X9924265Y8187069D01*
X9992325Y8428070D01*
X9200000Y9220395D01*
X8407675Y8428070D01*
X7647576Y8428070D01*
X7833944Y8614113D01*
X7923379Y8829496D01*
X7987069Y8675735D01*
X8228070Y8607675D01*
X9020395Y9400000D01*
X9379605Y9400000D01*
X10171930Y8607675D01*
X10412931Y8675735D01*
X10597767Y9195034D01*
X10569805Y9745538D01*
X10412931Y10124265D01*
X10171930Y10192325D01*
X9379605Y9400000D01*
X9020395Y9400000D01*
X8228070Y10192325D01*
X7987069Y10124265D01*
X7928231Y9958960D01*
X7835314Y10183837D01*
X7647549Y10371930D01*
X8407675Y10371930D01*
X9200000Y9579605D01*
X9992325Y10371930D01*
X9924265Y10612931D01*
X9404966Y10797767D01*
X8854462Y10769805D01*
X8475735Y10612931D01*
X8407675Y10371930D01*
X7647549Y10371930D01*
X7445887Y10573944D01*
X6936816Y10785329D01*
X6385602Y10785810D01*
X5876163Y10575314D01*
X5486056Y10185887D01*
X5274671Y9676816D01*
X5274190Y9125602D01*
X710000Y9125602D01*
X710000Y22249359D01*
X3253600Y22249359D01*
X3253600Y22190641D01*
X3367674Y21617152D01*
X3692530Y21130971D01*
X3963372Y20950000D01*
X3692530Y20769029D01*
X3367674Y20282848D01*
X3253600Y19709359D01*
X3253600Y19650641D01*
X3367674Y19077152D01*
X3692530Y18590971D01*
X3963372Y18410000D01*
X3692530Y18229029D01*
X3367674Y17742848D01*
X3253600Y17169359D01*
X3253600Y17110641D01*
X3367674Y16537152D01*
X3692530Y16050971D01*
X3963372Y15870000D01*
X3692530Y15689029D01*
X3367674Y15202848D01*
X3253600Y14629359D01*
X3253600Y14570641D01*
X3367674Y13997152D01*
X3692530Y13510971D01*
X4178711Y13186115D01*
X4752200Y13072041D01*
X5325689Y13186115D01*
X5811870Y13510971D01*
X5948198Y13715000D01*
X6096202Y13715000D01*
X6232530Y13510971D01*
X6718711Y13186115D01*
X7292200Y13072041D01*
X7865689Y13186115D01*
X8351870Y13510971D01*
X8676726Y13997152D01*
X8690608Y14066942D01*
X8837538Y13711345D01*
X9296927Y13251154D01*
X9897453Y13001794D01*
X10547694Y13001226D01*
X11148655Y13249538D01*
X11608846Y13708927D01*
X11613702Y13720622D01*
X11865837Y13627443D01*
X12838395Y14600000D01*
X11865837Y15572557D01*
X11640025Y15489106D01*
X11610462Y15560655D01*
X11193844Y15978000D01*
X12128903Y15978000D01*
X12045443Y15752163D01*
X13018000Y14779605D01*
X13990557Y15752163D01*
X13891958Y16018965D01*
X13827437Y16042934D01*
X14063401Y16200599D01*
X14499544Y16636742D01*
X14642954Y16493081D01*
X15023223Y16335180D01*
X15434971Y16334821D01*
X15815515Y16492058D01*
X16106919Y16782954D01*
X16264820Y17163223D01*
X16264966Y17330164D01*
X17316883Y18382081D01*
X17316821Y18311029D01*
X17474058Y17930485D01*
X17764954Y17639081D01*
X18145223Y17481180D01*
X18556971Y17480821D01*
X18937515Y17638058D01*
X19228919Y17928954D01*
X19386820Y18309223D01*
X19386966Y18476164D01*
X24040845Y23130043D01*
X24517694Y23129626D01*
X25118655Y23377938D01*
X25578846Y23837327D01*
X25589810Y23863730D01*
X25601538Y23835345D01*
X26060927Y23375154D01*
X26661453Y23125794D01*
X27311694Y23125226D01*
X27912655Y23373538D01*
X28372846Y23832927D01*
X28384721Y23861525D01*
X28395538Y23835345D01*
X28854927Y23375154D01*
X29455453Y23125794D01*
X30105694Y23125226D01*
X30706655Y23373538D01*
X31166846Y23832927D01*
X31305667Y24167244D01*
X31307674Y24157152D01*
X31632530Y23670971D01*
X31903372Y23490000D01*
X31632530Y23309029D01*
X31307674Y22822848D01*
X31193600Y22249359D01*
X31193600Y22190641D01*
X31307674Y21617152D01*
X31632530Y21130971D01*
X31903372Y20950000D01*
X31632530Y20769029D01*
X31307674Y20282848D01*
X31193600Y19709359D01*
X31193600Y19650641D01*
X31307674Y19077152D01*
X31632530Y18590971D01*
X31903372Y18410000D01*
X31632530Y18229029D01*
X31307674Y17742848D01*
X31193600Y17169359D01*
X31193600Y17110641D01*
X31307674Y16537152D01*
X31632530Y16050971D01*
X31903372Y15870000D01*
X31632530Y15689029D01*
X31307674Y15202848D01*
X31305645Y15192647D01*
X31168462Y15524655D01*
X30709073Y15984846D01*
X30108547Y16234206D01*
X29458306Y16234774D01*
X28857345Y15986462D01*
X28397154Y15527073D01*
X28385279Y15498475D01*
X28374462Y15524655D01*
X27915073Y15984846D01*
X27314547Y16234206D01*
X26664306Y16234774D01*
X26063345Y15986462D01*
X25603154Y15527073D01*
X25592190Y15500670D01*
X25580462Y15529055D01*
X25121073Y15989246D01*
X24520547Y16238606D01*
X23870306Y16239174D01*
X23269345Y15990862D01*
X22809154Y15531473D01*
X22797279Y15502875D01*
X22786462Y15529055D01*
X22327073Y15989246D01*
X21726547Y16238606D01*
X21076306Y16239174D01*
X20475345Y15990862D01*
X20015154Y15531473D01*
X20002368Y15500681D01*
X19992462Y15524655D01*
X19533073Y15984846D01*
X18932547Y16234206D01*
X18282306Y16234774D01*
X17681345Y15986462D01*
X17221154Y15527073D01*
X17209279Y15498475D01*
X17198462Y15524655D01*
X16739073Y15984846D01*
X16138547Y16234206D01*
X15488306Y16234774D01*
X14887345Y15986462D01*
X14427154Y15527073D01*
X14409338Y15484168D01*
X14170163Y15572557D01*
X13197605Y14600000D01*
X13211748Y14585858D01*
X13032142Y14406252D01*
X13018000Y14420395D01*
X12045443Y13447837D01*
X12144042Y13181035D01*
X12753582Y12954599D01*
X13104802Y12967604D01*
X11740599Y11603401D01*
X11575852Y11356839D01*
X11518000Y11066000D01*
X11518000Y5863440D01*
X11278000Y5863440D01*
X11042683Y5819162D01*
X10826559Y5680090D01*
X10729090Y5537439D01*
X10665363Y5601278D01*
X10064648Y5850716D01*
X9414205Y5851284D01*
X8813057Y5602894D01*
X8352722Y5143363D01*
X8103284Y4542648D01*
X8102716Y3892205D01*
X8351106Y3291057D01*
X8810637Y2830722D01*
X9411352Y2581284D01*
X10061795Y2580716D01*
X10662943Y2829106D01*
X10729574Y2895621D01*
X10813910Y2764559D01*
X11026110Y2619569D01*
X11278000Y2568560D01*
X13278000Y2568560D01*
X13513317Y2612838D01*
X13729441Y2751910D01*
X13874431Y2964110D01*
X13925440Y3216000D01*
X13925440Y5216000D01*
X13881162Y5451317D01*
X13742090Y5667441D01*
X13529890Y5812431D01*
X13278000Y5863440D01*
X13038000Y5863440D01*
X13038000Y9243837D01*
X14025443Y9243837D01*
X14124042Y8977035D01*
X14733582Y8750599D01*
X15383377Y8774659D01*
X15871958Y8977035D01*
X15970557Y9243837D01*
X14998000Y10216395D01*
X14025443Y9243837D01*
X13038000Y9243837D01*
X13038000Y10751198D01*
X13750597Y11463795D01*
X13845836Y11368556D01*
X13579035Y11269958D01*
X13352599Y10660418D01*
X13376659Y10010623D01*
X13579035Y9522042D01*
X13845837Y9423443D01*
X14818395Y10396000D01*
X15177605Y10396000D01*
X16150163Y9423443D01*
X16416965Y9522042D01*
X16643401Y10131582D01*
X16619341Y10781377D01*
X16416965Y11269958D01*
X16150163Y11368557D01*
X15177605Y10396000D01*
X14818395Y10396000D01*
X14804252Y10410142D01*
X14983858Y10589748D01*
X14998000Y10575605D01*
X15970557Y11548163D01*
X15871958Y11814965D01*
X15262418Y12041401D01*
X14612623Y12017341D01*
X14124042Y11814965D01*
X14025444Y11548164D01*
X13930205Y11643403D01*
X15320917Y13034115D01*
X15485453Y12965794D01*
X16135694Y12965226D01*
X16736655Y13213538D01*
X17196846Y13672927D01*
X17208721Y13701525D01*
X17219538Y13675345D01*
X17678927Y13215154D01*
X17846000Y13145779D01*
X17846000Y5863440D01*
X17278000Y5863440D01*
X17042683Y5819162D01*
X16826559Y5680090D01*
X16729090Y5537439D01*
X16665363Y5601278D01*
X16064648Y5850716D01*
X15414205Y5851284D01*
X14813057Y5602894D01*
X14352722Y5143363D01*
X14103284Y4542648D01*
X14102716Y3892205D01*
X14351106Y3291057D01*
X14810637Y2830722D01*
X15411352Y2581284D01*
X16061795Y2580716D01*
X16662943Y2829106D01*
X16729574Y2895621D01*
X16813910Y2764559D01*
X17026110Y2619569D01*
X17278000Y2568560D01*
X19278000Y2568560D01*
X19513317Y2612838D01*
X19729441Y2751910D01*
X19874431Y2964110D01*
X19925440Y3216000D01*
X19925440Y5216000D01*
X19881162Y5451317D01*
X19742090Y5667441D01*
X19529890Y5812431D01*
X19366000Y5845620D01*
X19366000Y13145504D01*
X19530655Y13213538D01*
X19990846Y13672927D01*
X20003632Y13703719D01*
X20013538Y13679745D01*
X20472927Y13219554D01*
X20640000Y13150179D01*
X20640000Y8384000D01*
X20697852Y8093161D01*
X20862599Y7846599D01*
X22965464Y5743734D01*
X22866559Y5680090D01*
X22769090Y5537439D01*
X22705363Y5601278D01*
X22104648Y5850716D01*
X21454205Y5851284D01*
X20853057Y5602894D01*
X20392722Y5143363D01*
X20143284Y4542648D01*
X20142716Y3892205D01*
X20391106Y3291057D01*
X20850637Y2830722D01*
X21451352Y2581284D01*
X22101795Y2580716D01*
X22702943Y2829106D01*
X22769574Y2895621D01*
X22853910Y2764559D01*
X23066110Y2619569D01*
X23318000Y2568560D01*
X25318000Y2568560D01*
X25553317Y2612838D01*
X25769441Y2751910D01*
X25914431Y2964110D01*
X25965440Y3216000D01*
X25965440Y5216000D01*
X25921162Y5451317D01*
X25782090Y5667441D01*
X25569890Y5812431D01*
X25318000Y5863440D01*
X24948920Y5863440D01*
X24855401Y6003401D01*
X22160000Y8698802D01*
X22160000Y10072306D01*
X23523226Y10072306D01*
X23771538Y9471345D01*
X24230927Y9011154D01*
X24831453Y8761794D01*
X25481694Y8761226D01*
X26082655Y9009538D01*
X26387721Y9314072D01*
X29518000Y6183793D01*
X29518000Y5863440D01*
X29278000Y5863440D01*
X29042683Y5819162D01*
X28826559Y5680090D01*
X28729090Y5537439D01*
X28665363Y5601278D01*
X28064648Y5850716D01*
X27414205Y5851284D01*
X26813057Y5602894D01*
X26352722Y5143363D01*
X26103284Y4542648D01*
X26102716Y3892205D01*
X26351106Y3291057D01*
X26810637Y2830722D01*
X27411352Y2581284D01*
X28061795Y2580716D01*
X28662943Y2829106D01*
X28729574Y2895621D01*
X28813910Y2764559D01*
X29026110Y2619569D01*
X29278000Y2568560D01*
X31278000Y2568560D01*
X31513317Y2612838D01*
X31729441Y2751910D01*
X31874431Y2964110D01*
X31925440Y3216000D01*
X31925440Y4277185D01*
X34864630Y4277185D01*
X35188980Y3492200D01*
X35789041Y2891091D01*
X36573459Y2565372D01*
X37422815Y2564630D01*
X38207800Y2888980D01*
X38808909Y3489041D01*
X39134628Y4273459D01*
X39135370Y5122815D01*
X38811020Y5907800D01*
X38210959Y6508909D01*
X37426541Y6834628D01*
X36577185Y6835370D01*
X35792200Y6511020D01*
X35191091Y5910959D01*
X34865372Y5126541D01*
X34864630Y4277185D01*
X31925440Y4277185D01*
X31925440Y5216000D01*
X31881162Y5451317D01*
X31742090Y5667441D01*
X31529890Y5812431D01*
X31278000Y5863440D01*
X31038000Y5863440D01*
X31038000Y6398595D01*
X31028054Y6448595D01*
X31038000Y6498595D01*
X30980148Y6789434D01*
X30815401Y7035996D01*
X29086397Y8765000D01*
X33892143Y8765000D01*
X33892143Y12735000D01*
X28107857Y12735000D01*
X28107857Y9743540D01*
X26917996Y10933401D01*
X26671434Y11098148D01*
X26633263Y11105741D01*
X26544462Y11320655D01*
X26085073Y11780846D01*
X25484547Y12030206D01*
X24834306Y12030774D01*
X24233345Y11782462D01*
X23773154Y11323073D01*
X23523794Y10722547D01*
X23523226Y10072306D01*
X22160000Y10072306D01*
X22160000Y13149904D01*
X22324655Y13217938D01*
X22784846Y13677327D01*
X22796721Y13705925D01*
X22807538Y13679745D01*
X23266927Y13219554D01*
X23867453Y12970194D01*
X24517694Y12969626D01*
X25118655Y13217938D01*
X25578846Y13677327D01*
X25589810Y13703730D01*
X25601538Y13675345D01*
X26060927Y13215154D01*
X26661453Y12965794D01*
X27311694Y12965226D01*
X27912655Y13213538D01*
X28372846Y13672927D01*
X28384721Y13701525D01*
X28395538Y13675345D01*
X28854927Y13215154D01*
X29455453Y12965794D01*
X30105694Y12965226D01*
X30706655Y13213538D01*
X31166846Y13672927D01*
X31305667Y14007244D01*
X31307674Y13997152D01*
X31632530Y13510971D01*
X32118711Y13186115D01*
X32692200Y13072041D01*
X33265689Y13186115D01*
X33751870Y13510971D01*
X33962200Y13825752D01*
X34172530Y13510971D01*
X34658711Y13186115D01*
X35232200Y13072041D01*
X35805689Y13186115D01*
X36291870Y13510971D01*
X36616726Y13997152D01*
X36730800Y14570641D01*
X36730800Y14629359D01*
X36616726Y15202848D01*
X36291870Y15689029D01*
X36021028Y15870000D01*
X36291870Y16050971D01*
X36616726Y16537152D01*
X36730800Y17110641D01*
X36730800Y17169359D01*
X36616726Y17742848D01*
X36291870Y18229029D01*
X36021028Y18410000D01*
X36291870Y18590971D01*
X36616726Y19077152D01*
X36730800Y19650641D01*
X36730800Y19709359D01*
X36616726Y20282848D01*
X36291870Y20769029D01*
X36021028Y20950000D01*
X36291870Y21130971D01*
X36616726Y21617152D01*
X36730800Y22190641D01*
X36730800Y22249359D01*
X36616726Y22822848D01*
X36291870Y23309029D01*
X36021028Y23490000D01*
X36291870Y23670971D01*
X36616726Y24157152D01*
X36730800Y24730641D01*
X36730800Y24789359D01*
X36616726Y25362848D01*
X36291870Y25849029D01*
X36021028Y26030000D01*
X36291870Y26210971D01*
X36616726Y26697152D01*
X36730800Y27270641D01*
X36730800Y27329359D01*
X36616726Y27902848D01*
X36291870Y28389029D01*
X36021028Y28570000D01*
X36291870Y28750971D01*
X36616726Y29237152D01*
X36730800Y29810641D01*
X36730800Y29869359D01*
X36616726Y30442848D01*
X36291870Y30929029D01*
X36021028Y31110000D01*
X36291870Y31290971D01*
X36616726Y31777152D01*
X36730800Y32350641D01*
X36730800Y32409359D01*
X36616726Y32982848D01*
X36291870Y33469029D01*
X36021028Y33650000D01*
X36291870Y33830971D01*
X36616726Y34317152D01*
X36730800Y34890641D01*
X36730800Y34949359D01*
X36616726Y35522848D01*
X36291870Y36009029D01*
X36021028Y36190000D01*
X36291870Y36370971D01*
X36616726Y36857152D01*
X36730800Y37430641D01*
X36730800Y37489359D01*
X36616726Y38062848D01*
X36291870Y38549029D01*
X35805689Y38873885D01*
X35232200Y38987959D01*
X34658711Y38873885D01*
X34172530Y38549029D01*
X34163395Y38535358D01*
X34158962Y38558917D01*
X34019890Y38775041D01*
X33807690Y38920031D01*
X33555800Y38971040D01*
X31828600Y38971040D01*
X31593283Y38926762D01*
X31377159Y38787690D01*
X31232169Y38575490D01*
X31181160Y38323600D01*
X31181160Y36596400D01*
X31225438Y36361083D01*
X31364510Y36144959D01*
X31576710Y35999969D01*
X31620545Y35991092D01*
X31307674Y35522848D01*
X31193600Y34949359D01*
X31193600Y34890641D01*
X31307674Y34317152D01*
X31632530Y33830971D01*
X31903372Y33650000D01*
X31632530Y33469029D01*
X31307674Y32982848D01*
X31193600Y32409359D01*
X31193600Y32350641D01*
X31273014Y31951399D01*
X29685411Y31951399D01*
X29394571Y31893547D01*
X29148010Y31728800D01*
X26687099Y29267889D01*
X26443133Y29267889D01*
X26460069Y29308676D01*
X26460551Y29860901D01*
X26249669Y30371274D01*
X26117259Y30503916D01*
X26127095Y30510488D01*
X27576201Y31959594D01*
X27740948Y32206155D01*
X27798800Y32496995D01*
X27798800Y36248487D01*
X27893749Y36185044D01*
X28308800Y36102485D01*
X28723851Y36185044D01*
X28943800Y36332009D01*
X29163749Y36185044D01*
X29578800Y36102485D01*
X29993851Y36185044D01*
X30345714Y36420151D01*
X30580821Y36772014D01*
X30663380Y37187065D01*
X30663380Y37843335D01*
X30580821Y38258386D01*
X30345714Y38610249D01*
X29993851Y38845356D01*
X29578800Y38927915D01*
X29163749Y38845356D01*
X28943800Y38698391D01*
X28723851Y38845356D01*
X28308800Y38927915D01*
X27893749Y38845356D01*
X27673800Y38698391D01*
X27453851Y38845356D01*
X27038800Y38927915D01*
X26623749Y38845356D01*
X26271886Y38610249D01*
X26036779Y38258386D01*
X25954220Y37843335D01*
X25954220Y37187065D01*
X26036779Y36772014D01*
X26271886Y36420151D01*
X26278800Y36415531D01*
X26278800Y32854183D01*
X26045972Y32920166D01*
X25251805Y32126000D01*
X25265948Y32111857D01*
X25086343Y31932252D01*
X25072200Y31946395D01*
X25058058Y31932252D01*
X24878453Y32111857D01*
X24892595Y32126000D01*
X24098428Y32920166D01*
X23857165Y32851793D01*
X23800265Y32692015D01*
X23709669Y32911274D01*
X23521500Y33099772D01*
X24278034Y33099772D01*
X25072200Y32305605D01*
X25866366Y33099772D01*
X25797993Y33341035D01*
X25277772Y33526296D01*
X24726254Y33498373D01*
X24346407Y33341035D01*
X24278034Y33099772D01*
X23521500Y33099772D01*
X23319528Y33302096D01*
X22809524Y33513869D01*
X22693387Y33513970D01*
X22693551Y33702599D01*
X22536314Y34083143D01*
X22502154Y34117362D01*
X24366403Y35981611D01*
X24397200Y35975485D01*
X24812251Y36058044D01*
X25164114Y36293151D01*
X25399221Y36645014D01*
X25481780Y37060065D01*
X25481780Y37716335D01*
X25399221Y38131386D01*
X25164114Y38483249D01*
X24812251Y38718356D01*
X24397200Y38800915D01*
X23982149Y38718356D01*
X23762200Y38571391D01*
X23542251Y38718356D01*
X23127200Y38800915D01*
X22712149Y38718356D01*
X22492200Y38571391D01*
X22272251Y38718356D01*
X21857200Y38800915D01*
X21442149Y38718356D01*
X21090286Y38483249D01*
X20855179Y38131386D01*
X20772620Y37716335D01*
X20772620Y37060065D01*
X20855179Y36645014D01*
X21090286Y36293151D01*
X21191026Y36225838D01*
X20795188Y35830000D01*
X15630000Y35830000D01*
X15339161Y35772148D01*
X15092599Y35607401D01*
X13721798Y34236600D01*
X12845461Y34236600D01*
X12728746Y34353519D01*
X12348477Y34511420D01*
X11936729Y34511779D01*
X11556185Y34354542D01*
X11264781Y34063646D01*
X11106880Y33683377D01*
X11106521Y33271629D01*
X11263758Y32891085D01*
X11554654Y32599681D01*
X11934923Y32441780D01*
X12346671Y32441421D01*
X12727215Y32598658D01*
X12845363Y32716600D01*
X13654415Y32716600D01*
X13524331Y32403324D01*
X13523849Y31851099D01*
X13535149Y31823751D01*
X8714765Y27003367D01*
X8626669Y27173000D01*
X7419200Y27173000D01*
X7419200Y27153000D01*
X7165200Y27153000D01*
X7165200Y27173000D01*
X4879200Y27173000D01*
X4879200Y24887000D01*
X4899200Y24887000D01*
X4899200Y24633000D01*
X4879200Y24633000D01*
X4879200Y24613000D01*
X4625200Y24613000D01*
X4625200Y24633000D01*
X3417731Y24633000D01*
X3297232Y24400973D01*
X3545379Y23871510D01*
X3963361Y23489992D01*
X3692530Y23309029D01*
X3367674Y22822848D01*
X3253600Y22249359D01*
X710000Y22249359D01*
X710000Y26940973D01*
X3297232Y26940973D01*
X3545379Y26411510D01*
X3963352Y26030000D01*
X3545379Y25648490D01*
X3297232Y25119027D01*
X3417731Y24887000D01*
X4625200Y24887000D01*
X4625200Y27173000D01*
X3417731Y27173000D01*
X3297232Y26940973D01*
X710000Y26940973D01*
X710000Y37930069D01*
X788277Y38323600D01*
X3241160Y38323600D01*
X3241160Y36596400D01*
X3285438Y36361083D01*
X3424510Y36144959D01*
X3636710Y35999969D01*
X3680545Y35991092D01*
X3367674Y35522848D01*
X3253600Y34949359D01*
X3253600Y34890641D01*
X3367674Y34317152D01*
X3692530Y33830971D01*
X3963372Y33650000D01*
X3692530Y33469029D01*
X3367674Y32982848D01*
X3253600Y32409359D01*
X3253600Y32350641D01*
X3367674Y31777152D01*
X3692530Y31290971D01*
X3963372Y31110000D01*
X3692530Y30929029D01*
X3367674Y30442848D01*
X3253600Y29869359D01*
X3253600Y29810641D01*
X3367674Y29237152D01*
X3692530Y28750971D01*
X3963361Y28570008D01*
X3545379Y28188490D01*
X3297232Y27659027D01*
X3417731Y27427000D01*
X4625200Y27427000D01*
X4625200Y27447000D01*
X4879200Y27447000D01*
X4879200Y27427000D01*
X7165200Y27427000D01*
X7165200Y27447000D01*
X7419200Y27447000D01*
X7419200Y27427000D01*
X8626669Y27427000D01*
X8747168Y27659027D01*
X8499021Y28188490D01*
X8081039Y28570008D01*
X8351870Y28750971D01*
X8676726Y29237152D01*
X8790800Y29810641D01*
X8790800Y29869359D01*
X8676726Y30442848D01*
X8351870Y30929029D01*
X8081039Y31109992D01*
X8499021Y31491510D01*
X8747168Y32020973D01*
X8626669Y32253000D01*
X7419200Y32253000D01*
X7419200Y32233000D01*
X7165200Y32233000D01*
X7165200Y32253000D01*
X7145200Y32253000D01*
X7145200Y32507000D01*
X7165200Y32507000D01*
X7165200Y34793000D01*
X7419200Y34793000D01*
X7419200Y32507000D01*
X8626669Y32507000D01*
X8747168Y32739027D01*
X8499021Y33268490D01*
X8081048Y33650000D01*
X8499021Y34031510D01*
X8747168Y34560973D01*
X8626669Y34793000D01*
X7419200Y34793000D01*
X7165200Y34793000D01*
X7145200Y34793000D01*
X7145200Y35047000D01*
X7165200Y35047000D01*
X7165200Y35067000D01*
X7419200Y35067000D01*
X7419200Y35047000D01*
X8626669Y35047000D01*
X8747168Y35279027D01*
X8499021Y35808490D01*
X8081039Y36190008D01*
X8351870Y36370971D01*
X8676726Y36857152D01*
X8790800Y37430641D01*
X8790800Y37489359D01*
X8676726Y38062848D01*
X8372269Y38518500D01*
X9144760Y38518500D01*
X9144760Y36486500D01*
X9189038Y36251183D01*
X9328110Y36035059D01*
X9540310Y35890069D01*
X9792200Y35839060D01*
X11824200Y35839060D01*
X12059517Y35883338D01*
X12275641Y36022410D01*
X12387040Y36185448D01*
X12483382Y36096115D01*
X12965256Y35896525D01*
X13221200Y36015664D01*
X13221200Y37375500D01*
X13475200Y37375500D01*
X13475200Y36015664D01*
X13731144Y35896525D01*
X14213018Y36096115D01*
X14685388Y36534121D01*
X14954183Y37119554D01*
X14835567Y37375500D01*
X13475200Y37375500D01*
X13221200Y37375500D01*
X13201200Y37375500D01*
X13201200Y37629500D01*
X13221200Y37629500D01*
X13221200Y38989336D01*
X12965256Y39108475D01*
X12483382Y38908885D01*
X12385802Y38818403D01*
X12288290Y38969941D01*
X12076090Y39114931D01*
X11824200Y39165940D01*
X9792200Y39165940D01*
X9556883Y39121662D01*
X9340759Y38982590D01*
X9195769Y38770390D01*
X9144760Y38518500D01*
X8372269Y38518500D01*
X8351870Y38549029D01*
X7865689Y38873885D01*
X7292200Y38987959D01*
X6718711Y38873885D01*
X6232530Y38549029D01*
X6223395Y38535358D01*
X6218962Y38558917D01*
X6079890Y38775041D01*
X5867690Y38920031D01*
X5615800Y38971040D01*
X3888600Y38971040D01*
X3653283Y38926762D01*
X3437159Y38787690D01*
X3292169Y38575490D01*
X3241160Y38323600D01*
X788277Y38323600D01*
X821046Y38488338D01*
X1097669Y38902333D01*
X1511660Y39178953D01*
X2069931Y39290000D01*
X15004777Y39290000D01*
X14942856Y39228187D01*
X14942856Y39228187D01*
G37*
X14942856Y39228187D02*
X14731471Y38719116D01*
X14731167Y38371172D01*
X14685388Y38470879D01*
X14213018Y38908885D01*
X13731144Y39108475D01*
X13475200Y38989336D01*
X13475200Y37629500D01*
X14835567Y37629500D01*
X14897889Y37763976D01*
X14941486Y37658463D01*
X15330913Y37268356D01*
X15839984Y37056971D01*
X16391198Y37056490D01*
X16900637Y37266986D01*
X17104376Y37470370D01*
X17864475Y37470370D01*
X17932535Y37229369D01*
X18451834Y37044533D01*
X19002338Y37072495D01*
X19381065Y37229369D01*
X19449125Y37470370D01*
X18656800Y38262695D01*
X17864475Y37470370D01*
X17104376Y37470370D01*
X17290744Y37656413D01*
X17380179Y37871796D01*
X17443869Y37718035D01*
X17684870Y37649975D01*
X18477195Y38442300D01*
X18463053Y38456442D01*
X18642658Y38636047D01*
X18656800Y38621905D01*
X18670943Y38636047D01*
X18850548Y38456442D01*
X18836405Y38442300D01*
X19628730Y37649975D01*
X19869731Y37718035D01*
X20054567Y38237334D01*
X20026605Y38787838D01*
X19869731Y39166565D01*
X19628732Y39234624D01*
X19684108Y39290000D01*
X37930069Y39290000D01*
X38488338Y39178954D01*
X38902333Y38902331D01*
X39178953Y38488340D01*
X39290000Y37930069D01*
X39290000Y2069931D01*
X39178953Y1511660D01*
X38902333Y1097669D01*
X38488338Y821046D01*
X37930069Y710000D01*
X2069931Y710000D01*
X1511660Y821047D01*
X1097669Y1097667D01*
X821046Y1511662D01*
X710000Y2069931D01*
X710000Y4277185D01*
X864630Y4277185D01*
X1188980Y3492200D01*
X1789041Y2891091D01*
X2573459Y2565372D01*
X3422815Y2564630D01*
X4207800Y2888980D01*
X4808909Y3489041D01*
X5134628Y4273459D01*
X5135370Y5122815D01*
X4811020Y5907800D01*
X4210959Y6508909D01*
X3426541Y6834628D01*
X2577185Y6835370D01*
X1792200Y6511020D01*
X1191091Y5910959D01*
X865372Y5126541D01*
X864630Y4277185D01*
X710000Y4277185D01*
X710000Y9125602D01*
X5274190Y9125602D01*
X5484686Y8616163D01*
X5874113Y8226056D01*
X6383184Y8014671D01*
X6934398Y8014190D01*
X7443837Y8224686D01*
X7647576Y8428070D01*
X8407675Y8428070D01*
X8475735Y8187069D01*
X8995034Y8002233D01*
X9545538Y8030195D01*
X9924265Y8187069D01*
X9992325Y8428070D01*
X9200000Y9220395D01*
X8407675Y8428070D01*
X7647576Y8428070D01*
X7833944Y8614113D01*
X7923379Y8829496D01*
X7987069Y8675735D01*
X8228070Y8607675D01*
X9020395Y9400000D01*
X9379605Y9400000D01*
X10171930Y8607675D01*
X10412931Y8675735D01*
X10597767Y9195034D01*
X10569805Y9745538D01*
X10412931Y10124265D01*
X10171930Y10192325D01*
X9379605Y9400000D01*
X9020395Y9400000D01*
X8228070Y10192325D01*
X7987069Y10124265D01*
X7928231Y9958960D01*
X7835314Y10183837D01*
X7647549Y10371930D01*
X8407675Y10371930D01*
X9200000Y9579605D01*
X9992325Y10371930D01*
X9924265Y10612931D01*
X9404966Y10797767D01*
X8854462Y10769805D01*
X8475735Y10612931D01*
X8407675Y10371930D01*
X7647549Y10371930D01*
X7445887Y10573944D01*
X6936816Y10785329D01*
X6385602Y10785810D01*
X5876163Y10575314D01*
X5486056Y10185887D01*
X5274671Y9676816D01*
X5274190Y9125602D01*
X710000Y9125602D01*
X710000Y22249359D01*
X3253600Y22249359D01*
X3253600Y22190641D01*
X3367674Y21617152D01*
X3692530Y21130971D01*
X3963372Y20950000D01*
X3692530Y20769029D01*
X3367674Y20282848D01*
X3253600Y19709359D01*
X3253600Y19650641D01*
X3367674Y19077152D01*
X3692530Y18590971D01*
X3963372Y18410000D01*
X3692530Y18229029D01*
X3367674Y17742848D01*
X3253600Y17169359D01*
X3253600Y17110641D01*
X3367674Y16537152D01*
X3692530Y16050971D01*
X3963372Y15870000D01*
X3692530Y15689029D01*
X3367674Y15202848D01*
X3253600Y14629359D01*
X3253600Y14570641D01*
X3367674Y13997152D01*
X3692530Y13510971D01*
X4178711Y13186115D01*
X4752200Y13072041D01*
X5325689Y13186115D01*
X5811870Y13510971D01*
X5948198Y13715000D01*
X6096202Y13715000D01*
X6232530Y13510971D01*
X6718711Y13186115D01*
X7292200Y13072041D01*
X7865689Y13186115D01*
X8351870Y13510971D01*
X8676726Y13997152D01*
X8690608Y14066942D01*
X8837538Y13711345D01*
X9296927Y13251154D01*
X9897453Y13001794D01*
X10547694Y13001226D01*
X11148655Y13249538D01*
X11608846Y13708927D01*
X11613702Y13720622D01*
X11865837Y13627443D01*
X12838395Y14600000D01*
X11865837Y15572557D01*
X11640025Y15489106D01*
X11610462Y15560655D01*
X11193844Y15978000D01*
X12128903Y15978000D01*
X12045443Y15752163D01*
X13018000Y14779605D01*
X13990557Y15752163D01*
X13891958Y16018965D01*
X13827437Y16042934D01*
X14063401Y16200599D01*
X14499544Y16636742D01*
X14642954Y16493081D01*
X15023223Y16335180D01*
X15434971Y16334821D01*
X15815515Y16492058D01*
X16106919Y16782954D01*
X16264820Y17163223D01*
X16264966Y17330164D01*
X17316883Y18382081D01*
X17316821Y18311029D01*
X17474058Y17930485D01*
X17764954Y17639081D01*
X18145223Y17481180D01*
X18556971Y17480821D01*
X18937515Y17638058D01*
X19228919Y17928954D01*
X19386820Y18309223D01*
X19386966Y18476164D01*
X24040845Y23130043D01*
X24517694Y23129626D01*
X25118655Y23377938D01*
X25578846Y23837327D01*
X25589810Y23863730D01*
X25601538Y23835345D01*
X26060927Y23375154D01*
X26661453Y23125794D01*
X27311694Y23125226D01*
X27912655Y23373538D01*
X28372846Y23832927D01*
X28384721Y23861525D01*
X28395538Y23835345D01*
X28854927Y23375154D01*
X29455453Y23125794D01*
X30105694Y23125226D01*
X30706655Y23373538D01*
X31166846Y23832927D01*
X31305667Y24167244D01*
X31307674Y24157152D01*
X31632530Y23670971D01*
X31903372Y23490000D01*
X31632530Y23309029D01*
X31307674Y22822848D01*
X31193600Y22249359D01*
X31193600Y22190641D01*
X31307674Y21617152D01*
X31632530Y21130971D01*
X31903372Y20950000D01*
X31632530Y20769029D01*
X31307674Y20282848D01*
X31193600Y19709359D01*
X31193600Y19650641D01*
X31307674Y19077152D01*
X31632530Y18590971D01*
X31903372Y18410000D01*
X31632530Y18229029D01*
X31307674Y17742848D01*
X31193600Y17169359D01*
X31193600Y17110641D01*
X31307674Y16537152D01*
X31632530Y16050971D01*
X31903372Y15870000D01*
X31632530Y15689029D01*
X31307674Y15202848D01*
X31305645Y15192647D01*
X31168462Y15524655D01*
X30709073Y15984846D01*
X30108547Y16234206D01*
X29458306Y16234774D01*
X28857345Y15986462D01*
X28397154Y15527073D01*
X28385279Y15498475D01*
X28374462Y15524655D01*
X27915073Y15984846D01*
X27314547Y16234206D01*
X26664306Y16234774D01*
X26063345Y15986462D01*
X25603154Y15527073D01*
X25592190Y15500670D01*
X25580462Y15529055D01*
X25121073Y15989246D01*
X24520547Y16238606D01*
X23870306Y16239174D01*
X23269345Y15990862D01*
X22809154Y15531473D01*
X22797279Y15502875D01*
X22786462Y15529055D01*
X22327073Y15989246D01*
X21726547Y16238606D01*
X21076306Y16239174D01*
X20475345Y15990862D01*
X20015154Y15531473D01*
X20002368Y15500681D01*
X19992462Y15524655D01*
X19533073Y15984846D01*
X18932547Y16234206D01*
X18282306Y16234774D01*
X17681345Y15986462D01*
X17221154Y15527073D01*
X17209279Y15498475D01*
X17198462Y15524655D01*
X16739073Y15984846D01*
X16138547Y16234206D01*
X15488306Y16234774D01*
X14887345Y15986462D01*
X14427154Y15527073D01*
X14409338Y15484168D01*
X14170163Y15572557D01*
X13197605Y14600000D01*
X13211748Y14585858D01*
X13032142Y14406252D01*
X13018000Y14420395D01*
X12045443Y13447837D01*
X12144042Y13181035D01*
X12753582Y12954599D01*
X13104802Y12967604D01*
X11740599Y11603401D01*
X11575852Y11356839D01*
X11518000Y11066000D01*
X11518000Y5863440D01*
X11278000Y5863440D01*
X11042683Y5819162D01*
X10826559Y5680090D01*
X10729090Y5537439D01*
X10665363Y5601278D01*
X10064648Y5850716D01*
X9414205Y5851284D01*
X8813057Y5602894D01*
X8352722Y5143363D01*
X8103284Y4542648D01*
X8102716Y3892205D01*
X8351106Y3291057D01*
X8810637Y2830722D01*
X9411352Y2581284D01*
X10061795Y2580716D01*
X10662943Y2829106D01*
X10729574Y2895621D01*
X10813910Y2764559D01*
X11026110Y2619569D01*
X11278000Y2568560D01*
X13278000Y2568560D01*
X13513317Y2612838D01*
X13729441Y2751910D01*
X13874431Y2964110D01*
X13925440Y3216000D01*
X13925440Y5216000D01*
X13881162Y5451317D01*
X13742090Y5667441D01*
X13529890Y5812431D01*
X13278000Y5863440D01*
X13038000Y5863440D01*
X13038000Y9243837D01*
X14025443Y9243837D01*
X14124042Y8977035D01*
X14733582Y8750599D01*
X15383377Y8774659D01*
X15871958Y8977035D01*
X15970557Y9243837D01*
X14998000Y10216395D01*
X14025443Y9243837D01*
X13038000Y9243837D01*
X13038000Y10751198D01*
X13750597Y11463795D01*
X13845836Y11368556D01*
X13579035Y11269958D01*
X13352599Y10660418D01*
X13376659Y10010623D01*
X13579035Y9522042D01*
X13845837Y9423443D01*
X14818395Y10396000D01*
X15177605Y10396000D01*
X16150163Y9423443D01*
X16416965Y9522042D01*
X16643401Y10131582D01*
X16619341Y10781377D01*
X16416965Y11269958D01*
X16150163Y11368557D01*
X15177605Y10396000D01*
X14818395Y10396000D01*
X14804252Y10410142D01*
X14983858Y10589748D01*
X14998000Y10575605D01*
X15970557Y11548163D01*
X15871958Y11814965D01*
X15262418Y12041401D01*
X14612623Y12017341D01*
X14124042Y11814965D01*
X14025444Y11548164D01*
X13930205Y11643403D01*
X15320917Y13034115D01*
X15485453Y12965794D01*
X16135694Y12965226D01*
X16736655Y13213538D01*
X17196846Y13672927D01*
X17208721Y13701525D01*
X17219538Y13675345D01*
X17678927Y13215154D01*
X17846000Y13145779D01*
X17846000Y5863440D01*
X17278000Y5863440D01*
X17042683Y5819162D01*
X16826559Y5680090D01*
X16729090Y5537439D01*
X16665363Y5601278D01*
X16064648Y5850716D01*
X15414205Y5851284D01*
X14813057Y5602894D01*
X14352722Y5143363D01*
X14103284Y4542648D01*
X14102716Y3892205D01*
X14351106Y3291057D01*
X14810637Y2830722D01*
X15411352Y2581284D01*
X16061795Y2580716D01*
X16662943Y2829106D01*
X16729574Y2895621D01*
X16813910Y2764559D01*
X17026110Y2619569D01*
X17278000Y2568560D01*
X19278000Y2568560D01*
X19513317Y2612838D01*
X19729441Y2751910D01*
X19874431Y2964110D01*
X19925440Y3216000D01*
X19925440Y5216000D01*
X19881162Y5451317D01*
X19742090Y5667441D01*
X19529890Y5812431D01*
X19366000Y5845620D01*
X19366000Y13145504D01*
X19530655Y13213538D01*
X19990846Y13672927D01*
X20003632Y13703719D01*
X20013538Y13679745D01*
X20472927Y13219554D01*
X20640000Y13150179D01*
X20640000Y8384000D01*
X20697852Y8093161D01*
X20862599Y7846599D01*
X22965464Y5743734D01*
X22866559Y5680090D01*
X22769090Y5537439D01*
X22705363Y5601278D01*
X22104648Y5850716D01*
X21454205Y5851284D01*
X20853057Y5602894D01*
X20392722Y5143363D01*
X20143284Y4542648D01*
X20142716Y3892205D01*
X20391106Y3291057D01*
X20850637Y2830722D01*
X21451352Y2581284D01*
X22101795Y2580716D01*
X22702943Y2829106D01*
X22769574Y2895621D01*
X22853910Y2764559D01*
X23066110Y2619569D01*
X23318000Y2568560D01*
X25318000Y2568560D01*
X25553317Y2612838D01*
X25769441Y2751910D01*
X25914431Y2964110D01*
X25965440Y3216000D01*
X25965440Y5216000D01*
X25921162Y5451317D01*
X25782090Y5667441D01*
X25569890Y5812431D01*
X25318000Y5863440D01*
X24948920Y5863440D01*
X24855401Y6003401D01*
X22160000Y8698802D01*
X22160000Y10072306D01*
X23523226Y10072306D01*
X23771538Y9471345D01*
X24230927Y9011154D01*
X24831453Y8761794D01*
X25481694Y8761226D01*
X26082655Y9009538D01*
X26387721Y9314072D01*
X29518000Y6183793D01*
X29518000Y5863440D01*
X29278000Y5863440D01*
X29042683Y5819162D01*
X28826559Y5680090D01*
X28729090Y5537439D01*
X28665363Y5601278D01*
X28064648Y5850716D01*
X27414205Y5851284D01*
X26813057Y5602894D01*
X26352722Y5143363D01*
X26103284Y4542648D01*
X26102716Y3892205D01*
X26351106Y3291057D01*
X26810637Y2830722D01*
X27411352Y2581284D01*
X28061795Y2580716D01*
X28662943Y2829106D01*
X28729574Y2895621D01*
X28813910Y2764559D01*
X29026110Y2619569D01*
X29278000Y2568560D01*
X31278000Y2568560D01*
X31513317Y2612838D01*
X31729441Y2751910D01*
X31874431Y2964110D01*
X31925440Y3216000D01*
X31925440Y4277185D01*
X34864630Y4277185D01*
X35188980Y3492200D01*
X35789041Y2891091D01*
X36573459Y2565372D01*
X37422815Y2564630D01*
X38207800Y2888980D01*
X38808909Y3489041D01*
X39134628Y4273459D01*
X39135370Y5122815D01*
X38811020Y5907800D01*
X38210959Y6508909D01*
X37426541Y6834628D01*
X36577185Y6835370D01*
X35792200Y6511020D01*
X35191091Y5910959D01*
X34865372Y5126541D01*
X34864630Y4277185D01*
X31925440Y4277185D01*
X31925440Y5216000D01*
X31881162Y5451317D01*
X31742090Y5667441D01*
X31529890Y5812431D01*
X31278000Y5863440D01*
X31038000Y5863440D01*
X31038000Y6398595D01*
X31028054Y6448595D01*
X31038000Y6498595D01*
X30980148Y6789434D01*
X30815401Y7035996D01*
X29086397Y8765000D01*
X33892143Y8765000D01*
X33892143Y12735000D01*
X28107857Y12735000D01*
X28107857Y9743540D01*
X26917996Y10933401D01*
X26671434Y11098148D01*
X26633263Y11105741D01*
X26544462Y11320655D01*
X26085073Y11780846D01*
X25484547Y12030206D01*
X24834306Y12030774D01*
X24233345Y11782462D01*
X23773154Y11323073D01*
X23523794Y10722547D01*
X23523226Y10072306D01*
X22160000Y10072306D01*
X22160000Y13149904D01*
X22324655Y13217938D01*
X22784846Y13677327D01*
X22796721Y13705925D01*
X22807538Y13679745D01*
X23266927Y13219554D01*
X23867453Y12970194D01*
X24517694Y12969626D01*
X25118655Y13217938D01*
X25578846Y13677327D01*
X25589810Y13703730D01*
X25601538Y13675345D01*
X26060927Y13215154D01*
X26661453Y12965794D01*
X27311694Y12965226D01*
X27912655Y13213538D01*
X28372846Y13672927D01*
X28384721Y13701525D01*
X28395538Y13675345D01*
X28854927Y13215154D01*
X29455453Y12965794D01*
X30105694Y12965226D01*
X30706655Y13213538D01*
X31166846Y13672927D01*
X31305667Y14007244D01*
X31307674Y13997152D01*
X31632530Y13510971D01*
X32118711Y13186115D01*
X32692200Y13072041D01*
X33265689Y13186115D01*
X33751870Y13510971D01*
X33962200Y13825752D01*
X34172530Y13510971D01*
X34658711Y13186115D01*
X35232200Y13072041D01*
X35805689Y13186115D01*
X36291870Y13510971D01*
X36616726Y13997152D01*
X36730800Y14570641D01*
X36730800Y14629359D01*
X36616726Y15202848D01*
X36291870Y15689029D01*
X36021028Y15870000D01*
X36291870Y16050971D01*
X36616726Y16537152D01*
X36730800Y17110641D01*
X36730800Y17169359D01*
X36616726Y17742848D01*
X36291870Y18229029D01*
X36021028Y18410000D01*
X36291870Y18590971D01*
X36616726Y19077152D01*
X36730800Y19650641D01*
X36730800Y19709359D01*
X36616726Y20282848D01*
X36291870Y20769029D01*
X36021028Y20950000D01*
X36291870Y21130971D01*
X36616726Y21617152D01*
X36730800Y22190641D01*
X36730800Y22249359D01*
X36616726Y22822848D01*
X36291870Y23309029D01*
X36021028Y23490000D01*
X36291870Y23670971D01*
X36616726Y24157152D01*
X36730800Y24730641D01*
X36730800Y24789359D01*
X36616726Y25362848D01*
X36291870Y25849029D01*
X36021028Y26030000D01*
X36291870Y26210971D01*
X36616726Y26697152D01*
X36730800Y27270641D01*
X36730800Y27329359D01*
X36616726Y27902848D01*
X36291870Y28389029D01*
X36021028Y28570000D01*
X36291870Y28750971D01*
X36616726Y29237152D01*
X36730800Y29810641D01*
X36730800Y29869359D01*
X36616726Y30442848D01*
X36291870Y30929029D01*
X36021028Y31110000D01*
X36291870Y31290971D01*
X36616726Y31777152D01*
X36730800Y32350641D01*
X36730800Y32409359D01*
X36616726Y32982848D01*
X36291870Y33469029D01*
X36021028Y33650000D01*
X36291870Y33830971D01*
X36616726Y34317152D01*
X36730800Y34890641D01*
X36730800Y34949359D01*
X36616726Y35522848D01*
X36291870Y36009029D01*
X36021028Y36190000D01*
X36291870Y36370971D01*
X36616726Y36857152D01*
X36730800Y37430641D01*
X36730800Y37489359D01*
X36616726Y38062848D01*
X36291870Y38549029D01*
X35805689Y38873885D01*
X35232200Y38987959D01*
X34658711Y38873885D01*
X34172530Y38549029D01*
X34163395Y38535358D01*
X34158962Y38558917D01*
X34019890Y38775041D01*
X33807690Y38920031D01*
X33555800Y38971040D01*
X31828600Y38971040D01*
X31593283Y38926762D01*
X31377159Y38787690D01*
X31232169Y38575490D01*
X31181160Y38323600D01*
X31181160Y36596400D01*
X31225438Y36361083D01*
X31364510Y36144959D01*
X31576710Y35999969D01*
X31620545Y35991092D01*
X31307674Y35522848D01*
X31193600Y34949359D01*
X31193600Y34890641D01*
X31307674Y34317152D01*
X31632530Y33830971D01*
X31903372Y33650000D01*
X31632530Y33469029D01*
X31307674Y32982848D01*
X31193600Y32409359D01*
X31193600Y32350641D01*
X31273014Y31951399D01*
X29685411Y31951399D01*
X29394571Y31893547D01*
X29148010Y31728800D01*
X26687099Y29267889D01*
X26443133Y29267889D01*
X26460069Y29308676D01*
X26460551Y29860901D01*
X26249669Y30371274D01*
X26117259Y30503916D01*
X26127095Y30510488D01*
X27576201Y31959594D01*
X27740948Y32206155D01*
X27798800Y32496995D01*
X27798800Y36248487D01*
X27893749Y36185044D01*
X28308800Y36102485D01*
X28723851Y36185044D01*
X28943800Y36332009D01*
X29163749Y36185044D01*
X29578800Y36102485D01*
X29993851Y36185044D01*
X30345714Y36420151D01*
X30580821Y36772014D01*
X30663380Y37187065D01*
X30663380Y37843335D01*
X30580821Y38258386D01*
X30345714Y38610249D01*
X29993851Y38845356D01*
X29578800Y38927915D01*
X29163749Y38845356D01*
X28943800Y38698391D01*
X28723851Y38845356D01*
X28308800Y38927915D01*
X27893749Y38845356D01*
X27673800Y38698391D01*
X27453851Y38845356D01*
X27038800Y38927915D01*
X26623749Y38845356D01*
X26271886Y38610249D01*
X26036779Y38258386D01*
X25954220Y37843335D01*
X25954220Y37187065D01*
X26036779Y36772014D01*
X26271886Y36420151D01*
X26278800Y36415531D01*
X26278800Y32854183D01*
X26045972Y32920166D01*
X25251805Y32126000D01*
X25265948Y32111857D01*
X25086343Y31932252D01*
X25072200Y31946395D01*
X25058058Y31932252D01*
X24878453Y32111857D01*
X24892595Y32126000D01*
X24098428Y32920166D01*
X23857165Y32851793D01*
X23800265Y32692015D01*
X23709669Y32911274D01*
X23521500Y33099772D01*
X24278034Y33099772D01*
X25072200Y32305605D01*
X25866366Y33099772D01*
X25797993Y33341035D01*
X25277772Y33526296D01*
X24726254Y33498373D01*
X24346407Y33341035D01*
X24278034Y33099772D01*
X23521500Y33099772D01*
X23319528Y33302096D01*
X22809524Y33513869D01*
X22693387Y33513970D01*
X22693551Y33702599D01*
X22536314Y34083143D01*
X22502154Y34117362D01*
X24366403Y35981611D01*
X24397200Y35975485D01*
X24812251Y36058044D01*
X25164114Y36293151D01*
X25399221Y36645014D01*
X25481780Y37060065D01*
X25481780Y37716335D01*
X25399221Y38131386D01*
X25164114Y38483249D01*
X24812251Y38718356D01*
X24397200Y38800915D01*
X23982149Y38718356D01*
X23762200Y38571391D01*
X23542251Y38718356D01*
X23127200Y38800915D01*
X22712149Y38718356D01*
X22492200Y38571391D01*
X22272251Y38718356D01*
X21857200Y38800915D01*
X21442149Y38718356D01*
X21090286Y38483249D01*
X20855179Y38131386D01*
X20772620Y37716335D01*
X20772620Y37060065D01*
X20855179Y36645014D01*
X21090286Y36293151D01*
X21191026Y36225838D01*
X20795188Y35830000D01*
X15630000Y35830000D01*
X15339161Y35772148D01*
X15092599Y35607401D01*
X13721798Y34236600D01*
X12845461Y34236600D01*
X12728746Y34353519D01*
X12348477Y34511420D01*
X11936729Y34511779D01*
X11556185Y34354542D01*
X11264781Y34063646D01*
X11106880Y33683377D01*
X11106521Y33271629D01*
X11263758Y32891085D01*
X11554654Y32599681D01*
X11934923Y32441780D01*
X12346671Y32441421D01*
X12727215Y32598658D01*
X12845363Y32716600D01*
X13654415Y32716600D01*
X13524331Y32403324D01*
X13523849Y31851099D01*
X13535149Y31823751D01*
X8714765Y27003367D01*
X8626669Y27173000D01*
X7419200Y27173000D01*
X7419200Y27153000D01*
X7165200Y27153000D01*
X7165200Y27173000D01*
X4879200Y27173000D01*
X4879200Y24887000D01*
X4899200Y24887000D01*
X4899200Y24633000D01*
X4879200Y24633000D01*
X4879200Y24613000D01*
X4625200Y24613000D01*
X4625200Y24633000D01*
X3417731Y24633000D01*
X3297232Y24400973D01*
X3545379Y23871510D01*
X3963361Y23489992D01*
X3692530Y23309029D01*
X3367674Y22822848D01*
X3253600Y22249359D01*
X710000Y22249359D01*
X710000Y26940973D01*
X3297232Y26940973D01*
X3545379Y26411510D01*
X3963352Y26030000D01*
X3545379Y25648490D01*
X3297232Y25119027D01*
X3417731Y24887000D01*
X4625200Y24887000D01*
X4625200Y27173000D01*
X3417731Y27173000D01*
X3297232Y26940973D01*
X710000Y26940973D01*
X710000Y37930069D01*
X788277Y38323600D01*
X3241160Y38323600D01*
X3241160Y36596400D01*
X3285438Y36361083D01*
X3424510Y36144959D01*
X3636710Y35999969D01*
X3680545Y35991092D01*
X3367674Y35522848D01*
X3253600Y34949359D01*
X3253600Y34890641D01*
X3367674Y34317152D01*
X3692530Y33830971D01*
X3963372Y33650000D01*
X3692530Y33469029D01*
X3367674Y32982848D01*
X3253600Y32409359D01*
X3253600Y32350641D01*
X3367674Y31777152D01*
X3692530Y31290971D01*
X3963372Y31110000D01*
X3692530Y30929029D01*
X3367674Y30442848D01*
X3253600Y29869359D01*
X3253600Y29810641D01*
X3367674Y29237152D01*
X3692530Y28750971D01*
X3963361Y28570008D01*
X3545379Y28188490D01*
X3297232Y27659027D01*
X3417731Y27427000D01*
X4625200Y27427000D01*
X4625200Y27447000D01*
X4879200Y27447000D01*
X4879200Y27427000D01*
X7165200Y27427000D01*
X7165200Y27447000D01*
X7419200Y27447000D01*
X7419200Y27427000D01*
X8626669Y27427000D01*
X8747168Y27659027D01*
X8499021Y28188490D01*
X8081039Y28570008D01*
X8351870Y28750971D01*
X8676726Y29237152D01*
X8790800Y29810641D01*
X8790800Y29869359D01*
X8676726Y30442848D01*
X8351870Y30929029D01*
X8081039Y31109992D01*
X8499021Y31491510D01*
X8747168Y32020973D01*
X8626669Y32253000D01*
X7419200Y32253000D01*
X7419200Y32233000D01*
X7165200Y32233000D01*
X7165200Y32253000D01*
X7145200Y32253000D01*
X7145200Y32507000D01*
X7165200Y32507000D01*
X7165200Y34793000D01*
X7419200Y34793000D01*
X7419200Y32507000D01*
X8626669Y32507000D01*
X8747168Y32739027D01*
X8499021Y33268490D01*
X8081048Y33650000D01*
X8499021Y34031510D01*
X8747168Y34560973D01*
X8626669Y34793000D01*
X7419200Y34793000D01*
X7165200Y34793000D01*
X7145200Y34793000D01*
X7145200Y35047000D01*
X7165200Y35047000D01*
X7165200Y35067000D01*
X7419200Y35067000D01*
X7419200Y35047000D01*
X8626669Y35047000D01*
X8747168Y35279027D01*
X8499021Y35808490D01*
X8081039Y36190008D01*
X8351870Y36370971D01*
X8676726Y36857152D01*
X8790800Y37430641D01*
X8790800Y37489359D01*
X8676726Y38062848D01*
X8372269Y38518500D01*
X9144760Y38518500D01*
X9144760Y36486500D01*
X9189038Y36251183D01*
X9328110Y36035059D01*
X9540310Y35890069D01*
X9792200Y35839060D01*
X11824200Y35839060D01*
X12059517Y35883338D01*
X12275641Y36022410D01*
X12387040Y36185448D01*
X12483382Y36096115D01*
X12965256Y35896525D01*
X13221200Y36015664D01*
X13221200Y37375500D01*
X13475200Y37375500D01*
X13475200Y36015664D01*
X13731144Y35896525D01*
X14213018Y36096115D01*
X14685388Y36534121D01*
X14954183Y37119554D01*
X14835567Y37375500D01*
X13475200Y37375500D01*
X13221200Y37375500D01*
X13201200Y37375500D01*
X13201200Y37629500D01*
X13221200Y37629500D01*
X13221200Y38989336D01*
X12965256Y39108475D01*
X12483382Y38908885D01*
X12385802Y38818403D01*
X12288290Y38969941D01*
X12076090Y39114931D01*
X11824200Y39165940D01*
X9792200Y39165940D01*
X9556883Y39121662D01*
X9340759Y38982590D01*
X9195769Y38770390D01*
X9144760Y38518500D01*
X8372269Y38518500D01*
X8351870Y38549029D01*
X7865689Y38873885D01*
X7292200Y38987959D01*
X6718711Y38873885D01*
X6232530Y38549029D01*
X6223395Y38535358D01*
X6218962Y38558917D01*
X6079890Y38775041D01*
X5867690Y38920031D01*
X5615800Y38971040D01*
X3888600Y38971040D01*
X3653283Y38926762D01*
X3437159Y38787690D01*
X3292169Y38575490D01*
X3241160Y38323600D01*
X788277Y38323600D01*
X821046Y38488338D01*
X1097669Y38902333D01*
X1511660Y39178953D01*
X2069931Y39290000D01*
X15004777Y39290000D01*
X14942856Y39228187D01*
M02*
