G04 #@! TF.FileFunction,Legend,Top*
%FSLAX46Y46*%
G04 Gerber Fmt 4.6, Leading zero omitted, Abs format (unit mm)*
G04 Created by KiCad (PCBNEW (2015-08-23 BZR 6117)-product) date Fr 28 Aug 2015 21:18:53 CEST*
%MOMM*%
G01*
G04 APERTURE LIST*
%ADD10C,0.150000*%
%ADD11C,0.300000*%
%ADD12C,0.200000*%
%ADD13C,0.010000*%
%ADD14C,2.398980*%
%ADD15R,2.127200X2.127200*%
%ADD16O,2.127200X2.127200*%
%ADD17C,1.906220*%
%ADD18C,1.901140*%
%ADD19R,2.400000X2.400000*%
%ADD20C,2.400000*%
%ADD21O,1.299160X1.901140*%
%ADD22R,2.432000X2.432000*%
%ADD23O,2.432000X2.432000*%
G04 APERTURE END LIST*
D10*
D11*
X16671428Y36692857D02*
X15528571Y36692857D01*
X16100000Y36121429D02*
X16100000Y37264286D01*
X38521429Y39171428D02*
X38521429Y38599999D01*
X37521429Y38957142D02*
X38807143Y38957142D01*
X38950000Y38885714D01*
X39021429Y38742856D01*
X39021429Y38599999D01*
X37521429Y38099999D02*
X38521429Y38099999D01*
X38235714Y38099999D02*
X38378571Y38028571D01*
X38450000Y37957142D01*
X38521429Y37814285D01*
X38521429Y37671428D01*
X37592857Y36600000D02*
X37521429Y36742857D01*
X37521429Y37028571D01*
X37592857Y37171428D01*
X37735714Y37242857D01*
X38307143Y37242857D01*
X38450000Y37171428D01*
X38521429Y37028571D01*
X38521429Y36742857D01*
X38450000Y36600000D01*
X38307143Y36528571D01*
X38164286Y36528571D01*
X38021429Y37242857D01*
X37592857Y35314286D02*
X37521429Y35457143D01*
X37521429Y35742857D01*
X37592857Y35885714D01*
X37735714Y35957143D01*
X38307143Y35957143D01*
X38450000Y35885714D01*
X38521429Y35742857D01*
X38521429Y35457143D01*
X38450000Y35314286D01*
X38307143Y35242857D01*
X38164286Y35242857D01*
X38021429Y35957143D01*
X39021429Y34600000D02*
X37807143Y34600000D01*
X37664286Y34528572D01*
X37592857Y34457143D01*
X37521429Y34314286D01*
X37521429Y34028572D01*
X37592857Y33885714D01*
X37664286Y33814286D01*
X37807143Y33742857D01*
X39021429Y33742857D01*
X37592857Y33100000D02*
X37521429Y32885714D01*
X37521429Y32528571D01*
X37592857Y32385714D01*
X37664286Y32314285D01*
X37807143Y32242857D01*
X37950000Y32242857D01*
X38092857Y32314285D01*
X38164286Y32385714D01*
X38235714Y32528571D01*
X38307143Y32814285D01*
X38378571Y32957143D01*
X38450000Y33028571D01*
X38592857Y33100000D01*
X38735714Y33100000D01*
X38878571Y33028571D01*
X38950000Y32957143D01*
X39021429Y32814285D01*
X39021429Y32457143D01*
X38950000Y32242857D01*
X38307143Y31100000D02*
X38235714Y30885714D01*
X38164286Y30814286D01*
X38021429Y30742857D01*
X37807143Y30742857D01*
X37664286Y30814286D01*
X37592857Y30885714D01*
X37521429Y31028572D01*
X37521429Y31600000D01*
X39021429Y31600000D01*
X39021429Y31100000D01*
X38950000Y30957143D01*
X38878571Y30885714D01*
X38735714Y30814286D01*
X38592857Y30814286D01*
X38450000Y30885714D01*
X38378571Y30957143D01*
X38307143Y31100000D01*
X38307143Y31600000D01*
X37521429Y30100000D02*
X38521429Y30100000D01*
X39021429Y30100000D02*
X38950000Y30171429D01*
X38878571Y30100000D01*
X38950000Y30028572D01*
X39021429Y30100000D01*
X38878571Y30100000D01*
X38521429Y28385714D02*
X37521429Y28028571D01*
X38521429Y27671429D01*
X39021429Y26814286D02*
X39021429Y26671429D01*
X38950000Y26528572D01*
X38878571Y26457143D01*
X38735714Y26385714D01*
X38450000Y26314286D01*
X38092857Y26314286D01*
X37807143Y26385714D01*
X37664286Y26457143D01*
X37592857Y26528572D01*
X37521429Y26671429D01*
X37521429Y26814286D01*
X37592857Y26957143D01*
X37664286Y27028572D01*
X37807143Y27100000D01*
X38092857Y27171429D01*
X38450000Y27171429D01*
X38735714Y27100000D01*
X38878571Y27028572D01*
X38950000Y26957143D01*
X39021429Y26814286D01*
X37664286Y25671429D02*
X37592857Y25600001D01*
X37521429Y25671429D01*
X37592857Y25742858D01*
X37664286Y25671429D01*
X37521429Y25671429D01*
X37521429Y24171429D02*
X37521429Y25028572D01*
X37521429Y24600000D02*
X39021429Y24600000D01*
X38807143Y24742857D01*
X38664286Y24885715D01*
X38592857Y25028572D01*
X1921429Y38485714D02*
X921429Y38200000D01*
X1635714Y37914286D01*
X921429Y37628571D01*
X1921429Y37342857D01*
X1921429Y36914285D02*
X921429Y36628571D01*
X1635714Y36342857D01*
X921429Y36057142D01*
X1921429Y35771428D01*
X1921429Y35342856D02*
X921429Y35057142D01*
X1635714Y34771428D01*
X921429Y34485713D01*
X1921429Y34199999D01*
X1064286Y33628570D02*
X992857Y33557142D01*
X921429Y33628570D01*
X992857Y33699999D01*
X1064286Y33628570D01*
X921429Y33628570D01*
X1921429Y33128570D02*
X1921429Y32557141D01*
X921429Y32914284D02*
X2207143Y32914284D01*
X2350000Y32842856D01*
X2421429Y32699998D01*
X2421429Y32557141D01*
X921429Y32057141D02*
X1921429Y32057141D01*
X1635714Y32057141D02*
X1778571Y31985713D01*
X1850000Y31914284D01*
X1921429Y31771427D01*
X1921429Y31628570D01*
X992857Y30557142D02*
X921429Y30699999D01*
X921429Y30985713D01*
X992857Y31128570D01*
X1135714Y31199999D01*
X1707143Y31199999D01*
X1850000Y31128570D01*
X1921429Y30985713D01*
X1921429Y30699999D01*
X1850000Y30557142D01*
X1707143Y30485713D01*
X1564286Y30485713D01*
X1421429Y31199999D01*
X992857Y29271428D02*
X921429Y29414285D01*
X921429Y29699999D01*
X992857Y29842856D01*
X1135714Y29914285D01*
X1707143Y29914285D01*
X1850000Y29842856D01*
X1921429Y29699999D01*
X1921429Y29414285D01*
X1850000Y29271428D01*
X1707143Y29199999D01*
X1564286Y29199999D01*
X1421429Y29914285D01*
X921429Y27914285D02*
X2421429Y27914285D01*
X992857Y27914285D02*
X921429Y28057142D01*
X921429Y28342856D01*
X992857Y28485714D01*
X1064286Y28557142D01*
X1207143Y28628571D01*
X1635714Y28628571D01*
X1778571Y28557142D01*
X1850000Y28485714D01*
X1921429Y28342856D01*
X1921429Y28057142D01*
X1850000Y27914285D01*
X992857Y27271428D02*
X921429Y27128571D01*
X921429Y26842856D01*
X992857Y26699999D01*
X1135714Y26628571D01*
X1207143Y26628571D01*
X1350000Y26699999D01*
X1421429Y26842856D01*
X1421429Y27057142D01*
X1492857Y27199999D01*
X1635714Y27271428D01*
X1707143Y27271428D01*
X1850000Y27199999D01*
X1921429Y27057142D01*
X1921429Y26842856D01*
X1850000Y26699999D01*
X1921429Y25985713D02*
X421429Y25985713D01*
X1850000Y25985713D02*
X1921429Y25842856D01*
X1921429Y25557142D01*
X1850000Y25414285D01*
X1778571Y25342856D01*
X1635714Y25271427D01*
X1207143Y25271427D01*
X1064286Y25342856D01*
X992857Y25414285D01*
X921429Y25557142D01*
X921429Y25842856D01*
X992857Y25985713D01*
X1064286Y24628570D02*
X992857Y24557142D01*
X921429Y24628570D01*
X992857Y24699999D01*
X1064286Y24628570D01*
X921429Y24628570D01*
X992857Y23271427D02*
X921429Y23414284D01*
X921429Y23699998D01*
X992857Y23842856D01*
X1064286Y23914284D01*
X1207143Y23985713D01*
X1635714Y23985713D01*
X1778571Y23914284D01*
X1850000Y23842856D01*
X1921429Y23699998D01*
X1921429Y23414284D01*
X1850000Y23271427D01*
X992857Y21985713D02*
X921429Y22128570D01*
X921429Y22414284D01*
X992857Y22557142D01*
X1064286Y22628570D01*
X1207143Y22699999D01*
X1635714Y22699999D01*
X1778571Y22628570D01*
X1850000Y22557142D01*
X1921429Y22414284D01*
X1921429Y22128570D01*
X1850000Y21985713D01*
D12*
X10800000Y34438095D02*
X10800000Y33790476D01*
X10838095Y33714286D01*
X10876191Y33676190D01*
X10952381Y33638095D01*
X11104762Y33638095D01*
X11180953Y33676190D01*
X11219048Y33714286D01*
X11257143Y33790476D01*
X11257143Y34438095D01*
X11600000Y33676190D02*
X11714286Y33638095D01*
X11904762Y33638095D01*
X11980952Y33676190D01*
X12019048Y33714286D01*
X12057143Y33790476D01*
X12057143Y33866667D01*
X12019048Y33942857D01*
X11980952Y33980952D01*
X11904762Y34019048D01*
X11752381Y34057143D01*
X11676190Y34095238D01*
X11638095Y34133333D01*
X11600000Y34209524D01*
X11600000Y34285714D01*
X11638095Y34361905D01*
X11676190Y34400000D01*
X11752381Y34438095D01*
X11942857Y34438095D01*
X12057143Y34400000D01*
X12666667Y34057143D02*
X12780953Y34019048D01*
X12819048Y33980952D01*
X12857143Y33904762D01*
X12857143Y33790476D01*
X12819048Y33714286D01*
X12780953Y33676190D01*
X12704762Y33638095D01*
X12400000Y33638095D01*
X12400000Y34438095D01*
X12666667Y34438095D01*
X12742857Y34400000D01*
X12780953Y34361905D01*
X12819048Y34285714D01*
X12819048Y34209524D01*
X12780953Y34133333D01*
X12742857Y34095238D01*
X12666667Y34057143D01*
X12400000Y34057143D01*
X13200000Y33638095D02*
X13200000Y34171429D01*
X13200000Y34438095D02*
X13161905Y34400000D01*
X13200000Y34361905D01*
X13238095Y34400000D01*
X13200000Y34438095D01*
X13200000Y34361905D01*
X22101810Y763619D02*
X22101810Y1763619D01*
X22530381Y1668381D02*
X22578000Y1716000D01*
X22673238Y1763619D01*
X22911334Y1763619D01*
X23006572Y1716000D01*
X23054191Y1668381D01*
X23101810Y1573143D01*
X23101810Y1477905D01*
X23054191Y1335048D01*
X22482762Y763619D01*
X23101810Y763619D01*
X24101810Y858857D02*
X24054191Y811238D01*
X23911334Y763619D01*
X23816096Y763619D01*
X23673238Y811238D01*
X23578000Y906476D01*
X23530381Y1001714D01*
X23482762Y1192190D01*
X23482762Y1335048D01*
X23530381Y1525524D01*
X23578000Y1620762D01*
X23673238Y1716000D01*
X23816096Y1763619D01*
X23911334Y1763619D01*
X24054191Y1716000D01*
X24101810Y1668381D01*
X15978001Y1666000D02*
X15882763Y1713619D01*
X15739906Y1713619D01*
X15597048Y1666000D01*
X15501810Y1570762D01*
X15454191Y1475524D01*
X15406572Y1285048D01*
X15406572Y1142190D01*
X15454191Y951714D01*
X15501810Y856476D01*
X15597048Y761238D01*
X15739906Y713619D01*
X15835144Y713619D01*
X15978001Y761238D01*
X16025620Y808857D01*
X16025620Y1142190D01*
X15835144Y1142190D01*
X16454191Y713619D02*
X16454191Y1713619D01*
X16835144Y1713619D01*
X16930382Y1666000D01*
X16978001Y1618381D01*
X17025620Y1523143D01*
X17025620Y1380286D01*
X16978001Y1285048D01*
X16930382Y1237429D01*
X16835144Y1189810D01*
X16454191Y1189810D01*
X17454191Y713619D02*
X17454191Y1713619D01*
X18120857Y1713619D02*
X18311334Y1713619D01*
X18406572Y1666000D01*
X18501810Y1570762D01*
X18549429Y1380286D01*
X18549429Y1046952D01*
X18501810Y856476D01*
X18406572Y761238D01*
X18311334Y713619D01*
X18120857Y713619D01*
X18025619Y761238D01*
X17930381Y856476D01*
X17882762Y1046952D01*
X17882762Y1380286D01*
X17930381Y1570762D01*
X18025619Y1666000D01*
X18120857Y1713619D01*
X10004191Y761238D02*
X10147048Y713619D01*
X10385144Y713619D01*
X10480382Y761238D01*
X10528001Y808857D01*
X10575620Y904095D01*
X10575620Y999333D01*
X10528001Y1094571D01*
X10480382Y1142190D01*
X10385144Y1189810D01*
X10194667Y1237429D01*
X10099429Y1285048D01*
X10051810Y1332667D01*
X10004191Y1427905D01*
X10004191Y1523143D01*
X10051810Y1618381D01*
X10099429Y1666000D01*
X10194667Y1713619D01*
X10432763Y1713619D01*
X10575620Y1666000D01*
X11004191Y713619D02*
X11004191Y1713619D01*
X11385144Y1713619D01*
X11480382Y1666000D01*
X11528001Y1618381D01*
X11575620Y1523143D01*
X11575620Y1380286D01*
X11528001Y1285048D01*
X11480382Y1237429D01*
X11385144Y1189810D01*
X11004191Y1189810D01*
X12004191Y713619D02*
X12004191Y1713619D01*
X27544667Y763619D02*
X27544667Y1763619D01*
X27925620Y1763619D01*
X28020858Y1716000D01*
X28068477Y1668381D01*
X28116096Y1573143D01*
X28116096Y1430286D01*
X28068477Y1335048D01*
X28020858Y1287429D01*
X27925620Y1239810D01*
X27544667Y1239810D01*
X28449429Y1763619D02*
X28687524Y763619D01*
X28878001Y1477905D01*
X29068477Y763619D01*
X29306572Y1763619D01*
X30258953Y763619D02*
X29925619Y1239810D01*
X29687524Y763619D02*
X29687524Y1763619D01*
X30068477Y1763619D01*
X30163715Y1716000D01*
X30211334Y1668381D01*
X30258953Y1573143D01*
X30258953Y1430286D01*
X30211334Y1335048D01*
X30163715Y1287429D01*
X30068477Y1239810D01*
X29687524Y1239810D01*
D10*
X10467200Y34666000D02*
X9832200Y35301000D01*
X10467200Y27046000D02*
X9832200Y26411000D01*
X29517200Y27046000D02*
X30152200Y26411000D01*
X29517200Y34666000D02*
X30152200Y35301000D01*
X21897200Y26411000D02*
X21897200Y27046000D01*
X21897200Y27046000D02*
X29517200Y27046000D01*
X29517200Y27046000D02*
X29517200Y34666000D01*
X29517200Y34666000D02*
X10467200Y34666000D01*
X10467200Y34666000D02*
X10467200Y27046000D01*
X10467200Y27046000D02*
X18087200Y27046000D01*
X18087200Y27046000D02*
X18087200Y26411000D01*
X9832200Y26411000D02*
X30152200Y26411000D01*
X30152200Y35301000D02*
X9832200Y35301000D01*
X9832200Y35301000D02*
X9832200Y26411000D01*
X30152200Y35301000D02*
X30152200Y26411000D01*
X12494120Y28887500D02*
X13192620Y27818160D01*
X13192620Y27818160D02*
X13893660Y28887500D01*
X13893660Y28887500D02*
X12494120Y28887500D01*
X16386040Y40141560D02*
X16886420Y40141560D01*
X16386040Y40141560D02*
X16386040Y40641940D01*
X15885660Y40141560D02*
X16386040Y40141560D01*
X16386040Y40141560D02*
X16386040Y39742780D01*
X16386040Y39742780D02*
X16386040Y39641180D01*
X20536400Y38442300D02*
G75*
G03X20536400Y38442300I-3149600J0D01*
G01*
X24517000Y5530000D02*
X24517000Y5330000D01*
X24517000Y2936000D02*
X24517000Y3116000D01*
X21289256Y3246357D02*
G75*
G03X24517000Y2930000I1727744J1003643D01*
G01*
X21964994Y3116932D02*
G75*
G03X24068000Y3116000I1052006J1133068D01*
G01*
X24504220Y5556726D02*
G75*
G03X21267000Y5210000I-1497220J-1306726D01*
G01*
X24030889Y5329253D02*
G75*
G03X21983000Y5310000I-1013889J-1079253D01*
G01*
X18477000Y5530000D02*
X18477000Y5330000D01*
X18477000Y2936000D02*
X18477000Y3116000D01*
X15249256Y3246357D02*
G75*
G03X18477000Y2930000I1727744J1003643D01*
G01*
X15924994Y3116932D02*
G75*
G03X18028000Y3116000I1052006J1133068D01*
G01*
X18464220Y5556726D02*
G75*
G03X15227000Y5210000I-1497220J-1306726D01*
G01*
X17990889Y5329253D02*
G75*
G03X15943000Y5310000I-1013889J-1079253D01*
G01*
X12477000Y5530000D02*
X12477000Y5330000D01*
X12477000Y2936000D02*
X12477000Y3116000D01*
X9249256Y3246357D02*
G75*
G03X12477000Y2930000I1727744J1003643D01*
G01*
X9924994Y3116932D02*
G75*
G03X12028000Y3116000I1052006J1133068D01*
G01*
X12464220Y5556726D02*
G75*
G03X9227000Y5210000I-1497220J-1306726D01*
G01*
X11990889Y5329253D02*
G75*
G03X9943000Y5310000I-1013889J-1079253D01*
G01*
X30477000Y5530000D02*
X30477000Y5330000D01*
X30477000Y2936000D02*
X30477000Y3116000D01*
X27249256Y3246357D02*
G75*
G03X30477000Y2930000I1727744J1003643D01*
G01*
X27924994Y3116932D02*
G75*
G03X30028000Y3116000I1052006J1133068D01*
G01*
X30464220Y5556726D02*
G75*
G03X27227000Y5210000I-1497220J-1306726D01*
G01*
X29990889Y5329253D02*
G75*
G03X27943000Y5310000I-1013889J-1079253D01*
G01*
X21427200Y35688200D02*
X24827200Y35688200D01*
X21430144Y35691144D02*
G75*
G02X23127200Y39788200I1697056J1697056D01*
G01*
X24824256Y35691144D02*
G75*
G03X23127200Y39788200I-1697056J1697056D01*
G01*
X26608800Y35815200D02*
X30008800Y35815200D01*
X26611744Y35818144D02*
G75*
G02X28308800Y39915200I1697056J1697056D01*
G01*
X30005856Y35818144D02*
G75*
G03X28308800Y39915200I-1697056J1697056D01*
G01*
X6929240Y11099260D02*
X7429620Y11099260D01*
X6929240Y11099260D02*
X6929240Y11599640D01*
X6428860Y11099260D02*
X6929240Y11099260D01*
X6929240Y11099260D02*
X6929240Y10700480D01*
X6929240Y10700480D02*
X6929240Y10598880D01*
X11079600Y9400000D02*
G75*
G03X11079600Y9400000I-3149600J0D01*
G01*
X9258200Y36202500D02*
X10808200Y36202500D01*
X9258200Y37502500D02*
X9258200Y36202500D01*
X10681200Y41693500D02*
X10681200Y47535500D01*
X10681200Y47535500D02*
X10935200Y47535500D01*
X10935200Y47535500D02*
X10935200Y41693500D01*
X10935200Y41693500D02*
X10808200Y41693500D01*
X10808200Y41693500D02*
X10808200Y47535500D01*
X10554200Y39026500D02*
X10554200Y38645500D01*
X11062200Y39026500D02*
X11062200Y38645500D01*
X13094200Y39026500D02*
X13094200Y38645500D01*
X13602200Y39026500D02*
X13602200Y38645500D01*
X9538200Y39026500D02*
X9538200Y41566500D01*
X12078200Y39026500D02*
X12078200Y41566500D01*
X12078200Y39026500D02*
X14618200Y39026500D01*
X14618200Y39026500D02*
X14618200Y41566500D01*
X13094200Y41566500D02*
X13094200Y47662500D01*
X13094200Y47662500D02*
X13602200Y47662500D01*
X13602200Y47662500D02*
X13602200Y41566500D01*
X14618200Y41566500D02*
X12078200Y41566500D01*
X12078200Y41566500D02*
X9538200Y41566500D01*
X11062200Y47662500D02*
X11062200Y41566500D01*
X10554200Y47662500D02*
X11062200Y47662500D01*
X10554200Y41566500D02*
X10554200Y47662500D01*
X12078200Y39026500D02*
X12078200Y41566500D01*
X9538200Y39026500D02*
X12078200Y39026500D01*
D13*
G36*
X17608975Y24025232D02*
X17754473Y24023834D01*
X17893103Y24021777D01*
X18021119Y24019085D01*
X18134773Y24015785D01*
X18230319Y24011902D01*
X18304010Y24007464D01*
X18352099Y24002496D01*
X18370472Y23997516D01*
X18399051Y23985753D01*
X18452116Y23978602D01*
X18499097Y23977033D01*
X18556883Y23974760D01*
X18601839Y23968822D01*
X18623176Y23961109D01*
X18650085Y23949504D01*
X18709674Y23935811D01*
X18801919Y23920035D01*
X18926793Y23902182D01*
X18933355Y23901306D01*
X18984466Y23891819D01*
X19026264Y23879636D01*
X19031678Y23877346D01*
X19067927Y23864715D01*
X19119394Y23851365D01*
X19138194Y23847342D01*
X19192314Y23835030D01*
X19262323Y23817149D01*
X19330535Y23798288D01*
X19394012Y23781413D01*
X19449793Y23769172D01*
X19486534Y23764031D01*
X19488302Y23764000D01*
X19527548Y23754265D01*
X19547871Y23739420D01*
X19579751Y23718406D01*
X19598183Y23714839D01*
X19624572Y23709619D01*
X19673687Y23695704D01*
X19737497Y23675712D01*
X19807966Y23652262D01*
X19877063Y23627971D01*
X19936754Y23605459D01*
X19949355Y23600379D01*
X19980390Y23587900D01*
X20031371Y23567655D01*
X20091730Y23543839D01*
X20096839Y23541830D01*
X20157270Y23516654D01*
X20236680Y23481576D01*
X20324693Y23441267D01*
X20409800Y23400946D01*
X20484565Y23365542D01*
X20549683Y23336048D01*
X20599026Y23315142D01*
X20626461Y23305504D01*
X20628936Y23305162D01*
X20641425Y23299827D01*
X20630412Y23281777D01*
X20604414Y23267706D01*
X20556190Y23254867D01*
X20505274Y23247069D01*
X20449584Y23239168D01*
X20408073Y23229663D01*
X20390612Y23221293D01*
X20369925Y23212010D01*
X20329799Y23207081D01*
X20318065Y23206839D01*
X20275618Y23203966D01*
X20249688Y23196836D01*
X20247233Y23194549D01*
X20250351Y23181705D01*
X20267848Y23154169D01*
X20301181Y23110107D01*
X20351806Y23047688D01*
X20421176Y22965080D01*
X20510749Y22860451D01*
X20535194Y22832115D01*
X20584783Y22773544D01*
X20625308Y22723478D01*
X20652524Y22687315D01*
X20662194Y22670591D01*
X20673107Y22651727D01*
X20700920Y22619780D01*
X20720983Y22599634D01*
X20767235Y22551687D01*
X20817693Y22493829D01*
X20866661Y22433287D01*
X20908439Y22377286D01*
X20937330Y22333050D01*
X20946688Y22313438D01*
X20946069Y22297898D01*
X20934530Y22275148D01*
X20909584Y22242248D01*
X20868742Y22196254D01*
X20809517Y22134226D01*
X20729420Y22053222D01*
X20711256Y22035062D01*
X20638338Y21961510D01*
X20574035Y21895200D01*
X20521754Y21839767D01*
X20484907Y21798847D01*
X20466901Y21776076D01*
X20465675Y21773173D01*
X20478791Y21755820D01*
X20511822Y21731050D01*
X20531296Y21719179D01*
X20578175Y21687905D01*
X20634976Y21643738D01*
X20682751Y21602232D01*
X20729298Y21560511D01*
X20793004Y21505244D01*
X20865582Y21443541D01*
X20938746Y21382513D01*
X20940775Y21380840D01*
X21128537Y21225928D01*
X21292321Y21090500D01*
X21433544Y20973331D01*
X21553628Y20873192D01*
X21653992Y20788855D01*
X21736056Y20719094D01*
X21801240Y20662681D01*
X21850963Y20618388D01*
X21886646Y20584988D01*
X21909708Y20561253D01*
X21921570Y20545956D01*
X21923651Y20537870D01*
X21918329Y20535742D01*
X21901471Y20530469D01*
X21861138Y20516357D01*
X21804583Y20495966D01*
X21774942Y20485118D01*
X21707749Y20460594D01*
X21647959Y20439086D01*
X21605454Y20424136D01*
X21596258Y20421033D01*
X21562585Y20409281D01*
X21508000Y20389512D01*
X21442259Y20365272D01*
X21416000Y20355484D01*
X21348562Y20330468D01*
X21288520Y20308555D01*
X21245628Y20293291D01*
X21235742Y20289936D01*
X21202059Y20278199D01*
X21147457Y20258474D01*
X21081698Y20234301D01*
X21055484Y20224562D01*
X20979331Y20196559D01*
X20902118Y20168788D01*
X20837994Y20146325D01*
X20826065Y20142267D01*
X20725830Y20107831D01*
X20638906Y20076705D01*
X20570653Y20050875D01*
X20526431Y20032330D01*
X20517771Y20028008D01*
X20488534Y20015220D01*
X20439105Y19996544D01*
X20383613Y19977194D01*
X20277153Y19938038D01*
X20199636Y19900576D01*
X20147541Y19862010D01*
X20117346Y19819543D01*
X20105529Y19770378D01*
X20105033Y19755919D01*
X20115456Y19704978D01*
X20137574Y19663050D01*
X20163052Y19640888D01*
X20212699Y19606299D01*
X20281703Y19562163D01*
X20365252Y19511362D01*
X20458534Y19456774D01*
X20556739Y19401281D01*
X20655054Y19347764D01*
X20727967Y19309629D01*
X20785688Y19279030D01*
X20835487Y19250802D01*
X20866728Y19230977D01*
X20867033Y19230751D01*
X20879879Y19221164D01*
X20886965Y19212360D01*
X20885316Y19201304D01*
X20871956Y19184961D01*
X20843911Y19160298D01*
X20798205Y19124280D01*
X20731862Y19073872D01*
X20660325Y19019936D01*
X20595821Y18969510D01*
X20526606Y18912432D01*
X20457315Y18852889D01*
X20392586Y18795066D01*
X20337056Y18743149D01*
X20295361Y18701326D01*
X20272140Y18673782D01*
X20268904Y18666564D01*
X20282660Y18654362D01*
X20318763Y18632973D01*
X20369462Y18606185D01*
X20427008Y18577786D01*
X20483650Y18551565D01*
X20531640Y18531311D01*
X20563227Y18520811D01*
X20568458Y18520129D01*
X20598630Y18508501D01*
X20613033Y18495549D01*
X20637882Y18474883D01*
X20650161Y18470968D01*
X20672026Y18464288D01*
X20714883Y18446587D01*
X20770346Y18421378D01*
X20783348Y18415201D01*
X20851496Y18382875D01*
X20919344Y18351192D01*
X20972480Y18326880D01*
X20973549Y18326401D01*
X21025251Y18303027D01*
X21092959Y18272133D01*
X21162945Y18239988D01*
X21170194Y18236644D01*
X21281476Y18185448D01*
X21365995Y18146968D01*
X21426628Y18119932D01*
X21466251Y18103070D01*
X21487741Y18095110D01*
X21492818Y18094065D01*
X21510724Y18087333D01*
X21552037Y18068976D01*
X21610715Y18041753D01*
X21680715Y18008419D01*
X21684880Y18006412D01*
X21759618Y17970629D01*
X21827525Y17938584D01*
X21880970Y17913850D01*
X21911710Y17900247D01*
X21947136Y17876467D01*
X21954526Y17850194D01*
X21933138Y17828402D01*
X21919904Y17823460D01*
X21881905Y17810057D01*
X21831634Y17789430D01*
X21815196Y17782154D01*
X21762849Y17760416D01*
X21715274Y17743736D01*
X21704428Y17740693D01*
X21669246Y17727694D01*
X21652491Y17715346D01*
X21630175Y17702519D01*
X21615775Y17700674D01*
X21581991Y17693271D01*
X21541127Y17676093D01*
X21503727Y17658975D01*
X21478575Y17651619D01*
X21478229Y17651613D01*
X21456339Y17645135D01*
X21413823Y17628097D01*
X21359615Y17604095D01*
X21356056Y17602452D01*
X21300257Y17578011D01*
X21254362Y17560409D01*
X21227946Y17553305D01*
X21227372Y17553291D01*
X21199960Y17542825D01*
X21194775Y17536904D01*
X21171358Y17522453D01*
X21156936Y17520416D01*
X21123152Y17513013D01*
X21082288Y17495835D01*
X21040125Y17478377D01*
X21006456Y17471355D01*
X20971971Y17459530D01*
X20957162Y17446775D01*
X20926613Y17425822D01*
X20909271Y17422194D01*
X20874173Y17411796D01*
X20863290Y17403703D01*
X20838515Y17393343D01*
X20791128Y17383796D01*
X20731269Y17377090D01*
X20729760Y17376981D01*
X20663309Y17370134D01*
X20619945Y17359213D01*
X20590000Y17341216D01*
X20578247Y17329923D01*
X20548112Y17302968D01*
X20525344Y17291122D01*
X20524707Y17291097D01*
X20505041Y17280345D01*
X20470361Y17252249D01*
X20430997Y17215604D01*
X20354351Y17140111D01*
X20528756Y16972601D01*
X20667626Y16840037D01*
X20791158Y16723782D01*
X20898102Y16624961D01*
X20987206Y16544696D01*
X21057220Y16484112D01*
X21106891Y16444332D01*
X21134969Y16426480D01*
X21137775Y16425657D01*
X21160003Y16411946D01*
X21158652Y16392883D01*
X21140810Y16360624D01*
X21112971Y16325771D01*
X21084845Y16299285D01*
X21068829Y16291484D01*
X21049382Y16282842D01*
X21011181Y16260113D01*
X20962257Y16228096D01*
X20959085Y16225936D01*
X20910562Y16193614D01*
X20873178Y16170200D01*
X20854530Y16160437D01*
X20854108Y16160387D01*
X20836852Y16152612D01*
X20798574Y16131877D01*
X20746366Y16102073D01*
X20725000Y16089562D01*
X20657171Y16051730D01*
X20571302Y16007079D01*
X20473144Y15958278D01*
X20368448Y15907994D01*
X20262965Y15858897D01*
X20162445Y15813654D01*
X20072639Y15774934D01*
X19999299Y15745405D01*
X19948175Y15727735D01*
X19941162Y15725869D01*
X19895121Y15712116D01*
X19867420Y15701627D01*
X19752146Y15654980D01*
X19637562Y15616818D01*
X19621613Y15612058D01*
X19563731Y15594275D01*
X19514710Y15578000D01*
X19490516Y15568926D01*
X19458696Y15558330D01*
X19401366Y15542165D01*
X19324997Y15522029D01*
X19236060Y15499519D01*
X19141025Y15476235D01*
X19046365Y15453774D01*
X18958549Y15433734D01*
X18884048Y15417714D01*
X18854643Y15411869D01*
X18790623Y15402285D01*
X18703268Y15392880D01*
X18602010Y15384486D01*
X18496279Y15377939D01*
X18444287Y15375602D01*
X18342059Y15371352D01*
X18267617Y15367190D01*
X18215983Y15362402D01*
X18182180Y15356273D01*
X18161229Y15348090D01*
X18148152Y15337138D01*
X18144585Y15332616D01*
X18136730Y15323685D01*
X18125318Y15316539D01*
X18106865Y15310958D01*
X18077889Y15306721D01*
X18034905Y15303607D01*
X17974432Y15301397D01*
X17892984Y15299868D01*
X17787080Y15298800D01*
X17653236Y15297974D01*
X17593072Y15297671D01*
X17448760Y15297464D01*
X17300890Y15298151D01*
X17156432Y15299636D01*
X17022359Y15301821D01*
X16905639Y15304611D01*
X16813245Y15307909D01*
X16797461Y15308663D01*
X16685567Y15315252D01*
X16603085Y15322355D01*
X16546654Y15330397D01*
X16512914Y15339803D01*
X16502493Y15345983D01*
X16472485Y15359452D01*
X16419625Y15371662D01*
X16353819Y15380338D01*
X16352387Y15380465D01*
X16269832Y15389678D01*
X16179815Y15402743D01*
X16114775Y15414345D01*
X15980321Y15442077D01*
X15860291Y15468020D01*
X15758115Y15491356D01*
X15677225Y15511270D01*
X15621053Y15526945D01*
X15593031Y15537565D01*
X15591207Y15538910D01*
X15562995Y15551817D01*
X15542045Y15554600D01*
X15508466Y15560352D01*
X15457182Y15574276D01*
X15400914Y15592352D01*
X15352378Y15610560D01*
X15328194Y15622193D01*
X15302759Y15630958D01*
X15258934Y15640767D01*
X15242310Y15643719D01*
X15164886Y15664070D01*
X15075376Y15699517D01*
X15004771Y15734924D01*
X14968789Y15748442D01*
X14952380Y15750710D01*
X14925002Y15758029D01*
X14881110Y15776757D01*
X14851394Y15791678D01*
X14801604Y15815145D01*
X14759282Y15829968D01*
X14743197Y15832646D01*
X14697672Y15843110D01*
X14636972Y15871632D01*
X14569880Y15913904D01*
X14554088Y15925402D01*
X14513498Y15952436D01*
X14455238Y15987202D01*
X14390959Y16022788D01*
X14382024Y16027505D01*
X14317250Y16061832D01*
X14255975Y16094934D01*
X14210165Y16120339D01*
X14205678Y16122907D01*
X14125562Y16169229D01*
X14068375Y16202850D01*
X14028506Y16227187D01*
X14000347Y16245656D01*
X13980160Y16260251D01*
X13942407Y16278423D01*
X13912333Y16280270D01*
X13881338Y16285214D01*
X13833047Y16307285D01*
X13774493Y16341652D01*
X13712709Y16383483D01*
X13654729Y16427945D01*
X13607585Y16470206D01*
X13578311Y16505434D01*
X13574775Y16512193D01*
X13555971Y16537189D01*
X13517290Y16576863D01*
X13464555Y16625556D01*
X13409539Y16672707D01*
X13332754Y16737982D01*
X13245461Y16814884D01*
X13160473Y16892016D01*
X13112431Y16936977D01*
X13053713Y16990958D01*
X13001575Y17035400D01*
X12961467Y17065891D01*
X12938845Y17078017D01*
X12938117Y17078065D01*
X12917789Y17089843D01*
X12881561Y17121931D01*
X12834519Y17169464D01*
X12781743Y17227572D01*
X12780483Y17229017D01*
X12724589Y17294057D01*
X12687161Y17341044D01*
X12664551Y17376114D01*
X12653110Y17405403D01*
X12649188Y17435044D01*
X12648904Y17450242D01*
X12644768Y17499195D01*
X12631677Y17519522D01*
X12626208Y17520516D01*
X12601870Y17533076D01*
X12575826Y17562769D01*
X12549557Y17590379D01*
X12525701Y17596411D01*
X12507150Y17605891D01*
X12477206Y17640568D01*
X12438423Y17695982D01*
X12393354Y17767670D01*
X12344552Y17851171D01*
X12294570Y17942025D01*
X12245963Y18035769D01*
X12201283Y18127942D01*
X12163083Y18214084D01*
X12142413Y18266129D01*
X12116766Y18332377D01*
X12089753Y18398462D01*
X12074138Y18434536D01*
X12054593Y18488161D01*
X12043519Y18538361D01*
X12042581Y18551864D01*
X12037551Y18588138D01*
X12024084Y18645508D01*
X12004616Y18714149D01*
X11994040Y18747651D01*
X11970748Y18824743D01*
X11968990Y18831484D01*
X13728044Y18831484D01*
X13734297Y18204678D01*
X13736117Y18035059D01*
X13738168Y17894634D01*
X13740887Y17779823D01*
X13744710Y17687047D01*
X13750074Y17612724D01*
X13757413Y17553276D01*
X13767166Y17505123D01*
X13779767Y17464685D01*
X13795653Y17428381D01*
X13815260Y17392633D01*
X13837715Y17355952D01*
X13915503Y17261874D01*
X14017908Y17186090D01*
X14141710Y17129594D01*
X14283691Y17093383D01*
X14440630Y17078450D01*
X14609308Y17085791D01*
X14680904Y17095436D01*
X14825978Y17133149D01*
X14950016Y17195644D01*
X15051897Y17281813D01*
X15130499Y17390546D01*
X15184700Y17520736D01*
X15206021Y17614533D01*
X15209726Y17653503D01*
X15213119Y17720609D01*
X15216089Y17811214D01*
X15218526Y17920682D01*
X15220320Y18044376D01*
X15221361Y18177657D01*
X15221583Y18270226D01*
X15221593Y18331678D01*
X15426770Y18331678D01*
X15427748Y18257187D01*
X15432472Y18204486D01*
X15443166Y18162626D01*
X15462054Y18120659D01*
X15474224Y18098091D01*
X15525002Y18023939D01*
X15590159Y17962289D01*
X15673914Y17910724D01*
X15780486Y17866826D01*
X15914095Y17828178D01*
X15967291Y17815610D01*
X16089495Y17786056D01*
X16182704Y17758622D01*
X16250497Y17731838D01*
X16296456Y17704234D01*
X16324162Y17674340D01*
X16328040Y17667550D01*
X16350248Y17595014D01*
X16341813Y17527860D01*
X16304832Y17469990D01*
X16241404Y17425307D01*
X16187009Y17405189D01*
X16094005Y17392017D01*
X15981145Y17395429D01*
X15855976Y17414032D01*
X15726046Y17446433D01*
X15598903Y17491239D01*
X15516031Y17529021D01*
X15434710Y17570230D01*
X15434710Y17194044D01*
X15513497Y17170647D01*
X15578631Y17153111D01*
X15662049Y17133111D01*
X15750799Y17113523D01*
X15831927Y17097223D01*
X15885355Y17088081D01*
X15943502Y17083606D01*
X16022507Y17082873D01*
X16113294Y17085386D01*
X16206790Y17090643D01*
X16293919Y17098148D01*
X16365608Y17107400D01*
X16369669Y17108275D01*
X16991484Y17108275D01*
X17479000Y17114571D01*
X17620141Y17116539D01*
X17732854Y17118602D01*
X17821486Y17121075D01*
X17890382Y17124271D01*
X17943890Y17128504D01*
X17986354Y17134087D01*
X18022122Y17141333D01*
X18055538Y17150557D01*
X18078215Y17157814D01*
X18192481Y17211005D01*
X18283379Y17285533D01*
X18349401Y17378315D01*
X18389040Y17486272D01*
X18400789Y17606320D01*
X18383142Y17735380D01*
X18375109Y17764865D01*
X18345867Y17830883D01*
X18300732Y17896710D01*
X18247233Y17953771D01*
X18192900Y17993487D01*
X18164154Y18005151D01*
X18129565Y18019938D01*
X18125849Y18036968D01*
X18153693Y18052693D01*
X18192650Y18076667D01*
X18236938Y18120694D01*
X18278480Y18174921D01*
X18309197Y18229496D01*
X18317657Y18252679D01*
X18333212Y18354851D01*
X18327003Y18460122D01*
X18306780Y18536516D01*
X18826839Y18536516D01*
X18826839Y17241936D01*
X19236516Y17241936D01*
X19236516Y18536516D01*
X18826839Y18536516D01*
X18306780Y18536516D01*
X18300865Y18558856D01*
X18256632Y18641412D01*
X18239719Y18662010D01*
X18193625Y18705734D01*
X18140716Y18741595D01*
X18077533Y18770287D01*
X18000616Y18792502D01*
X17906508Y18808935D01*
X17791748Y18820278D01*
X17652880Y18827225D01*
X17486442Y18830469D01*
X17397065Y18830913D01*
X16991484Y18831484D01*
X16991484Y17108275D01*
X16369669Y17108275D01*
X16409742Y17116907D01*
X16517309Y17162037D01*
X16610629Y17223787D01*
X16681575Y17296488D01*
X16694958Y17315859D01*
X16739807Y17411935D01*
X16766739Y17524373D01*
X16775208Y17643158D01*
X16764665Y17758280D01*
X16734564Y17859723D01*
X16725712Y17878341D01*
X16682213Y17945194D01*
X16623819Y18002246D01*
X16546926Y18051402D01*
X16447933Y18094567D01*
X16323236Y18133645D01*
X16175683Y18169154D01*
X16095683Y18187381D01*
X16022387Y18205749D01*
X15964773Y18221913D01*
X15935269Y18231985D01*
X15871919Y18272633D01*
X15836836Y18327532D01*
X15831563Y18392592D01*
X15851808Y18453087D01*
X15879854Y18490886D01*
X15921766Y18517377D01*
X15982364Y18533992D01*
X16066467Y18542168D01*
X16155742Y18543585D01*
X16240922Y18541725D01*
X16308084Y18535908D01*
X16370631Y18523841D01*
X16441967Y18503228D01*
X16495775Y18485393D01*
X16663742Y18428327D01*
X16663742Y18604221D01*
X16663127Y18683199D01*
X16660670Y18735295D01*
X16655458Y18766387D01*
X16646575Y18782354D01*
X16635065Y18788542D01*
X16552801Y18808525D01*
X16449149Y18827483D01*
X16335485Y18843682D01*
X16223186Y18855385D01*
X16174067Y18858841D01*
X15992530Y18859367D01*
X15835923Y18838705D01*
X15704125Y18796808D01*
X15597019Y18733626D01*
X15514486Y18649110D01*
X15465600Y18565057D01*
X15445207Y18512268D01*
X15433252Y18458588D01*
X15427784Y18392282D01*
X15426770Y18331678D01*
X15221593Y18331678D01*
X15221678Y18831484D01*
X14780735Y18831484D01*
X14775884Y18229258D01*
X14774553Y18072454D01*
X14773200Y17944877D01*
X14771609Y17842983D01*
X14769569Y17763224D01*
X14766864Y17702055D01*
X14763282Y17655930D01*
X14758608Y17621303D01*
X14752629Y17594628D01*
X14745132Y17572360D01*
X14735901Y17550952D01*
X14734869Y17548709D01*
X14703389Y17493457D01*
X14664765Y17457849D01*
X14628353Y17438456D01*
X14535349Y17410405D01*
X14441677Y17407191D01*
X14354136Y17427131D01*
X14279523Y17468545D01*
X14224635Y17529750D01*
X14218929Y17539769D01*
X14209162Y17558821D01*
X14201206Y17578022D01*
X14194846Y17600841D01*
X14189861Y17630745D01*
X14186035Y17671202D01*
X14183150Y17725681D01*
X14180986Y17797650D01*
X14179327Y17890576D01*
X14177954Y18007928D01*
X14176648Y18153174D01*
X14176086Y18221065D01*
X14171075Y18831484D01*
X13728044Y18831484D01*
X11968990Y18831484D01*
X11950694Y18901620D01*
X11937163Y18965308D01*
X11934505Y18982645D01*
X11926038Y19034564D01*
X11916336Y19073339D01*
X11910923Y19085484D01*
X11901123Y19114220D01*
X11896568Y19142839D01*
X13730452Y19142839D01*
X13730452Y19028129D01*
X17384775Y19028129D01*
X17384775Y19142839D01*
X13730452Y19142839D01*
X11896568Y19142839D01*
X11892174Y19170439D01*
X11884263Y19248859D01*
X11877578Y19344194D01*
X11872305Y19451163D01*
X11868633Y19564479D01*
X11866747Y19678861D01*
X11866835Y19789025D01*
X11869084Y19889685D01*
X11873681Y19975560D01*
X11877850Y20019549D01*
X11887417Y20092772D01*
X11897378Y20156398D01*
X11904305Y20191613D01*
X13730452Y20191613D01*
X13730452Y19978581D01*
X13877936Y19978581D01*
X13877936Y19290323D01*
X14156516Y19290323D01*
X14156516Y19978581D01*
X14402323Y19978581D01*
X14402323Y20191613D01*
X14549807Y20191613D01*
X14549807Y19290323D01*
X14825625Y19290323D01*
X14831103Y19565584D01*
X14833689Y19670848D01*
X14836697Y19740968D01*
X15295705Y19740968D01*
X15297002Y19666121D01*
X15302048Y19613003D01*
X15313092Y19570605D01*
X15332382Y19527915D01*
X15343412Y19507381D01*
X15404444Y19420492D01*
X15481957Y19356114D01*
X15582758Y19308782D01*
X15596556Y19304049D01*
X15693284Y19283781D01*
X15807563Y19278562D01*
X15928093Y19287889D01*
X16043574Y19311262D01*
X16090194Y19325980D01*
X16196710Y19364197D01*
X16201572Y19475467D01*
X16206434Y19586738D01*
X16140097Y19552895D01*
X16042168Y19512527D01*
X15939090Y19486548D01*
X15838545Y19475624D01*
X15748216Y19480419D01*
X15675783Y19501601D01*
X15658808Y19511174D01*
X15625227Y19543790D01*
X15593195Y19591052D01*
X15571019Y19639165D01*
X15565807Y19665606D01*
X15578861Y19672334D01*
X15618981Y19677423D01*
X15687603Y19680949D01*
X15786161Y19682987D01*
X15909936Y19683613D01*
X16254065Y19683613D01*
X16254065Y19740968D01*
X16410027Y19740968D01*
X16411325Y19666121D01*
X16416371Y19613003D01*
X16427415Y19570605D01*
X16446705Y19527915D01*
X16457735Y19507381D01*
X16518766Y19420492D01*
X16596280Y19356114D01*
X16697080Y19308782D01*
X16710879Y19304049D01*
X16807607Y19283781D01*
X16921886Y19278562D01*
X17042415Y19287889D01*
X17157897Y19311262D01*
X17204516Y19325980D01*
X17311033Y19364197D01*
X17315895Y19475467D01*
X17319977Y19568904D01*
X18084971Y19568904D01*
X18101368Y19398487D01*
X18146053Y19240388D01*
X18216157Y19096753D01*
X18308812Y18969730D01*
X18421148Y18861466D01*
X18550296Y18774110D01*
X18693389Y18709809D01*
X18847557Y18670711D01*
X19009931Y18658962D01*
X19177643Y18676712D01*
X19252904Y18694563D01*
X19405536Y18753934D01*
X19547655Y18843386D01*
X19646194Y18929807D01*
X19758323Y19062365D01*
X19839681Y19205652D01*
X19890947Y19361309D01*
X19912799Y19530978D01*
X19913746Y19577097D01*
X19899352Y19750636D01*
X19855719Y19909742D01*
X19782168Y20056054D01*
X19678021Y20191216D01*
X19646194Y20224387D01*
X19513636Y20336517D01*
X19370349Y20417875D01*
X19214692Y20469141D01*
X19045023Y20490992D01*
X18998904Y20491940D01*
X18825364Y20477546D01*
X18666259Y20433913D01*
X18519946Y20360362D01*
X18384785Y20256214D01*
X18351613Y20224387D01*
X18240190Y20093306D01*
X18159514Y19952636D01*
X18108536Y19799797D01*
X18086207Y19632208D01*
X18084971Y19568904D01*
X17319977Y19568904D01*
X17320757Y19586738D01*
X17254419Y19552895D01*
X17156491Y19512527D01*
X17053413Y19486548D01*
X16952868Y19475624D01*
X16862538Y19480419D01*
X16790105Y19501601D01*
X16773131Y19511174D01*
X16739550Y19543790D01*
X16707517Y19591052D01*
X16685341Y19639165D01*
X16680129Y19665606D01*
X16693184Y19672334D01*
X16733304Y19677423D01*
X16801925Y19680949D01*
X16900483Y19682987D01*
X17024258Y19683613D01*
X17368387Y19683613D01*
X17368387Y19762574D01*
X17354553Y19887469D01*
X17312614Y19996117D01*
X17241919Y20090175D01*
X17237804Y20094338D01*
X17152465Y20162416D01*
X17056511Y20204275D01*
X16944804Y20221586D01*
X16851962Y20219805D01*
X16722370Y20199012D01*
X16616704Y20157219D01*
X16532611Y20093008D01*
X16467737Y20004965D01*
X16455211Y19981041D01*
X16432406Y19930176D01*
X16418742Y19884269D01*
X16412021Y19831638D01*
X16410043Y19760597D01*
X16410027Y19740968D01*
X16254065Y19740968D01*
X16254065Y19762574D01*
X16240230Y19887469D01*
X16198291Y19996117D01*
X16127596Y20090175D01*
X16123481Y20094338D01*
X16038142Y20162416D01*
X15942188Y20204275D01*
X15830481Y20221586D01*
X15737639Y20219805D01*
X15608047Y20199012D01*
X15502382Y20157219D01*
X15418288Y20093008D01*
X15353414Y20004965D01*
X15340889Y19981041D01*
X15318083Y19930176D01*
X15304420Y19884269D01*
X15297698Y19831638D01*
X15295721Y19760597D01*
X15295705Y19740968D01*
X14836697Y19740968D01*
X14837026Y19748630D01*
X14841693Y19804219D01*
X14848268Y19842906D01*
X14857330Y19869982D01*
X14866149Y19885914D01*
X14925368Y19948356D01*
X15001719Y19984528D01*
X15091168Y19993185D01*
X15169200Y19979532D01*
X15223022Y19964096D01*
X15213484Y20216194D01*
X15153120Y20221215D01*
X15051575Y20213807D01*
X14955616Y20176582D01*
X14893007Y20131470D01*
X14828387Y20073090D01*
X14828387Y20191613D01*
X14549807Y20191613D01*
X14402323Y20191613D01*
X14156516Y20191613D01*
X14156516Y20239604D01*
X14164225Y20287483D01*
X14190302Y20318152D01*
X14239176Y20334420D01*
X14313364Y20339097D01*
X14418710Y20339097D01*
X14418710Y20539368D01*
X14242549Y20533306D01*
X14154817Y20528920D01*
X14092243Y20521996D01*
X14047234Y20511267D01*
X14012197Y20495465D01*
X14010746Y20494622D01*
X13942817Y20441802D01*
X13901287Y20375551D01*
X13882003Y20289058D01*
X13881408Y20282422D01*
X13873877Y20191613D01*
X13730452Y20191613D01*
X11904305Y20191613D01*
X11906267Y20201586D01*
X11910484Y20216194D01*
X11919423Y20246534D01*
X11932030Y20299711D01*
X11946133Y20366311D01*
X11952064Y20396452D01*
X11966587Y20464367D01*
X11981468Y20521269D01*
X11994319Y20558467D01*
X11998807Y20566468D01*
X12011027Y20598872D01*
X12012482Y20634172D01*
X12015758Y20679282D01*
X12029937Y20731940D01*
X12033356Y20740640D01*
X12049907Y20786533D01*
X12058661Y20823039D01*
X12059069Y20828615D01*
X12066444Y20861579D01*
X12083650Y20902228D01*
X12101183Y20945474D01*
X12108129Y20980850D01*
X12119546Y21013858D01*
X12146933Y21048622D01*
X12174060Y21081773D01*
X12206326Y21132740D01*
X12239870Y21193717D01*
X12270830Y21256898D01*
X12295345Y21314478D01*
X12309554Y21358649D01*
X12310701Y21379676D01*
X12314764Y21407216D01*
X12337509Y21458185D01*
X12377484Y21530153D01*
X12433238Y21620688D01*
X12503318Y21727359D01*
X12586274Y21847735D01*
X12611173Y21882948D01*
X12657248Y21943767D01*
X12717073Y22016712D01*
X12787340Y22098305D01*
X12864741Y22185067D01*
X12945967Y22273521D01*
X13027710Y22360188D01*
X13106661Y22441590D01*
X13179514Y22514249D01*
X13242958Y22574687D01*
X13293686Y22619425D01*
X13328390Y22644986D01*
X13340459Y22649678D01*
X13368036Y22662084D01*
X13398000Y22692201D01*
X13399856Y22694742D01*
X13432165Y22728987D01*
X13488377Y22776755D01*
X13564094Y22835035D01*
X13654922Y22900818D01*
X13756464Y22971093D01*
X13864323Y23042850D01*
X13974104Y23113078D01*
X14081410Y23178769D01*
X14181846Y23236910D01*
X14230258Y23263354D01*
X14294351Y23297972D01*
X14348495Y23328108D01*
X14385494Y23349707D01*
X14396942Y23357249D01*
X14427291Y23361864D01*
X14448869Y23352153D01*
X14479966Y23340028D01*
X14506847Y23352673D01*
X14507508Y23353219D01*
X14529077Y23379166D01*
X14533687Y23393200D01*
X14548868Y23409192D01*
X14592956Y23435920D01*
X14664218Y23472492D01*
X14760919Y23518015D01*
X14873076Y23568000D01*
X14931537Y23589618D01*
X14987354Y23604017D01*
X15012848Y23607258D01*
X15064702Y23618351D01*
X15114679Y23642501D01*
X15115644Y23643169D01*
X15179959Y23676148D01*
X15265728Y23698458D01*
X15336334Y23708155D01*
X15379659Y23718119D01*
X15408585Y23734461D01*
X15410076Y23736245D01*
X15422758Y23746688D01*
X15447536Y23757047D01*
X15488618Y23768350D01*
X15550209Y23781625D01*
X15636519Y23797902D01*
X15729678Y23814382D01*
X15793341Y23828001D01*
X15850524Y23844569D01*
X15882801Y23857641D01*
X15926262Y23875005D01*
X15993760Y23893195D01*
X16087783Y23912760D01*
X16210820Y23934251D01*
X16278645Y23945059D01*
X16341961Y23955993D01*
X16393058Y23966819D01*
X16422965Y23975579D01*
X16426129Y23977253D01*
X16447940Y23983307D01*
X16495553Y23991256D01*
X16562124Y24000102D01*
X16640808Y24008848D01*
X16647355Y24009507D01*
X16712913Y24014331D01*
X16801578Y24018287D01*
X16909602Y24021399D01*
X17033238Y24023695D01*
X17168741Y24025200D01*
X17312362Y24025941D01*
X17460356Y24025942D01*
X17608975Y24025232D01*
X17608975Y24025232D01*
G37*
X17608975Y24025232D02*
X17754473Y24023834D01*
X17893103Y24021777D01*
X18021119Y24019085D01*
X18134773Y24015785D01*
X18230319Y24011902D01*
X18304010Y24007464D01*
X18352099Y24002496D01*
X18370472Y23997516D01*
X18399051Y23985753D01*
X18452116Y23978602D01*
X18499097Y23977033D01*
X18556883Y23974760D01*
X18601839Y23968822D01*
X18623176Y23961109D01*
X18650085Y23949504D01*
X18709674Y23935811D01*
X18801919Y23920035D01*
X18926793Y23902182D01*
X18933355Y23901306D01*
X18984466Y23891819D01*
X19026264Y23879636D01*
X19031678Y23877346D01*
X19067927Y23864715D01*
X19119394Y23851365D01*
X19138194Y23847342D01*
X19192314Y23835030D01*
X19262323Y23817149D01*
X19330535Y23798288D01*
X19394012Y23781413D01*
X19449793Y23769172D01*
X19486534Y23764031D01*
X19488302Y23764000D01*
X19527548Y23754265D01*
X19547871Y23739420D01*
X19579751Y23718406D01*
X19598183Y23714839D01*
X19624572Y23709619D01*
X19673687Y23695704D01*
X19737497Y23675712D01*
X19807966Y23652262D01*
X19877063Y23627971D01*
X19936754Y23605459D01*
X19949355Y23600379D01*
X19980390Y23587900D01*
X20031371Y23567655D01*
X20091730Y23543839D01*
X20096839Y23541830D01*
X20157270Y23516654D01*
X20236680Y23481576D01*
X20324693Y23441267D01*
X20409800Y23400946D01*
X20484565Y23365542D01*
X20549683Y23336048D01*
X20599026Y23315142D01*
X20626461Y23305504D01*
X20628936Y23305162D01*
X20641425Y23299827D01*
X20630412Y23281777D01*
X20604414Y23267706D01*
X20556190Y23254867D01*
X20505274Y23247069D01*
X20449584Y23239168D01*
X20408073Y23229663D01*
X20390612Y23221293D01*
X20369925Y23212010D01*
X20329799Y23207081D01*
X20318065Y23206839D01*
X20275618Y23203966D01*
X20249688Y23196836D01*
X20247233Y23194549D01*
X20250351Y23181705D01*
X20267848Y23154169D01*
X20301181Y23110107D01*
X20351806Y23047688D01*
X20421176Y22965080D01*
X20510749Y22860451D01*
X20535194Y22832115D01*
X20584783Y22773544D01*
X20625308Y22723478D01*
X20652524Y22687315D01*
X20662194Y22670591D01*
X20673107Y22651727D01*
X20700920Y22619780D01*
X20720983Y22599634D01*
X20767235Y22551687D01*
X20817693Y22493829D01*
X20866661Y22433287D01*
X20908439Y22377286D01*
X20937330Y22333050D01*
X20946688Y22313438D01*
X20946069Y22297898D01*
X20934530Y22275148D01*
X20909584Y22242248D01*
X20868742Y22196254D01*
X20809517Y22134226D01*
X20729420Y22053222D01*
X20711256Y22035062D01*
X20638338Y21961510D01*
X20574035Y21895200D01*
X20521754Y21839767D01*
X20484907Y21798847D01*
X20466901Y21776076D01*
X20465675Y21773173D01*
X20478791Y21755820D01*
X20511822Y21731050D01*
X20531296Y21719179D01*
X20578175Y21687905D01*
X20634976Y21643738D01*
X20682751Y21602232D01*
X20729298Y21560511D01*
X20793004Y21505244D01*
X20865582Y21443541D01*
X20938746Y21382513D01*
X20940775Y21380840D01*
X21128537Y21225928D01*
X21292321Y21090500D01*
X21433544Y20973331D01*
X21553628Y20873192D01*
X21653992Y20788855D01*
X21736056Y20719094D01*
X21801240Y20662681D01*
X21850963Y20618388D01*
X21886646Y20584988D01*
X21909708Y20561253D01*
X21921570Y20545956D01*
X21923651Y20537870D01*
X21918329Y20535742D01*
X21901471Y20530469D01*
X21861138Y20516357D01*
X21804583Y20495966D01*
X21774942Y20485118D01*
X21707749Y20460594D01*
X21647959Y20439086D01*
X21605454Y20424136D01*
X21596258Y20421033D01*
X21562585Y20409281D01*
X21508000Y20389512D01*
X21442259Y20365272D01*
X21416000Y20355484D01*
X21348562Y20330468D01*
X21288520Y20308555D01*
X21245628Y20293291D01*
X21235742Y20289936D01*
X21202059Y20278199D01*
X21147457Y20258474D01*
X21081698Y20234301D01*
X21055484Y20224562D01*
X20979331Y20196559D01*
X20902118Y20168788D01*
X20837994Y20146325D01*
X20826065Y20142267D01*
X20725830Y20107831D01*
X20638906Y20076705D01*
X20570653Y20050875D01*
X20526431Y20032330D01*
X20517771Y20028008D01*
X20488534Y20015220D01*
X20439105Y19996544D01*
X20383613Y19977194D01*
X20277153Y19938038D01*
X20199636Y19900576D01*
X20147541Y19862010D01*
X20117346Y19819543D01*
X20105529Y19770378D01*
X20105033Y19755919D01*
X20115456Y19704978D01*
X20137574Y19663050D01*
X20163052Y19640888D01*
X20212699Y19606299D01*
X20281703Y19562163D01*
X20365252Y19511362D01*
X20458534Y19456774D01*
X20556739Y19401281D01*
X20655054Y19347764D01*
X20727967Y19309629D01*
X20785688Y19279030D01*
X20835487Y19250802D01*
X20866728Y19230977D01*
X20867033Y19230751D01*
X20879879Y19221164D01*
X20886965Y19212360D01*
X20885316Y19201304D01*
X20871956Y19184961D01*
X20843911Y19160298D01*
X20798205Y19124280D01*
X20731862Y19073872D01*
X20660325Y19019936D01*
X20595821Y18969510D01*
X20526606Y18912432D01*
X20457315Y18852889D01*
X20392586Y18795066D01*
X20337056Y18743149D01*
X20295361Y18701326D01*
X20272140Y18673782D01*
X20268904Y18666564D01*
X20282660Y18654362D01*
X20318763Y18632973D01*
X20369462Y18606185D01*
X20427008Y18577786D01*
X20483650Y18551565D01*
X20531640Y18531311D01*
X20563227Y18520811D01*
X20568458Y18520129D01*
X20598630Y18508501D01*
X20613033Y18495549D01*
X20637882Y18474883D01*
X20650161Y18470968D01*
X20672026Y18464288D01*
X20714883Y18446587D01*
X20770346Y18421378D01*
X20783348Y18415201D01*
X20851496Y18382875D01*
X20919344Y18351192D01*
X20972480Y18326880D01*
X20973549Y18326401D01*
X21025251Y18303027D01*
X21092959Y18272133D01*
X21162945Y18239988D01*
X21170194Y18236644D01*
X21281476Y18185448D01*
X21365995Y18146968D01*
X21426628Y18119932D01*
X21466251Y18103070D01*
X21487741Y18095110D01*
X21492818Y18094065D01*
X21510724Y18087333D01*
X21552037Y18068976D01*
X21610715Y18041753D01*
X21680715Y18008419D01*
X21684880Y18006412D01*
X21759618Y17970629D01*
X21827525Y17938584D01*
X21880970Y17913850D01*
X21911710Y17900247D01*
X21947136Y17876467D01*
X21954526Y17850194D01*
X21933138Y17828402D01*
X21919904Y17823460D01*
X21881905Y17810057D01*
X21831634Y17789430D01*
X21815196Y17782154D01*
X21762849Y17760416D01*
X21715274Y17743736D01*
X21704428Y17740693D01*
X21669246Y17727694D01*
X21652491Y17715346D01*
X21630175Y17702519D01*
X21615775Y17700674D01*
X21581991Y17693271D01*
X21541127Y17676093D01*
X21503727Y17658975D01*
X21478575Y17651619D01*
X21478229Y17651613D01*
X21456339Y17645135D01*
X21413823Y17628097D01*
X21359615Y17604095D01*
X21356056Y17602452D01*
X21300257Y17578011D01*
X21254362Y17560409D01*
X21227946Y17553305D01*
X21227372Y17553291D01*
X21199960Y17542825D01*
X21194775Y17536904D01*
X21171358Y17522453D01*
X21156936Y17520416D01*
X21123152Y17513013D01*
X21082288Y17495835D01*
X21040125Y17478377D01*
X21006456Y17471355D01*
X20971971Y17459530D01*
X20957162Y17446775D01*
X20926613Y17425822D01*
X20909271Y17422194D01*
X20874173Y17411796D01*
X20863290Y17403703D01*
X20838515Y17393343D01*
X20791128Y17383796D01*
X20731269Y17377090D01*
X20729760Y17376981D01*
X20663309Y17370134D01*
X20619945Y17359213D01*
X20590000Y17341216D01*
X20578247Y17329923D01*
X20548112Y17302968D01*
X20525344Y17291122D01*
X20524707Y17291097D01*
X20505041Y17280345D01*
X20470361Y17252249D01*
X20430997Y17215604D01*
X20354351Y17140111D01*
X20528756Y16972601D01*
X20667626Y16840037D01*
X20791158Y16723782D01*
X20898102Y16624961D01*
X20987206Y16544696D01*
X21057220Y16484112D01*
X21106891Y16444332D01*
X21134969Y16426480D01*
X21137775Y16425657D01*
X21160003Y16411946D01*
X21158652Y16392883D01*
X21140810Y16360624D01*
X21112971Y16325771D01*
X21084845Y16299285D01*
X21068829Y16291484D01*
X21049382Y16282842D01*
X21011181Y16260113D01*
X20962257Y16228096D01*
X20959085Y16225936D01*
X20910562Y16193614D01*
X20873178Y16170200D01*
X20854530Y16160437D01*
X20854108Y16160387D01*
X20836852Y16152612D01*
X20798574Y16131877D01*
X20746366Y16102073D01*
X20725000Y16089562D01*
X20657171Y16051730D01*
X20571302Y16007079D01*
X20473144Y15958278D01*
X20368448Y15907994D01*
X20262965Y15858897D01*
X20162445Y15813654D01*
X20072639Y15774934D01*
X19999299Y15745405D01*
X19948175Y15727735D01*
X19941162Y15725869D01*
X19895121Y15712116D01*
X19867420Y15701627D01*
X19752146Y15654980D01*
X19637562Y15616818D01*
X19621613Y15612058D01*
X19563731Y15594275D01*
X19514710Y15578000D01*
X19490516Y15568926D01*
X19458696Y15558330D01*
X19401366Y15542165D01*
X19324997Y15522029D01*
X19236060Y15499519D01*
X19141025Y15476235D01*
X19046365Y15453774D01*
X18958549Y15433734D01*
X18884048Y15417714D01*
X18854643Y15411869D01*
X18790623Y15402285D01*
X18703268Y15392880D01*
X18602010Y15384486D01*
X18496279Y15377939D01*
X18444287Y15375602D01*
X18342059Y15371352D01*
X18267617Y15367190D01*
X18215983Y15362402D01*
X18182180Y15356273D01*
X18161229Y15348090D01*
X18148152Y15337138D01*
X18144585Y15332616D01*
X18136730Y15323685D01*
X18125318Y15316539D01*
X18106865Y15310958D01*
X18077889Y15306721D01*
X18034905Y15303607D01*
X17974432Y15301397D01*
X17892984Y15299868D01*
X17787080Y15298800D01*
X17653236Y15297974D01*
X17593072Y15297671D01*
X17448760Y15297464D01*
X17300890Y15298151D01*
X17156432Y15299636D01*
X17022359Y15301821D01*
X16905639Y15304611D01*
X16813245Y15307909D01*
X16797461Y15308663D01*
X16685567Y15315252D01*
X16603085Y15322355D01*
X16546654Y15330397D01*
X16512914Y15339803D01*
X16502493Y15345983D01*
X16472485Y15359452D01*
X16419625Y15371662D01*
X16353819Y15380338D01*
X16352387Y15380465D01*
X16269832Y15389678D01*
X16179815Y15402743D01*
X16114775Y15414345D01*
X15980321Y15442077D01*
X15860291Y15468020D01*
X15758115Y15491356D01*
X15677225Y15511270D01*
X15621053Y15526945D01*
X15593031Y15537565D01*
X15591207Y15538910D01*
X15562995Y15551817D01*
X15542045Y15554600D01*
X15508466Y15560352D01*
X15457182Y15574276D01*
X15400914Y15592352D01*
X15352378Y15610560D01*
X15328194Y15622193D01*
X15302759Y15630958D01*
X15258934Y15640767D01*
X15242310Y15643719D01*
X15164886Y15664070D01*
X15075376Y15699517D01*
X15004771Y15734924D01*
X14968789Y15748442D01*
X14952380Y15750710D01*
X14925002Y15758029D01*
X14881110Y15776757D01*
X14851394Y15791678D01*
X14801604Y15815145D01*
X14759282Y15829968D01*
X14743197Y15832646D01*
X14697672Y15843110D01*
X14636972Y15871632D01*
X14569880Y15913904D01*
X14554088Y15925402D01*
X14513498Y15952436D01*
X14455238Y15987202D01*
X14390959Y16022788D01*
X14382024Y16027505D01*
X14317250Y16061832D01*
X14255975Y16094934D01*
X14210165Y16120339D01*
X14205678Y16122907D01*
X14125562Y16169229D01*
X14068375Y16202850D01*
X14028506Y16227187D01*
X14000347Y16245656D01*
X13980160Y16260251D01*
X13942407Y16278423D01*
X13912333Y16280270D01*
X13881338Y16285214D01*
X13833047Y16307285D01*
X13774493Y16341652D01*
X13712709Y16383483D01*
X13654729Y16427945D01*
X13607585Y16470206D01*
X13578311Y16505434D01*
X13574775Y16512193D01*
X13555971Y16537189D01*
X13517290Y16576863D01*
X13464555Y16625556D01*
X13409539Y16672707D01*
X13332754Y16737982D01*
X13245461Y16814884D01*
X13160473Y16892016D01*
X13112431Y16936977D01*
X13053713Y16990958D01*
X13001575Y17035400D01*
X12961467Y17065891D01*
X12938845Y17078017D01*
X12938117Y17078065D01*
X12917789Y17089843D01*
X12881561Y17121931D01*
X12834519Y17169464D01*
X12781743Y17227572D01*
X12780483Y17229017D01*
X12724589Y17294057D01*
X12687161Y17341044D01*
X12664551Y17376114D01*
X12653110Y17405403D01*
X12649188Y17435044D01*
X12648904Y17450242D01*
X12644768Y17499195D01*
X12631677Y17519522D01*
X12626208Y17520516D01*
X12601870Y17533076D01*
X12575826Y17562769D01*
X12549557Y17590379D01*
X12525701Y17596411D01*
X12507150Y17605891D01*
X12477206Y17640568D01*
X12438423Y17695982D01*
X12393354Y17767670D01*
X12344552Y17851171D01*
X12294570Y17942025D01*
X12245963Y18035769D01*
X12201283Y18127942D01*
X12163083Y18214084D01*
X12142413Y18266129D01*
X12116766Y18332377D01*
X12089753Y18398462D01*
X12074138Y18434536D01*
X12054593Y18488161D01*
X12043519Y18538361D01*
X12042581Y18551864D01*
X12037551Y18588138D01*
X12024084Y18645508D01*
X12004616Y18714149D01*
X11994040Y18747651D01*
X11970748Y18824743D01*
X11968990Y18831484D01*
X13728044Y18831484D01*
X13734297Y18204678D01*
X13736117Y18035059D01*
X13738168Y17894634D01*
X13740887Y17779823D01*
X13744710Y17687047D01*
X13750074Y17612724D01*
X13757413Y17553276D01*
X13767166Y17505123D01*
X13779767Y17464685D01*
X13795653Y17428381D01*
X13815260Y17392633D01*
X13837715Y17355952D01*
X13915503Y17261874D01*
X14017908Y17186090D01*
X14141710Y17129594D01*
X14283691Y17093383D01*
X14440630Y17078450D01*
X14609308Y17085791D01*
X14680904Y17095436D01*
X14825978Y17133149D01*
X14950016Y17195644D01*
X15051897Y17281813D01*
X15130499Y17390546D01*
X15184700Y17520736D01*
X15206021Y17614533D01*
X15209726Y17653503D01*
X15213119Y17720609D01*
X15216089Y17811214D01*
X15218526Y17920682D01*
X15220320Y18044376D01*
X15221361Y18177657D01*
X15221583Y18270226D01*
X15221593Y18331678D01*
X15426770Y18331678D01*
X15427748Y18257187D01*
X15432472Y18204486D01*
X15443166Y18162626D01*
X15462054Y18120659D01*
X15474224Y18098091D01*
X15525002Y18023939D01*
X15590159Y17962289D01*
X15673914Y17910724D01*
X15780486Y17866826D01*
X15914095Y17828178D01*
X15967291Y17815610D01*
X16089495Y17786056D01*
X16182704Y17758622D01*
X16250497Y17731838D01*
X16296456Y17704234D01*
X16324162Y17674340D01*
X16328040Y17667550D01*
X16350248Y17595014D01*
X16341813Y17527860D01*
X16304832Y17469990D01*
X16241404Y17425307D01*
X16187009Y17405189D01*
X16094005Y17392017D01*
X15981145Y17395429D01*
X15855976Y17414032D01*
X15726046Y17446433D01*
X15598903Y17491239D01*
X15516031Y17529021D01*
X15434710Y17570230D01*
X15434710Y17194044D01*
X15513497Y17170647D01*
X15578631Y17153111D01*
X15662049Y17133111D01*
X15750799Y17113523D01*
X15831927Y17097223D01*
X15885355Y17088081D01*
X15943502Y17083606D01*
X16022507Y17082873D01*
X16113294Y17085386D01*
X16206790Y17090643D01*
X16293919Y17098148D01*
X16365608Y17107400D01*
X16369669Y17108275D01*
X16991484Y17108275D01*
X17479000Y17114571D01*
X17620141Y17116539D01*
X17732854Y17118602D01*
X17821486Y17121075D01*
X17890382Y17124271D01*
X17943890Y17128504D01*
X17986354Y17134087D01*
X18022122Y17141333D01*
X18055538Y17150557D01*
X18078215Y17157814D01*
X18192481Y17211005D01*
X18283379Y17285533D01*
X18349401Y17378315D01*
X18389040Y17486272D01*
X18400789Y17606320D01*
X18383142Y17735380D01*
X18375109Y17764865D01*
X18345867Y17830883D01*
X18300732Y17896710D01*
X18247233Y17953771D01*
X18192900Y17993487D01*
X18164154Y18005151D01*
X18129565Y18019938D01*
X18125849Y18036968D01*
X18153693Y18052693D01*
X18192650Y18076667D01*
X18236938Y18120694D01*
X18278480Y18174921D01*
X18309197Y18229496D01*
X18317657Y18252679D01*
X18333212Y18354851D01*
X18327003Y18460122D01*
X18306780Y18536516D01*
X18826839Y18536516D01*
X18826839Y17241936D01*
X19236516Y17241936D01*
X19236516Y18536516D01*
X18826839Y18536516D01*
X18306780Y18536516D01*
X18300865Y18558856D01*
X18256632Y18641412D01*
X18239719Y18662010D01*
X18193625Y18705734D01*
X18140716Y18741595D01*
X18077533Y18770287D01*
X18000616Y18792502D01*
X17906508Y18808935D01*
X17791748Y18820278D01*
X17652880Y18827225D01*
X17486442Y18830469D01*
X17397065Y18830913D01*
X16991484Y18831484D01*
X16991484Y17108275D01*
X16369669Y17108275D01*
X16409742Y17116907D01*
X16517309Y17162037D01*
X16610629Y17223787D01*
X16681575Y17296488D01*
X16694958Y17315859D01*
X16739807Y17411935D01*
X16766739Y17524373D01*
X16775208Y17643158D01*
X16764665Y17758280D01*
X16734564Y17859723D01*
X16725712Y17878341D01*
X16682213Y17945194D01*
X16623819Y18002246D01*
X16546926Y18051402D01*
X16447933Y18094567D01*
X16323236Y18133645D01*
X16175683Y18169154D01*
X16095683Y18187381D01*
X16022387Y18205749D01*
X15964773Y18221913D01*
X15935269Y18231985D01*
X15871919Y18272633D01*
X15836836Y18327532D01*
X15831563Y18392592D01*
X15851808Y18453087D01*
X15879854Y18490886D01*
X15921766Y18517377D01*
X15982364Y18533992D01*
X16066467Y18542168D01*
X16155742Y18543585D01*
X16240922Y18541725D01*
X16308084Y18535908D01*
X16370631Y18523841D01*
X16441967Y18503228D01*
X16495775Y18485393D01*
X16663742Y18428327D01*
X16663742Y18604221D01*
X16663127Y18683199D01*
X16660670Y18735295D01*
X16655458Y18766387D01*
X16646575Y18782354D01*
X16635065Y18788542D01*
X16552801Y18808525D01*
X16449149Y18827483D01*
X16335485Y18843682D01*
X16223186Y18855385D01*
X16174067Y18858841D01*
X15992530Y18859367D01*
X15835923Y18838705D01*
X15704125Y18796808D01*
X15597019Y18733626D01*
X15514486Y18649110D01*
X15465600Y18565057D01*
X15445207Y18512268D01*
X15433252Y18458588D01*
X15427784Y18392282D01*
X15426770Y18331678D01*
X15221593Y18331678D01*
X15221678Y18831484D01*
X14780735Y18831484D01*
X14775884Y18229258D01*
X14774553Y18072454D01*
X14773200Y17944877D01*
X14771609Y17842983D01*
X14769569Y17763224D01*
X14766864Y17702055D01*
X14763282Y17655930D01*
X14758608Y17621303D01*
X14752629Y17594628D01*
X14745132Y17572360D01*
X14735901Y17550952D01*
X14734869Y17548709D01*
X14703389Y17493457D01*
X14664765Y17457849D01*
X14628353Y17438456D01*
X14535349Y17410405D01*
X14441677Y17407191D01*
X14354136Y17427131D01*
X14279523Y17468545D01*
X14224635Y17529750D01*
X14218929Y17539769D01*
X14209162Y17558821D01*
X14201206Y17578022D01*
X14194846Y17600841D01*
X14189861Y17630745D01*
X14186035Y17671202D01*
X14183150Y17725681D01*
X14180986Y17797650D01*
X14179327Y17890576D01*
X14177954Y18007928D01*
X14176648Y18153174D01*
X14176086Y18221065D01*
X14171075Y18831484D01*
X13728044Y18831484D01*
X11968990Y18831484D01*
X11950694Y18901620D01*
X11937163Y18965308D01*
X11934505Y18982645D01*
X11926038Y19034564D01*
X11916336Y19073339D01*
X11910923Y19085484D01*
X11901123Y19114220D01*
X11896568Y19142839D01*
X13730452Y19142839D01*
X13730452Y19028129D01*
X17384775Y19028129D01*
X17384775Y19142839D01*
X13730452Y19142839D01*
X11896568Y19142839D01*
X11892174Y19170439D01*
X11884263Y19248859D01*
X11877578Y19344194D01*
X11872305Y19451163D01*
X11868633Y19564479D01*
X11866747Y19678861D01*
X11866835Y19789025D01*
X11869084Y19889685D01*
X11873681Y19975560D01*
X11877850Y20019549D01*
X11887417Y20092772D01*
X11897378Y20156398D01*
X11904305Y20191613D01*
X13730452Y20191613D01*
X13730452Y19978581D01*
X13877936Y19978581D01*
X13877936Y19290323D01*
X14156516Y19290323D01*
X14156516Y19978581D01*
X14402323Y19978581D01*
X14402323Y20191613D01*
X14549807Y20191613D01*
X14549807Y19290323D01*
X14825625Y19290323D01*
X14831103Y19565584D01*
X14833689Y19670848D01*
X14836697Y19740968D01*
X15295705Y19740968D01*
X15297002Y19666121D01*
X15302048Y19613003D01*
X15313092Y19570605D01*
X15332382Y19527915D01*
X15343412Y19507381D01*
X15404444Y19420492D01*
X15481957Y19356114D01*
X15582758Y19308782D01*
X15596556Y19304049D01*
X15693284Y19283781D01*
X15807563Y19278562D01*
X15928093Y19287889D01*
X16043574Y19311262D01*
X16090194Y19325980D01*
X16196710Y19364197D01*
X16201572Y19475467D01*
X16206434Y19586738D01*
X16140097Y19552895D01*
X16042168Y19512527D01*
X15939090Y19486548D01*
X15838545Y19475624D01*
X15748216Y19480419D01*
X15675783Y19501601D01*
X15658808Y19511174D01*
X15625227Y19543790D01*
X15593195Y19591052D01*
X15571019Y19639165D01*
X15565807Y19665606D01*
X15578861Y19672334D01*
X15618981Y19677423D01*
X15687603Y19680949D01*
X15786161Y19682987D01*
X15909936Y19683613D01*
X16254065Y19683613D01*
X16254065Y19740968D01*
X16410027Y19740968D01*
X16411325Y19666121D01*
X16416371Y19613003D01*
X16427415Y19570605D01*
X16446705Y19527915D01*
X16457735Y19507381D01*
X16518766Y19420492D01*
X16596280Y19356114D01*
X16697080Y19308782D01*
X16710879Y19304049D01*
X16807607Y19283781D01*
X16921886Y19278562D01*
X17042415Y19287889D01*
X17157897Y19311262D01*
X17204516Y19325980D01*
X17311033Y19364197D01*
X17315895Y19475467D01*
X17319977Y19568904D01*
X18084971Y19568904D01*
X18101368Y19398487D01*
X18146053Y19240388D01*
X18216157Y19096753D01*
X18308812Y18969730D01*
X18421148Y18861466D01*
X18550296Y18774110D01*
X18693389Y18709809D01*
X18847557Y18670711D01*
X19009931Y18658962D01*
X19177643Y18676712D01*
X19252904Y18694563D01*
X19405536Y18753934D01*
X19547655Y18843386D01*
X19646194Y18929807D01*
X19758323Y19062365D01*
X19839681Y19205652D01*
X19890947Y19361309D01*
X19912799Y19530978D01*
X19913746Y19577097D01*
X19899352Y19750636D01*
X19855719Y19909742D01*
X19782168Y20056054D01*
X19678021Y20191216D01*
X19646194Y20224387D01*
X19513636Y20336517D01*
X19370349Y20417875D01*
X19214692Y20469141D01*
X19045023Y20490992D01*
X18998904Y20491940D01*
X18825364Y20477546D01*
X18666259Y20433913D01*
X18519946Y20360362D01*
X18384785Y20256214D01*
X18351613Y20224387D01*
X18240190Y20093306D01*
X18159514Y19952636D01*
X18108536Y19799797D01*
X18086207Y19632208D01*
X18084971Y19568904D01*
X17319977Y19568904D01*
X17320757Y19586738D01*
X17254419Y19552895D01*
X17156491Y19512527D01*
X17053413Y19486548D01*
X16952868Y19475624D01*
X16862538Y19480419D01*
X16790105Y19501601D01*
X16773131Y19511174D01*
X16739550Y19543790D01*
X16707517Y19591052D01*
X16685341Y19639165D01*
X16680129Y19665606D01*
X16693184Y19672334D01*
X16733304Y19677423D01*
X16801925Y19680949D01*
X16900483Y19682987D01*
X17024258Y19683613D01*
X17368387Y19683613D01*
X17368387Y19762574D01*
X17354553Y19887469D01*
X17312614Y19996117D01*
X17241919Y20090175D01*
X17237804Y20094338D01*
X17152465Y20162416D01*
X17056511Y20204275D01*
X16944804Y20221586D01*
X16851962Y20219805D01*
X16722370Y20199012D01*
X16616704Y20157219D01*
X16532611Y20093008D01*
X16467737Y20004965D01*
X16455211Y19981041D01*
X16432406Y19930176D01*
X16418742Y19884269D01*
X16412021Y19831638D01*
X16410043Y19760597D01*
X16410027Y19740968D01*
X16254065Y19740968D01*
X16254065Y19762574D01*
X16240230Y19887469D01*
X16198291Y19996117D01*
X16127596Y20090175D01*
X16123481Y20094338D01*
X16038142Y20162416D01*
X15942188Y20204275D01*
X15830481Y20221586D01*
X15737639Y20219805D01*
X15608047Y20199012D01*
X15502382Y20157219D01*
X15418288Y20093008D01*
X15353414Y20004965D01*
X15340889Y19981041D01*
X15318083Y19930176D01*
X15304420Y19884269D01*
X15297698Y19831638D01*
X15295721Y19760597D01*
X15295705Y19740968D01*
X14836697Y19740968D01*
X14837026Y19748630D01*
X14841693Y19804219D01*
X14848268Y19842906D01*
X14857330Y19869982D01*
X14866149Y19885914D01*
X14925368Y19948356D01*
X15001719Y19984528D01*
X15091168Y19993185D01*
X15169200Y19979532D01*
X15223022Y19964096D01*
X15213484Y20216194D01*
X15153120Y20221215D01*
X15051575Y20213807D01*
X14955616Y20176582D01*
X14893007Y20131470D01*
X14828387Y20073090D01*
X14828387Y20191613D01*
X14549807Y20191613D01*
X14402323Y20191613D01*
X14156516Y20191613D01*
X14156516Y20239604D01*
X14164225Y20287483D01*
X14190302Y20318152D01*
X14239176Y20334420D01*
X14313364Y20339097D01*
X14418710Y20339097D01*
X14418710Y20539368D01*
X14242549Y20533306D01*
X14154817Y20528920D01*
X14092243Y20521996D01*
X14047234Y20511267D01*
X14012197Y20495465D01*
X14010746Y20494622D01*
X13942817Y20441802D01*
X13901287Y20375551D01*
X13882003Y20289058D01*
X13881408Y20282422D01*
X13873877Y20191613D01*
X13730452Y20191613D01*
X11904305Y20191613D01*
X11906267Y20201586D01*
X11910484Y20216194D01*
X11919423Y20246534D01*
X11932030Y20299711D01*
X11946133Y20366311D01*
X11952064Y20396452D01*
X11966587Y20464367D01*
X11981468Y20521269D01*
X11994319Y20558467D01*
X11998807Y20566468D01*
X12011027Y20598872D01*
X12012482Y20634172D01*
X12015758Y20679282D01*
X12029937Y20731940D01*
X12033356Y20740640D01*
X12049907Y20786533D01*
X12058661Y20823039D01*
X12059069Y20828615D01*
X12066444Y20861579D01*
X12083650Y20902228D01*
X12101183Y20945474D01*
X12108129Y20980850D01*
X12119546Y21013858D01*
X12146933Y21048622D01*
X12174060Y21081773D01*
X12206326Y21132740D01*
X12239870Y21193717D01*
X12270830Y21256898D01*
X12295345Y21314478D01*
X12309554Y21358649D01*
X12310701Y21379676D01*
X12314764Y21407216D01*
X12337509Y21458185D01*
X12377484Y21530153D01*
X12433238Y21620688D01*
X12503318Y21727359D01*
X12586274Y21847735D01*
X12611173Y21882948D01*
X12657248Y21943767D01*
X12717073Y22016712D01*
X12787340Y22098305D01*
X12864741Y22185067D01*
X12945967Y22273521D01*
X13027710Y22360188D01*
X13106661Y22441590D01*
X13179514Y22514249D01*
X13242958Y22574687D01*
X13293686Y22619425D01*
X13328390Y22644986D01*
X13340459Y22649678D01*
X13368036Y22662084D01*
X13398000Y22692201D01*
X13399856Y22694742D01*
X13432165Y22728987D01*
X13488377Y22776755D01*
X13564094Y22835035D01*
X13654922Y22900818D01*
X13756464Y22971093D01*
X13864323Y23042850D01*
X13974104Y23113078D01*
X14081410Y23178769D01*
X14181846Y23236910D01*
X14230258Y23263354D01*
X14294351Y23297972D01*
X14348495Y23328108D01*
X14385494Y23349707D01*
X14396942Y23357249D01*
X14427291Y23361864D01*
X14448869Y23352153D01*
X14479966Y23340028D01*
X14506847Y23352673D01*
X14507508Y23353219D01*
X14529077Y23379166D01*
X14533687Y23393200D01*
X14548868Y23409192D01*
X14592956Y23435920D01*
X14664218Y23472492D01*
X14760919Y23518015D01*
X14873076Y23568000D01*
X14931537Y23589618D01*
X14987354Y23604017D01*
X15012848Y23607258D01*
X15064702Y23618351D01*
X15114679Y23642501D01*
X15115644Y23643169D01*
X15179959Y23676148D01*
X15265728Y23698458D01*
X15336334Y23708155D01*
X15379659Y23718119D01*
X15408585Y23734461D01*
X15410076Y23736245D01*
X15422758Y23746688D01*
X15447536Y23757047D01*
X15488618Y23768350D01*
X15550209Y23781625D01*
X15636519Y23797902D01*
X15729678Y23814382D01*
X15793341Y23828001D01*
X15850524Y23844569D01*
X15882801Y23857641D01*
X15926262Y23875005D01*
X15993760Y23893195D01*
X16087783Y23912760D01*
X16210820Y23934251D01*
X16278645Y23945059D01*
X16341961Y23955993D01*
X16393058Y23966819D01*
X16422965Y23975579D01*
X16426129Y23977253D01*
X16447940Y23983307D01*
X16495553Y23991256D01*
X16562124Y24000102D01*
X16640808Y24008848D01*
X16647355Y24009507D01*
X16712913Y24014331D01*
X16801578Y24018287D01*
X16909602Y24021399D01*
X17033238Y24023695D01*
X17168741Y24025200D01*
X17312362Y24025941D01*
X17460356Y24025942D01*
X17608975Y24025232D01*
G36*
X24816216Y21968942D02*
X24874254Y21965897D01*
X24917476Y21958935D01*
X24954856Y21946510D01*
X24995367Y21927079D01*
X25002156Y21923524D01*
X25118867Y21846101D01*
X25215229Y21749697D01*
X25288758Y21638933D01*
X25336969Y21518430D01*
X25357379Y21392810D01*
X25349570Y21277258D01*
X25308029Y21139457D01*
X25238430Y21015905D01*
X25143843Y20910596D01*
X25027338Y20827523D01*
X24988434Y20807470D01*
X24931353Y20782259D01*
X24882911Y20767107D01*
X24830668Y20759540D01*
X24762183Y20757088D01*
X24734387Y20756979D01*
X24656095Y20758514D01*
X24598759Y20764524D01*
X24550643Y20777131D01*
X24500013Y20798462D01*
X24496775Y20800001D01*
X24371489Y20876870D01*
X24269180Y20976411D01*
X24213001Y21057338D01*
X24158713Y21150258D01*
X23692744Y21154965D01*
X23518419Y21156482D01*
X23372610Y21156206D01*
X23251062Y21152654D01*
X23149518Y21144344D01*
X23063722Y21129793D01*
X22989417Y21107519D01*
X22922348Y21076039D01*
X22858258Y21033871D01*
X22792892Y20979532D01*
X22721992Y20911539D01*
X22641303Y20828410D01*
X22584942Y20769093D01*
X22498470Y20677974D01*
X22408305Y20583060D01*
X22320713Y20490942D01*
X22241959Y20408208D01*
X22178310Y20341447D01*
X22168599Y20331278D01*
X22093021Y20251857D01*
X22006332Y20160293D01*
X21919738Y20068446D01*
X21850796Y19994968D01*
X21792398Y19933158D01*
X21741443Y19880411D01*
X21702310Y19841174D01*
X21679381Y19819891D01*
X21675843Y19817441D01*
X21661912Y19798837D01*
X21661807Y19796957D01*
X21678015Y19795170D01*
X21725927Y19793472D01*
X21804472Y19791868D01*
X21912579Y19790365D01*
X22049177Y19788966D01*
X22213195Y19787678D01*
X22403564Y19786506D01*
X22619211Y19785455D01*
X22859068Y19784531D01*
X23122062Y19783738D01*
X23407123Y19783083D01*
X23713180Y19782570D01*
X24039163Y19782204D01*
X24384002Y19781992D01*
X24685226Y19781936D01*
X27708645Y19781936D01*
X27708645Y20020063D01*
X27709380Y20119004D01*
X27711817Y20189185D01*
X27716306Y20234594D01*
X27723194Y20259216D01*
X27730217Y20266468D01*
X27749103Y20260496D01*
X27792314Y20239741D01*
X27856236Y20206299D01*
X27937256Y20162264D01*
X28031760Y20109731D01*
X28136135Y20050796D01*
X28246766Y19987554D01*
X28360042Y19922100D01*
X28472347Y19856529D01*
X28580069Y19792937D01*
X28679594Y19733418D01*
X28767308Y19680067D01*
X28839598Y19634980D01*
X28892850Y19600253D01*
X28923451Y19577979D01*
X28929484Y19571127D01*
X28915828Y19557480D01*
X28877338Y19530100D01*
X28817736Y19491347D01*
X28740741Y19443577D01*
X28650072Y19389149D01*
X28552581Y19332224D01*
X28436709Y19265422D01*
X28316418Y19196026D01*
X28198858Y19128167D01*
X28091185Y19065974D01*
X28000549Y19013577D01*
X27958047Y18988979D01*
X27881861Y18946035D01*
X27815200Y18910676D01*
X27763325Y18885522D01*
X27731498Y18873189D01*
X27724531Y18872762D01*
X27718604Y18892170D01*
X27713763Y18938936D01*
X27710356Y19007652D01*
X27708733Y19092908D01*
X27708645Y19119226D01*
X27708645Y19355871D01*
X25437667Y19355871D01*
X25110136Y19355761D01*
X24804854Y19355435D01*
X24522731Y19354898D01*
X24264682Y19354158D01*
X24031618Y19353220D01*
X23824452Y19352091D01*
X23644096Y19350777D01*
X23491463Y19349283D01*
X23367464Y19347617D01*
X23273013Y19345785D01*
X23209022Y19343792D01*
X23176403Y19341645D01*
X23172151Y19340433D01*
X23185219Y19322734D01*
X23216064Y19287399D01*
X23259530Y19240207D01*
X23292756Y19205240D01*
X23330109Y19166202D01*
X23386711Y19106797D01*
X23459292Y19030468D01*
X23544580Y18940658D01*
X23639307Y18840813D01*
X23740201Y18734375D01*
X23843992Y18624789D01*
X23857748Y18610258D01*
X23958173Y18504612D01*
X24053332Y18405352D01*
X24140485Y18315273D01*
X24216894Y18237170D01*
X24279821Y18173836D01*
X24326527Y18128067D01*
X24354273Y18102656D01*
X24358120Y18099676D01*
X24394343Y18074764D01*
X24427074Y18054633D01*
X24460237Y18038734D01*
X24497757Y18026516D01*
X24543557Y18017428D01*
X24601563Y18010920D01*
X24675700Y18006441D01*
X24769890Y18003440D01*
X24888061Y18001368D01*
X25034135Y17999672D01*
X25073891Y17999259D01*
X25610039Y17993718D01*
X25614665Y18187279D01*
X25619291Y18380839D01*
X26209226Y18389033D01*
X26346076Y18390575D01*
X26473279Y18391322D01*
X26586938Y18391303D01*
X26683158Y18390547D01*
X26758042Y18389085D01*
X26807693Y18386945D01*
X26827839Y18384359D01*
X26835439Y18378977D01*
X26841571Y18368204D01*
X26846391Y18348816D01*
X26850055Y18317587D01*
X26852718Y18271293D01*
X26854539Y18206708D01*
X26855671Y18120606D01*
X26856271Y18009763D01*
X26856496Y17870953D01*
X26856516Y17791667D01*
X26856243Y17656139D01*
X26855466Y17530399D01*
X26854250Y17418358D01*
X26852659Y17323926D01*
X26850756Y17251016D01*
X26848607Y17203539D01*
X26846570Y17185921D01*
X26841051Y17179128D01*
X26828174Y17173620D01*
X26804846Y17169264D01*
X26767977Y17165930D01*
X26714474Y17163487D01*
X26641246Y17161804D01*
X26545201Y17160750D01*
X26423248Y17160194D01*
X26272295Y17160006D01*
X26234785Y17160000D01*
X26097447Y17160288D01*
X25970532Y17161107D01*
X25857750Y17162391D01*
X25762807Y17164074D01*
X25689413Y17166090D01*
X25641276Y17168372D01*
X25622104Y17170855D01*
X25622022Y17170925D01*
X25617710Y17190740D01*
X25614203Y17236378D01*
X25611878Y17300888D01*
X25611108Y17371667D01*
X25611119Y17561484D01*
X25164560Y17556752D01*
X24991750Y17555674D01*
X24847501Y17556688D01*
X24727642Y17560171D01*
X24628005Y17566501D01*
X24544420Y17576057D01*
X24472719Y17589215D01*
X24408731Y17606353D01*
X24348288Y17627850D01*
X24339057Y17631560D01*
X24287558Y17653248D01*
X24239954Y17675449D01*
X24194092Y17700090D01*
X24147816Y17729096D01*
X24098970Y17764394D01*
X24045399Y17807909D01*
X23984947Y17861567D01*
X23915460Y17927294D01*
X23834782Y18007016D01*
X23740757Y18102659D01*
X23631230Y18216149D01*
X23504046Y18349411D01*
X23357049Y18504371D01*
X23328541Y18534483D01*
X23188126Y18682711D01*
X23068174Y18808987D01*
X22966703Y18915245D01*
X22881733Y19003420D01*
X22811283Y19075443D01*
X22753374Y19133250D01*
X22706024Y19178774D01*
X22667254Y19213948D01*
X22635083Y19240705D01*
X22607531Y19260981D01*
X22582617Y19276708D01*
X22558360Y19289819D01*
X22551340Y19293323D01*
X22440977Y19347678D01*
X21665680Y19355871D01*
X21473380Y19358247D01*
X21305522Y19361033D01*
X21163450Y19364186D01*
X21048510Y19367665D01*
X20962047Y19371429D01*
X20905406Y19375433D01*
X20879930Y19379638D01*
X20878708Y19380478D01*
X20856830Y19398729D01*
X20819867Y19420416D01*
X20817871Y19421420D01*
X20781932Y19440672D01*
X20761116Y19454268D01*
X20760516Y19454866D01*
X20743595Y19466273D01*
X20705205Y19489484D01*
X20652520Y19520373D01*
X20592713Y19554816D01*
X20532961Y19588687D01*
X20480435Y19617861D01*
X20442312Y19638213D01*
X20436999Y19640885D01*
X20409006Y19659023D01*
X20400128Y19671323D01*
X20386672Y19682245D01*
X20375420Y19683613D01*
X20350905Y19690643D01*
X20350433Y19707112D01*
X20369657Y19726090D01*
X20404225Y19740646D01*
X20412291Y19742362D01*
X20456697Y19752633D01*
X20487152Y19763710D01*
X20490129Y19765559D01*
X20512002Y19770852D01*
X20559755Y19776475D01*
X20626508Y19781780D01*
X20705380Y19786120D01*
X20711355Y19786378D01*
X20848823Y19796726D01*
X20960095Y19815834D01*
X21050938Y19845215D01*
X21127120Y19886380D01*
X21147261Y19900714D01*
X21174066Y19924324D01*
X21218581Y19967385D01*
X21276238Y20025312D01*
X21342469Y20093522D01*
X21407603Y20162005D01*
X21618887Y20386397D01*
X21731212Y20406471D01*
X21788355Y20418309D01*
X21831572Y20430303D01*
X21851785Y20439918D01*
X21851962Y20440176D01*
X21873635Y20451947D01*
X21889337Y20453807D01*
X21923425Y20466851D01*
X21958906Y20498013D01*
X21984144Y20535336D01*
X21989549Y20556784D01*
X21981853Y20587653D01*
X21962685Y20631149D01*
X21955689Y20644192D01*
X21921829Y20704476D01*
X21994259Y20779884D01*
X22030197Y20817577D01*
X22082959Y20873276D01*
X22146961Y20941069D01*
X22216618Y21015044D01*
X22262735Y21064124D01*
X22370956Y21176662D01*
X22464248Y21267026D01*
X22547449Y21339183D01*
X22625397Y21397103D01*
X22702930Y21444753D01*
X22766936Y21477681D01*
X22825924Y21505119D01*
X22879381Y21527422D01*
X22931547Y21545119D01*
X22986665Y21558739D01*
X23048974Y21568813D01*
X23122716Y21575869D01*
X23212133Y21580438D01*
X23321464Y21583049D01*
X23454951Y21584232D01*
X23616836Y21584516D01*
X24160895Y21584516D01*
X24199777Y21657810D01*
X24246165Y21726063D01*
X24312229Y21799032D01*
X24388130Y21867184D01*
X24464030Y21920983D01*
X24481590Y21930933D01*
X24518404Y21948492D01*
X24555381Y21959832D01*
X24601050Y21966259D01*
X24663943Y21969079D01*
X24734387Y21969613D01*
X24816216Y21968942D01*
X24816216Y21968942D01*
G37*
X24816216Y21968942D02*
X24874254Y21965897D01*
X24917476Y21958935D01*
X24954856Y21946510D01*
X24995367Y21927079D01*
X25002156Y21923524D01*
X25118867Y21846101D01*
X25215229Y21749697D01*
X25288758Y21638933D01*
X25336969Y21518430D01*
X25357379Y21392810D01*
X25349570Y21277258D01*
X25308029Y21139457D01*
X25238430Y21015905D01*
X25143843Y20910596D01*
X25027338Y20827523D01*
X24988434Y20807470D01*
X24931353Y20782259D01*
X24882911Y20767107D01*
X24830668Y20759540D01*
X24762183Y20757088D01*
X24734387Y20756979D01*
X24656095Y20758514D01*
X24598759Y20764524D01*
X24550643Y20777131D01*
X24500013Y20798462D01*
X24496775Y20800001D01*
X24371489Y20876870D01*
X24269180Y20976411D01*
X24213001Y21057338D01*
X24158713Y21150258D01*
X23692744Y21154965D01*
X23518419Y21156482D01*
X23372610Y21156206D01*
X23251062Y21152654D01*
X23149518Y21144344D01*
X23063722Y21129793D01*
X22989417Y21107519D01*
X22922348Y21076039D01*
X22858258Y21033871D01*
X22792892Y20979532D01*
X22721992Y20911539D01*
X22641303Y20828410D01*
X22584942Y20769093D01*
X22498470Y20677974D01*
X22408305Y20583060D01*
X22320713Y20490942D01*
X22241959Y20408208D01*
X22178310Y20341447D01*
X22168599Y20331278D01*
X22093021Y20251857D01*
X22006332Y20160293D01*
X21919738Y20068446D01*
X21850796Y19994968D01*
X21792398Y19933158D01*
X21741443Y19880411D01*
X21702310Y19841174D01*
X21679381Y19819891D01*
X21675843Y19817441D01*
X21661912Y19798837D01*
X21661807Y19796957D01*
X21678015Y19795170D01*
X21725927Y19793472D01*
X21804472Y19791868D01*
X21912579Y19790365D01*
X22049177Y19788966D01*
X22213195Y19787678D01*
X22403564Y19786506D01*
X22619211Y19785455D01*
X22859068Y19784531D01*
X23122062Y19783738D01*
X23407123Y19783083D01*
X23713180Y19782570D01*
X24039163Y19782204D01*
X24384002Y19781992D01*
X24685226Y19781936D01*
X27708645Y19781936D01*
X27708645Y20020063D01*
X27709380Y20119004D01*
X27711817Y20189185D01*
X27716306Y20234594D01*
X27723194Y20259216D01*
X27730217Y20266468D01*
X27749103Y20260496D01*
X27792314Y20239741D01*
X27856236Y20206299D01*
X27937256Y20162264D01*
X28031760Y20109731D01*
X28136135Y20050796D01*
X28246766Y19987554D01*
X28360042Y19922100D01*
X28472347Y19856529D01*
X28580069Y19792937D01*
X28679594Y19733418D01*
X28767308Y19680067D01*
X28839598Y19634980D01*
X28892850Y19600253D01*
X28923451Y19577979D01*
X28929484Y19571127D01*
X28915828Y19557480D01*
X28877338Y19530100D01*
X28817736Y19491347D01*
X28740741Y19443577D01*
X28650072Y19389149D01*
X28552581Y19332224D01*
X28436709Y19265422D01*
X28316418Y19196026D01*
X28198858Y19128167D01*
X28091185Y19065974D01*
X28000549Y19013577D01*
X27958047Y18988979D01*
X27881861Y18946035D01*
X27815200Y18910676D01*
X27763325Y18885522D01*
X27731498Y18873189D01*
X27724531Y18872762D01*
X27718604Y18892170D01*
X27713763Y18938936D01*
X27710356Y19007652D01*
X27708733Y19092908D01*
X27708645Y19119226D01*
X27708645Y19355871D01*
X25437667Y19355871D01*
X25110136Y19355761D01*
X24804854Y19355435D01*
X24522731Y19354898D01*
X24264682Y19354158D01*
X24031618Y19353220D01*
X23824452Y19352091D01*
X23644096Y19350777D01*
X23491463Y19349283D01*
X23367464Y19347617D01*
X23273013Y19345785D01*
X23209022Y19343792D01*
X23176403Y19341645D01*
X23172151Y19340433D01*
X23185219Y19322734D01*
X23216064Y19287399D01*
X23259530Y19240207D01*
X23292756Y19205240D01*
X23330109Y19166202D01*
X23386711Y19106797D01*
X23459292Y19030468D01*
X23544580Y18940658D01*
X23639307Y18840813D01*
X23740201Y18734375D01*
X23843992Y18624789D01*
X23857748Y18610258D01*
X23958173Y18504612D01*
X24053332Y18405352D01*
X24140485Y18315273D01*
X24216894Y18237170D01*
X24279821Y18173836D01*
X24326527Y18128067D01*
X24354273Y18102656D01*
X24358120Y18099676D01*
X24394343Y18074764D01*
X24427074Y18054633D01*
X24460237Y18038734D01*
X24497757Y18026516D01*
X24543557Y18017428D01*
X24601563Y18010920D01*
X24675700Y18006441D01*
X24769890Y18003440D01*
X24888061Y18001368D01*
X25034135Y17999672D01*
X25073891Y17999259D01*
X25610039Y17993718D01*
X25614665Y18187279D01*
X25619291Y18380839D01*
X26209226Y18389033D01*
X26346076Y18390575D01*
X26473279Y18391322D01*
X26586938Y18391303D01*
X26683158Y18390547D01*
X26758042Y18389085D01*
X26807693Y18386945D01*
X26827839Y18384359D01*
X26835439Y18378977D01*
X26841571Y18368204D01*
X26846391Y18348816D01*
X26850055Y18317587D01*
X26852718Y18271293D01*
X26854539Y18206708D01*
X26855671Y18120606D01*
X26856271Y18009763D01*
X26856496Y17870953D01*
X26856516Y17791667D01*
X26856243Y17656139D01*
X26855466Y17530399D01*
X26854250Y17418358D01*
X26852659Y17323926D01*
X26850756Y17251016D01*
X26848607Y17203539D01*
X26846570Y17185921D01*
X26841051Y17179128D01*
X26828174Y17173620D01*
X26804846Y17169264D01*
X26767977Y17165930D01*
X26714474Y17163487D01*
X26641246Y17161804D01*
X26545201Y17160750D01*
X26423248Y17160194D01*
X26272295Y17160006D01*
X26234785Y17160000D01*
X26097447Y17160288D01*
X25970532Y17161107D01*
X25857750Y17162391D01*
X25762807Y17164074D01*
X25689413Y17166090D01*
X25641276Y17168372D01*
X25622104Y17170855D01*
X25622022Y17170925D01*
X25617710Y17190740D01*
X25614203Y17236378D01*
X25611878Y17300888D01*
X25611108Y17371667D01*
X25611119Y17561484D01*
X25164560Y17556752D01*
X24991750Y17555674D01*
X24847501Y17556688D01*
X24727642Y17560171D01*
X24628005Y17566501D01*
X24544420Y17576057D01*
X24472719Y17589215D01*
X24408731Y17606353D01*
X24348288Y17627850D01*
X24339057Y17631560D01*
X24287558Y17653248D01*
X24239954Y17675449D01*
X24194092Y17700090D01*
X24147816Y17729096D01*
X24098970Y17764394D01*
X24045399Y17807909D01*
X23984947Y17861567D01*
X23915460Y17927294D01*
X23834782Y18007016D01*
X23740757Y18102659D01*
X23631230Y18216149D01*
X23504046Y18349411D01*
X23357049Y18504371D01*
X23328541Y18534483D01*
X23188126Y18682711D01*
X23068174Y18808987D01*
X22966703Y18915245D01*
X22881733Y19003420D01*
X22811283Y19075443D01*
X22753374Y19133250D01*
X22706024Y19178774D01*
X22667254Y19213948D01*
X22635083Y19240705D01*
X22607531Y19260981D01*
X22582617Y19276708D01*
X22558360Y19289819D01*
X22551340Y19293323D01*
X22440977Y19347678D01*
X21665680Y19355871D01*
X21473380Y19358247D01*
X21305522Y19361033D01*
X21163450Y19364186D01*
X21048510Y19367665D01*
X20962047Y19371429D01*
X20905406Y19375433D01*
X20879930Y19379638D01*
X20878708Y19380478D01*
X20856830Y19398729D01*
X20819867Y19420416D01*
X20817871Y19421420D01*
X20781932Y19440672D01*
X20761116Y19454268D01*
X20760516Y19454866D01*
X20743595Y19466273D01*
X20705205Y19489484D01*
X20652520Y19520373D01*
X20592713Y19554816D01*
X20532961Y19588687D01*
X20480435Y19617861D01*
X20442312Y19638213D01*
X20436999Y19640885D01*
X20409006Y19659023D01*
X20400128Y19671323D01*
X20386672Y19682245D01*
X20375420Y19683613D01*
X20350905Y19690643D01*
X20350433Y19707112D01*
X20369657Y19726090D01*
X20404225Y19740646D01*
X20412291Y19742362D01*
X20456697Y19752633D01*
X20487152Y19763710D01*
X20490129Y19765559D01*
X20512002Y19770852D01*
X20559755Y19776475D01*
X20626508Y19781780D01*
X20705380Y19786120D01*
X20711355Y19786378D01*
X20848823Y19796726D01*
X20960095Y19815834D01*
X21050938Y19845215D01*
X21127120Y19886380D01*
X21147261Y19900714D01*
X21174066Y19924324D01*
X21218581Y19967385D01*
X21276238Y20025312D01*
X21342469Y20093522D01*
X21407603Y20162005D01*
X21618887Y20386397D01*
X21731212Y20406471D01*
X21788355Y20418309D01*
X21831572Y20430303D01*
X21851785Y20439918D01*
X21851962Y20440176D01*
X21873635Y20451947D01*
X21889337Y20453807D01*
X21923425Y20466851D01*
X21958906Y20498013D01*
X21984144Y20535336D01*
X21989549Y20556784D01*
X21981853Y20587653D01*
X21962685Y20631149D01*
X21955689Y20644192D01*
X21921829Y20704476D01*
X21994259Y20779884D01*
X22030197Y20817577D01*
X22082959Y20873276D01*
X22146961Y20941069D01*
X22216618Y21015044D01*
X22262735Y21064124D01*
X22370956Y21176662D01*
X22464248Y21267026D01*
X22547449Y21339183D01*
X22625397Y21397103D01*
X22702930Y21444753D01*
X22766936Y21477681D01*
X22825924Y21505119D01*
X22879381Y21527422D01*
X22931547Y21545119D01*
X22986665Y21558739D01*
X23048974Y21568813D01*
X23122716Y21575869D01*
X23212133Y21580438D01*
X23321464Y21583049D01*
X23454951Y21584232D01*
X23616836Y21584516D01*
X24160895Y21584516D01*
X24199777Y21657810D01*
X24246165Y21726063D01*
X24312229Y21799032D01*
X24388130Y21867184D01*
X24464030Y21920983D01*
X24481590Y21930933D01*
X24518404Y21948492D01*
X24555381Y21959832D01*
X24601050Y21966259D01*
X24663943Y21969079D01*
X24734387Y21969613D01*
X24816216Y21968942D01*
G36*
X28998788Y24118030D02*
X28993901Y24110582D01*
X28977280Y24109423D01*
X28959794Y24113425D01*
X28967379Y24119324D01*
X28992990Y24121277D01*
X28998788Y24118030D01*
X28998788Y24118030D01*
G37*
X28998788Y24118030D02*
X28993901Y24110582D01*
X28977280Y24109423D01*
X28959794Y24113425D01*
X28967379Y24119324D01*
X28992990Y24121277D01*
X28998788Y24118030D01*
G36*
X17601904Y17863721D02*
X17679553Y17861412D01*
X17750858Y17855965D01*
X17805579Y17848316D01*
X17825691Y17843237D01*
X17886747Y17806159D01*
X17929285Y17749075D01*
X17952424Y17679604D01*
X17955281Y17605364D01*
X17936974Y17533976D01*
X17896618Y17473057D01*
X17871111Y17451147D01*
X17844463Y17434750D01*
X17814123Y17423531D01*
X17772860Y17416220D01*
X17713440Y17411548D01*
X17628634Y17408243D01*
X17626484Y17408178D01*
X17433936Y17402355D01*
X17433936Y17864646D01*
X17601904Y17863721D01*
X17601904Y17863721D01*
G37*
X17601904Y17863721D02*
X17679553Y17861412D01*
X17750858Y17855965D01*
X17805579Y17848316D01*
X17825691Y17843237D01*
X17886747Y17806159D01*
X17929285Y17749075D01*
X17952424Y17679604D01*
X17955281Y17605364D01*
X17936974Y17533976D01*
X17896618Y17473057D01*
X17871111Y17451147D01*
X17844463Y17434750D01*
X17814123Y17423531D01*
X17772860Y17416220D01*
X17713440Y17411548D01*
X17628634Y17408243D01*
X17626484Y17408178D01*
X17433936Y17402355D01*
X17433936Y17864646D01*
X17601904Y17863721D01*
G36*
X17585516Y18536491D02*
X17699497Y18530345D01*
X17784855Y18511040D01*
X17843548Y18477205D01*
X17877533Y18427473D01*
X17888768Y18360476D01*
X17887055Y18325652D01*
X17867699Y18253453D01*
X17836884Y18210943D01*
X17815746Y18191854D01*
X17793055Y18179110D01*
X17761605Y18171137D01*
X17714187Y18166363D01*
X17643594Y18163215D01*
X17613862Y18162260D01*
X17433936Y18156714D01*
X17433936Y18536516D01*
X17585516Y18536491D01*
X17585516Y18536491D01*
G37*
X17585516Y18536491D02*
X17699497Y18530345D01*
X17784855Y18511040D01*
X17843548Y18477205D01*
X17877533Y18427473D01*
X17888768Y18360476D01*
X17887055Y18325652D01*
X17867699Y18253453D01*
X17836884Y18210943D01*
X17815746Y18191854D01*
X17793055Y18179110D01*
X17761605Y18171137D01*
X17714187Y18166363D01*
X17643594Y18163215D01*
X17613862Y18162260D01*
X17433936Y18156714D01*
X17433936Y18536516D01*
X17585516Y18536491D01*
G36*
X19068758Y20149354D02*
X19125075Y20144538D01*
X19170662Y20134030D01*
X19216522Y20115797D01*
X19240416Y20104415D01*
X19353657Y20031691D01*
X19450936Y19935004D01*
X19524483Y19822126D01*
X19526222Y19818610D01*
X19548633Y19768993D01*
X19562399Y19724646D01*
X19569549Y19674567D01*
X19572115Y19607754D01*
X19572315Y19568904D01*
X19571161Y19490855D01*
X19566345Y19434538D01*
X19555836Y19388951D01*
X19537604Y19343092D01*
X19526222Y19319197D01*
X19454417Y19207058D01*
X19359467Y19111052D01*
X19249036Y19038810D01*
X19240416Y19034598D01*
X19135129Y18998634D01*
X19018008Y18982174D01*
X18901294Y18985902D01*
X18798716Y19009945D01*
X18672751Y19072804D01*
X18568071Y19158151D01*
X18487023Y19262441D01*
X18431950Y19382126D01*
X18405197Y19513662D01*
X18404271Y19606462D01*
X18428879Y19742404D01*
X18482666Y19866129D01*
X18563183Y19974017D01*
X18667981Y20062446D01*
X18741003Y20104415D01*
X18790620Y20126827D01*
X18834968Y20140592D01*
X18885047Y20147742D01*
X18951860Y20150308D01*
X18990710Y20150508D01*
X19068758Y20149354D01*
X19068758Y20149354D01*
G37*
X19068758Y20149354D02*
X19125075Y20144538D01*
X19170662Y20134030D01*
X19216522Y20115797D01*
X19240416Y20104415D01*
X19353657Y20031691D01*
X19450936Y19935004D01*
X19524483Y19822126D01*
X19526222Y19818610D01*
X19548633Y19768993D01*
X19562399Y19724646D01*
X19569549Y19674567D01*
X19572115Y19607754D01*
X19572315Y19568904D01*
X19571161Y19490855D01*
X19566345Y19434538D01*
X19555836Y19388951D01*
X19537604Y19343092D01*
X19526222Y19319197D01*
X19454417Y19207058D01*
X19359467Y19111052D01*
X19249036Y19038810D01*
X19240416Y19034598D01*
X19135129Y18998634D01*
X19018008Y18982174D01*
X18901294Y18985902D01*
X18798716Y19009945D01*
X18672751Y19072804D01*
X18568071Y19158151D01*
X18487023Y19262441D01*
X18431950Y19382126D01*
X18405197Y19513662D01*
X18404271Y19606462D01*
X18428879Y19742404D01*
X18482666Y19866129D01*
X18563183Y19974017D01*
X18667981Y20062446D01*
X18741003Y20104415D01*
X18790620Y20126827D01*
X18834968Y20140592D01*
X18885047Y20147742D01*
X18951860Y20150308D01*
X18990710Y20150508D01*
X19068758Y20149354D01*
G36*
X15871788Y20008221D02*
X15880765Y20004242D01*
X15929671Y19969139D01*
X15964132Y19922073D01*
X15975484Y19879487D01*
X15959959Y19873161D01*
X15916801Y19868188D01*
X15851138Y19864961D01*
X15772180Y19863871D01*
X15687688Y19864169D01*
X15630863Y19865605D01*
X15596600Y19868994D01*
X15579792Y19875150D01*
X15575334Y19884887D01*
X15577015Y19894998D01*
X15607043Y19949989D01*
X15659881Y19991809D01*
X15727183Y20017456D01*
X15800600Y20023927D01*
X15871788Y20008221D01*
X15871788Y20008221D01*
G37*
X15871788Y20008221D02*
X15880765Y20004242D01*
X15929671Y19969139D01*
X15964132Y19922073D01*
X15975484Y19879487D01*
X15959959Y19873161D01*
X15916801Y19868188D01*
X15851138Y19864961D01*
X15772180Y19863871D01*
X15687688Y19864169D01*
X15630863Y19865605D01*
X15596600Y19868994D01*
X15579792Y19875150D01*
X15575334Y19884887D01*
X15577015Y19894998D01*
X15607043Y19949989D01*
X15659881Y19991809D01*
X15727183Y20017456D01*
X15800600Y20023927D01*
X15871788Y20008221D01*
G36*
X16986111Y20008221D02*
X16995087Y20004242D01*
X17043993Y19969139D01*
X17078455Y19922073D01*
X17089807Y19879487D01*
X17074281Y19873161D01*
X17031123Y19868188D01*
X16965461Y19864961D01*
X16886502Y19863871D01*
X16802011Y19864169D01*
X16745186Y19865605D01*
X16710922Y19868994D01*
X16694114Y19875150D01*
X16689656Y19884887D01*
X16691337Y19894998D01*
X16721366Y19949989D01*
X16774204Y19991809D01*
X16841505Y20017456D01*
X16914923Y20023927D01*
X16986111Y20008221D01*
X16986111Y20008221D01*
G37*
X16986111Y20008221D02*
X16995087Y20004242D01*
X17043993Y19969139D01*
X17078455Y19922073D01*
X17089807Y19879487D01*
X17074281Y19873161D01*
X17031123Y19868188D01*
X16965461Y19864961D01*
X16886502Y19863871D01*
X16802011Y19864169D01*
X16745186Y19865605D01*
X16710922Y19868994D01*
X16694114Y19875150D01*
X16689656Y19884887D01*
X16691337Y19894998D01*
X16721366Y19949989D01*
X16774204Y19991809D01*
X16841505Y20017456D01*
X16914923Y20023927D01*
X16986111Y20008221D01*
D10*
X18633334Y36396057D02*
X18585715Y36348438D01*
X18442858Y36300819D01*
X18347620Y36300819D01*
X18204762Y36348438D01*
X18109524Y36443676D01*
X18061905Y36538914D01*
X18014286Y36729390D01*
X18014286Y36872248D01*
X18061905Y37062724D01*
X18109524Y37157962D01*
X18204762Y37253200D01*
X18347620Y37300819D01*
X18442858Y37300819D01*
X18585715Y37253200D01*
X18633334Y37205581D01*
X19585715Y36300819D02*
X19014286Y36300819D01*
X19300000Y36300819D02*
X19300000Y37300819D01*
X19204762Y37157962D01*
X19109524Y37062724D01*
X19014286Y37015105D01*
X22377605Y6628319D02*
X22377605Y7628319D01*
X22615700Y7628319D01*
X22758558Y7580700D01*
X22853796Y7485462D01*
X22901415Y7390224D01*
X22949034Y7199748D01*
X22949034Y7056890D01*
X22901415Y6866414D01*
X22853796Y6771176D01*
X22758558Y6675938D01*
X22615700Y6628319D01*
X22377605Y6628319D01*
X23901415Y6628319D02*
X23329986Y6628319D01*
X23615700Y6628319D02*
X23615700Y7628319D01*
X23520462Y7485462D01*
X23425224Y7390224D01*
X23329986Y7342605D01*
X25746095Y5503619D02*
X25746095Y6503619D01*
X26317524Y5503619D02*
X25888952Y6075048D01*
X26317524Y6503619D02*
X25746095Y5932190D01*
X16339905Y6613619D02*
X16339905Y7613619D01*
X16578000Y7613619D01*
X16720858Y7566000D01*
X16816096Y7470762D01*
X16863715Y7375524D01*
X16911334Y7185048D01*
X16911334Y7042190D01*
X16863715Y6851714D01*
X16816096Y6756476D01*
X16720858Y6661238D01*
X16578000Y6613619D01*
X16339905Y6613619D01*
X17292286Y7518381D02*
X17339905Y7566000D01*
X17435143Y7613619D01*
X17673239Y7613619D01*
X17768477Y7566000D01*
X17816096Y7518381D01*
X17863715Y7423143D01*
X17863715Y7327905D01*
X17816096Y7185048D01*
X17244667Y6613619D01*
X17863715Y6613619D01*
X19706095Y5503619D02*
X19706095Y6503619D01*
X20277524Y5503619D02*
X19848952Y6075048D01*
X20277524Y6503619D02*
X19706095Y5932190D01*
X10248705Y6641019D02*
X10248705Y7641019D01*
X10486800Y7641019D01*
X10629658Y7593400D01*
X10724896Y7498162D01*
X10772515Y7402924D01*
X10820134Y7212448D01*
X10820134Y7069590D01*
X10772515Y6879114D01*
X10724896Y6783876D01*
X10629658Y6688638D01*
X10486800Y6641019D01*
X10248705Y6641019D01*
X11153467Y7641019D02*
X11772515Y7641019D01*
X11439181Y7260067D01*
X11582039Y7260067D01*
X11677277Y7212448D01*
X11724896Y7164829D01*
X11772515Y7069590D01*
X11772515Y6831495D01*
X11724896Y6736257D01*
X11677277Y6688638D01*
X11582039Y6641019D01*
X11296324Y6641019D01*
X11201086Y6688638D01*
X11153467Y6736257D01*
X13696095Y5483619D02*
X13696095Y6483619D01*
X14267524Y5483619D02*
X13838952Y6055048D01*
X14267524Y6483619D02*
X13696095Y5912190D01*
X28070905Y6577519D02*
X28070905Y7577519D01*
X28309000Y7577519D01*
X28451858Y7529900D01*
X28547096Y7434662D01*
X28594715Y7339424D01*
X28642334Y7148948D01*
X28642334Y7006090D01*
X28594715Y6815614D01*
X28547096Y6720376D01*
X28451858Y6625138D01*
X28309000Y6577519D01*
X28070905Y6577519D01*
X29499477Y7244186D02*
X29499477Y6577519D01*
X29261381Y7625138D02*
X29023286Y6910852D01*
X29642334Y6910852D01*
X31706095Y5503619D02*
X31706095Y6503619D01*
X32277524Y5503619D02*
X31848952Y6075048D01*
X32277524Y6503619D02*
X31706095Y5932190D01*
X23108162Y38364581D02*
X23012924Y38412200D01*
X22917686Y38507438D01*
X22774829Y38650295D01*
X22679590Y38697914D01*
X22584352Y38697914D01*
X22631971Y38459819D02*
X22536733Y38507438D01*
X22441495Y38602676D01*
X22393876Y38793152D01*
X22393876Y39126486D01*
X22441495Y39316962D01*
X22536733Y39412200D01*
X22631971Y39459819D01*
X22822448Y39459819D01*
X22917686Y39412200D01*
X23012924Y39316962D01*
X23060543Y39126486D01*
X23060543Y38793152D01*
X23012924Y38602676D01*
X22917686Y38507438D01*
X22822448Y38459819D01*
X22631971Y38459819D01*
X24012924Y38459819D02*
X23441495Y38459819D01*
X23727209Y38459819D02*
X23727209Y39459819D01*
X23631971Y39316962D01*
X23536733Y39221724D01*
X23441495Y39174105D01*
X28251662Y38478881D02*
X28156424Y38526500D01*
X28061186Y38621738D01*
X27918329Y38764595D01*
X27823090Y38812214D01*
X27727852Y38812214D01*
X27775471Y38574119D02*
X27680233Y38621738D01*
X27584995Y38716976D01*
X27537376Y38907452D01*
X27537376Y39240786D01*
X27584995Y39431262D01*
X27680233Y39526500D01*
X27775471Y39574119D01*
X27965948Y39574119D01*
X28061186Y39526500D01*
X28156424Y39431262D01*
X28204043Y39240786D01*
X28204043Y38907452D01*
X28156424Y38716976D01*
X28061186Y38621738D01*
X27965948Y38574119D01*
X27775471Y38574119D01*
X28584995Y39478881D02*
X28632614Y39526500D01*
X28727852Y39574119D01*
X28965948Y39574119D01*
X29061186Y39526500D01*
X29108805Y39478881D01*
X29156424Y39383643D01*
X29156424Y39288405D01*
X29108805Y39145548D01*
X28537376Y38574119D01*
X29156424Y38574119D01*
X3524934Y7974057D02*
X3477315Y7926438D01*
X3334458Y7878819D01*
X3239220Y7878819D01*
X3096362Y7926438D01*
X3001124Y8021676D01*
X2953505Y8116914D01*
X2905886Y8307390D01*
X2905886Y8450248D01*
X2953505Y8640724D01*
X3001124Y8735962D01*
X3096362Y8831200D01*
X3239220Y8878819D01*
X3334458Y8878819D01*
X3477315Y8831200D01*
X3524934Y8783581D01*
X3905886Y8783581D02*
X3953505Y8831200D01*
X4048743Y8878819D01*
X4286839Y8878819D01*
X4382077Y8831200D01*
X4429696Y8783581D01*
X4477315Y8688343D01*
X4477315Y8593105D01*
X4429696Y8450248D01*
X3858267Y7878819D01*
X4477315Y7878819D01*
X9652381Y37561905D02*
X8652381Y37561905D01*
X8652381Y37942858D01*
X8700000Y38038096D01*
X8747619Y38085715D01*
X8842857Y38133334D01*
X8985714Y38133334D01*
X9080952Y38085715D01*
X9128571Y38038096D01*
X9176190Y37942858D01*
X9176190Y37561905D01*
X8652381Y38466667D02*
X8652381Y39085715D01*
X9033333Y38752381D01*
X9033333Y38895239D01*
X9080952Y38990477D01*
X9128571Y39038096D01*
X9223810Y39085715D01*
X9461905Y39085715D01*
X9557143Y39038096D01*
X9604762Y38990477D01*
X9652381Y38895239D01*
X9652381Y38609524D01*
X9604762Y38514286D01*
X9557143Y38466667D01*
%LPC*%
D14*
X18606000Y14600000D03*
X18606000Y24760000D03*
D15*
X4752200Y37460000D03*
D16*
X7292200Y37460000D03*
X4752200Y34920000D03*
X7292200Y34920000D03*
X4752200Y32380000D03*
X7292200Y32380000D03*
X4752200Y29840000D03*
X7292200Y29840000D03*
X4752200Y27300000D03*
X7292200Y27300000D03*
X4752200Y24760000D03*
X7292200Y24760000D03*
X4752200Y22220000D03*
X7292200Y22220000D03*
X4752200Y19680000D03*
X7292200Y19680000D03*
X4752200Y17140000D03*
X7292200Y17140000D03*
X4752200Y14600000D03*
X7292200Y14600000D03*
D15*
X32692200Y37460000D03*
D16*
X35232200Y37460000D03*
X32692200Y34920000D03*
X35232200Y34920000D03*
X32692200Y32380000D03*
X35232200Y32380000D03*
X32692200Y29840000D03*
X35232200Y29840000D03*
X32692200Y27300000D03*
X35232200Y27300000D03*
X32692200Y24760000D03*
X35232200Y24760000D03*
X32692200Y22220000D03*
X35232200Y22220000D03*
X32692200Y19680000D03*
X35232200Y19680000D03*
X32692200Y17140000D03*
X35232200Y17140000D03*
X32692200Y14600000D03*
X35232200Y14600000D03*
D17*
X14912200Y29586000D03*
X14912200Y32126000D03*
X17452200Y29586000D03*
X17452200Y32126000D03*
X19992200Y29586000D03*
X19992200Y32126000D03*
X22532200Y29586000D03*
X22532200Y32126000D03*
X25072200Y29586000D03*
X25072200Y32126000D03*
D18*
X18656800Y38442300D03*
X16116800Y38442300D03*
D19*
X24318000Y4216000D03*
D20*
X21778000Y4216000D03*
D19*
X18278000Y4216000D03*
D20*
X15738000Y4216000D03*
D19*
X12278000Y4216000D03*
D20*
X9738000Y4216000D03*
D19*
X30278000Y4216000D03*
D20*
X27738000Y4216000D03*
D21*
X23127200Y37388200D03*
X24397200Y37388200D03*
X21857200Y37388200D03*
X28308800Y37515200D03*
X29578800Y37515200D03*
X27038800Y37515200D03*
D14*
X10224000Y24796000D03*
X10224000Y14636000D03*
X29782000Y14600000D03*
X29782000Y24760000D03*
X26988000Y14600000D03*
X26988000Y24760000D03*
X24194000Y24764400D03*
X24194000Y14604400D03*
X21400000Y14604400D03*
X21400000Y24764400D03*
X15812000Y14600000D03*
X15812000Y24760000D03*
X13018000Y14600000D03*
X13018000Y24760000D03*
X25158000Y10396000D03*
X14998000Y10396000D03*
D18*
X9200000Y9400000D03*
X6660000Y9400000D03*
D22*
X10808200Y37502500D03*
D23*
X13348200Y37502500D03*
M02*
